<?xml version="1.0" encoding="UTF-8"?>
<svg width="1400px" height="535px" version="1.1" xmlns="http://www.w3.org/2000/svg" xmlns:xlink="http://www.w3.org/1999/xlink">
    <!-- Generator: Sketch 51.2 (57519) - http://www.bohemiancoding.com/sketch -->
    <title>Group 10</title>
    <desc>Created with Sketch.</desc>
    <defs>
        <linearGradient x1="50%" y1="100%" x2="50%" y2="26.8543102%" id="linearGradient-1">
            <stop stop-color="#1E66AC" offset="0%"></stop>
            <stop stop-color="#0D3674" offset="100%"></stop>
        </linearGradient>
    </defs>
    <g id="Welcome" stroke="none" stroke-width="1" fill="none" fill-rule="evenodd">
        <g id="Desktop" transform="translate(0.000000, -2124.000000)">
            <g id="Group-10" transform="translate(700.500000, 2391.500000) scale(1, -1) translate(-700.500000, -2391.500000) translate(0.000000, 2124.000000)">
                <g id="Icicles_clip_art" transform="translate(182.000000, 354.000000)" fill="#1E66AC">
                    <path d="M0,0.1710618 C0,0.1710618 0,8.21103351 0.51399198,10.4348513 C1.02798396,12.6586738 2.56995511,16.9352524 3.08394704,19.1590749 C3.59793902,21.3828975 2.74128892,25.659476 4.111931,29.4228644 C5.48257308,33.1862527 6.51055704,33.8705095 6.33922798,37.6338978 C6.16789412,41.3972862 6.16789412,40.3709058 6.6818861,42.0815381 C7.19587808,43.7921705 7.538541,50.6347 7.538541,50.6347 C7.7955346,52.7729917 10.1084961,52.4308633 10.2798252,50.8057618 C10.6385397,47.4032969 9.93716225,44.4764225 10.6224833,42.9368567 C11.3078043,41.3972862 12.1644592,41.2262244 12.8497803,38.6602782 C13.5351013,36.0943272 14.2204224,34.3836949 14.5630901,32.6730673 C14.9057482,30.9624349 14.7344191,29.5939262 15.591074,28.9096742 C16.4477241,28.2254222 16.1050612,25.4884142 16.2763951,24.290972 C16.4477241,23.0935299 16.6190532,20.6986455 18.1610291,20.8697073 C19.7030003,21.0407691 20.7309842,26.6858564 20.7309842,30.4492447 C20.7309842,34.2126331 21.9302973,35.0679517 22.1016263,36.9496458 C22.2729602,38.83134 22.7869522,43.4500469 23.3009394,44.9896127 C23.8149313,46.5291833 25.0142444,47.5555589 24.6715862,49.2661912 C24.3289233,50.9768236 24.4145878,54.9968046 25.3569073,55.2534021 C26.9250138,55.6804004 27.5842043,54.0559599 28.4408544,54.0559599 C29.2975045,54.0559599 29.4688383,57.3061629 29.4688383,58.3325385 C29.4688383,59.3589189 29.9828303,63.9776258 30.1541594,65.3461298 C30.3254884,66.7146337 30.3254884,71.6754643 30.6681513,76.1231094 C30.8006514,77.8286167 30.4968175,81.7681967 31.0108095,84.3341428 C31.5248014,86.900089 31.3534724,88.9528498 31.6961305,90.4924155 C32.0387934,92.0319861 31.5248014,95.9664363 33.2381064,95.9664363 C34.9514115,95.9664363 34.7800824,94.4268705 35.4654034,90.6634773 C36.1507245,86.900089 35.1227405,86.0447752 35.8080616,84.5052046 C36.4933826,82.9656389 37.6926956,80.7418163 37.3500375,78.6890555 C37.0073746,76.6362996 36.6647165,74.2414152 37.3500375,73.2150348 C38.0353585,72.1886592 38.3780215,69.6227083 38.3780215,67.7410141 C38.3780215,65.8593199 37.3500375,65.6882581 38.5493505,63.9776258 C39.7486635,62.2669934 39.0633425,56.4508443 39.7486635,54.3980883 C40.4339846,52.3453276 41.6332976,51.1478854 41.4619685,46.5291833 C41.2906347,41.9104763 41.1193056,37.6338978 41.8046267,36.0943272 C42.4899477,34.5547615 42.3186186,32.1598771 43.6892607,32.6730673 C45.0599076,33.1862527 44.8885737,33.5283811 45.2312367,36.4364556 C45.5738996,39.3445302 45.7452301,44.6474891 45.9165591,46.0159931 C46.0878882,47.3844971 46.4305511,48.753001 47.1158722,49.9504432 C47.8011932,51.1478854 49.1718401,55.4244687 49.1718401,56.7929727 C49.1718401,58.1614767 50.3711531,61.4116796 50.1998193,62.4380552 C50.0284902,63.4644356 48.8291772,65.6882581 49.6858273,67.3988905 C50.5424822,69.1095181 50.3711531,70.6490887 50.5424822,72.0175927 C50.7138112,73.3861014 50.8851403,76.1231094 51.2278032,77.66268 C51.5704661,79.2022457 53.6264293,81.7681967 54.1404212,78.6890555 C54.6544132,75.6099192 55.5110633,73.2150348 55.6823924,70.4780269 C55.8537262,67.7410141 55.1684052,67.2278239 55.5110633,65.0040062 C55.8537262,62.7801836 56.3677182,61.240613 56.1963844,59.5299807 C56.0250553,57.8193531 56.5390473,53.7138363 56.5390473,51.1478854 C56.5390473,48.5819392 57.3956974,46.5291833 57.7383603,45.3317411 C58.0810184,44.1342989 58.0810184,42.9368567 58.9376733,41.2262244 C59.7943234,39.515592 60.4796445,34.0415713 62.7069415,35.7522036 C64.9342384,37.462836 68.0181855,43.7921705 68.0181855,47.2134353 C68.0181855,50.6347 69.9028196,50.9768236 70.2454825,53.2006462 C70.5881406,55.4244687 71.2734617,62.9512454 71.4447955,64.3197494 C71.6161246,65.6882581 72.6441086,82.9656389 73.3294296,85.8737086 C74.0147506,88.7817832 74.3574136,89.4660352 74.5287426,92.7162381 C74.7000717,95.9664363 73.8434216,96.3085646 74.5287426,99.387701 C75.2140637,102.466837 76.2420476,106.743416 76.2420476,108.62511 C76.2420476,110.506809 77.2700268,109.993619 77.2700268,111.533185 C77.2700268,113.072755 76.0707138,114.270197 76.4133767,117.349334 C76.7560396,120.42847 76.9273687,128.981627 77.7840188,130.863326 C78.6406737,132.74502 77.6126897,137.021599 77.9553526,138.219041 C78.2980107,139.416483 77.4413606,140.613925 77.9553526,144.03519 C78.4693398,147.45645 79.3259947,154.81217 79.6686528,158.062368 C80.0113157,161.312566 80.3539787,163.536389 80.1826448,166.273401 C80.0113157,169.010409 81.0392997,170.892103 81.0392997,172.773802 C81.0392997,174.655497 80.6966368,180.471641 82.2386127,180.813769 C83.7805839,181.155898 84.8085678,181.498021 84.9798969,177.221443 C85.1512308,172.944864 84.8085678,165.075959 85.1512308,162.681075 C85.4938889,160.28619 86.5218728,156.180674 86.3505438,153.614727 C86.1792099,151.048777 85.1512308,147.96964 85.4938889,146.430074 C85.8365518,144.890504 86.6932019,140.271797 86.6932019,138.561165 C86.6932019,136.850537 86.5218728,133.25821 86.5218728,131.547578 C86.5218728,129.836946 85.3220753,127.621366 86.3505438,125.902491 C90.291141,119.316559 87.9781842,114.783388 89.1774973,112.901689 C90.3768103,111.019994 90.6338039,111.019994 90.6338039,106.059164 C90.6338039,101.098333 91.8331169,99.387701 91.661783,96.6506882 C91.490454,93.9136803 90.6338039,91.8609195 91.8331169,89.9792254 C93.0324299,88.0975312 91.661783,81.2550065 92.5184379,79.2022457 C93.3750881,77.1494898 93.0324299,75.6099192 93.3750881,73.2150348 C93.717751,70.8201505 93.3750881,71.3333407 93.88908,69.4516465 C94.403072,67.5699523 95.431056,68.2542043 94.7457349,65.0040062 C94.0604091,61.7538032 95.0883931,61.4116796 94.917064,59.5299807 C94.7457349,57.6482865 94.917064,47.0423735 95.2597221,44.9896127 C95.602385,42.9368567 94.5744011,40.199844 95.7737141,38.83134 C96.9730271,37.462836 97.6583482,37.2917694 98.1723401,42.0815381 C98.6863321,46.8713069 99.3716532,52.1742658 100.228308,54.3980883 C101.084958,56.6219109 102.112942,62.6091218 102.798263,65.0040062 C103.483584,67.3988905 105.196889,68.9384563 104.854226,72.7018446 C104.511568,76.4652378 105.710881,77.1494898 105.88221,79.5443741 C106.053539,81.9392585 105.710881,85.531585 107.252852,85.0183948 C108.794828,84.5052046 109.30882,83.3077625 109.480149,79.0311839 C109.651478,74.7546054 110.679462,73.043973 111.022125,71.3333407 C111.364783,69.6227083 110.679462,67.3988905 111.022125,63.9776258 C111.364783,60.556361 111.364783,58.3325385 111.878775,56.4508443 C112.392767,54.5691501 113.934743,49.6083196 113.59208,48.4108774 C113.249417,47.2134353 113.934743,40.884096 113.934743,40.884096 C113.934743,40.884096 115.134056,37.6338978 115.990706,41.568348 C116.847357,45.5028029 115.819377,51.8321422 116.676027,53.8848981 C117.532682,55.9376541 117.87534,58.3325385 118.04667,60.8984894 C118.218003,63.4644356 118.903324,67.9120759 119.931308,66.5435719 C120.959288,65.175068 122.158601,60.0431708 122.158601,57.9904149 C122.158601,55.9376541 121.987272,53.371708 122.672593,51.318952 C123.357914,49.2661912 122.617371,45.967923 123.186585,42.9368567 C124.72856,34.7258233 125.242548,37.462836 129.697142,34.7258233 C134.151731,31.9888105 133.123752,30.6203065 136.89302,32.5020007 C140.662288,34.3836949 142.375593,39.8577204 143.232243,41.568348 C144.088898,43.2789803 144.088898,47.5555589 144.945548,48.9240676 C145.802203,50.2925716 145.802203,55.4244687 146.316195,57.4772247 C146.830182,59.5299807 145.45954,61.7538032 146.487524,63.2933738 C147.515508,64.8329396 148.200829,67.0567621 147.001516,69.6227083 C145.802203,72.1886592 148.372158,79.2022457 149.057479,81.4260683 C149.7428,83.6498909 150.428121,90.4924155 150.770784,92.3741097 C151.113447,94.2558039 150.942113,100.414081 153.16941,99.387701 C155.396707,98.3613206 155.568036,96.1375028 155.568036,93.4004901 C155.568036,90.6634773 154.882715,89.2949734 156.253357,86.3868988 C157.623999,83.4788243 158.137991,76.4652378 157.623999,74.7546054 C157.110012,73.043973 158.480654,73.2150348 158.651983,71.675469 C158.823312,70.1358985 159.165975,66.7146337 160.022625,64.6618778 C160.87928,62.6091218 158.651983,60.8984894 160.193959,59.7010472 C161.73593,58.5036051 163.620564,53.0295844 163.449235,51.318952 C163.277906,49.6083196 164.134556,46.5291833 164.477219,44.4764225 C164.819877,42.4236665 166.533182,33.1862527 166.533182,30.7913683 C166.533182,28.396484 168.417816,22.4092731 171.501768,27.5411702 C174.585715,32.6730673 173.557731,41.0551626 174.071723,42.0815381 C174.585715,43.1079185 174.928374,51.6610756 175.271036,54.3980883 C175.613695,57.1350963 178.354984,61.5827414 177.155671,63.9776258 C175.956358,66.3725101 175.613695,72.359721 176.813012,73.5571632 C178.012325,74.7546054 175.271036,76.6362996 176.470349,78.6890555 C177.669663,80.7418163 178.012325,86.0447752 178.183654,87.584341 C178.354984,89.1239116 179.896959,90.6634773 179.554297,92.5451763 C179.211638,94.4268705 178.868976,104.348532 180.239618,108.282986 C181.610265,112.217437 180.582281,114.783388 180.924939,117.007205 C181.267602,119.231028 181.267602,123.507606 182.638244,124.533987 C184.008891,125.560367 186.407517,124.362925 185.893525,122.652293 C185.379533,120.94166 185.379533,120.086346 186.407517,117.691462 C187.435496,115.296578 187.778159,113.928069 187.778159,111.019994 C187.778159,108.111925 188.46348,108.282986 188.46348,106.572354 C188.46348,104.861722 186.921504,105.20385 188.292151,101.953647 C189.662793,98.703449 190.348114,95.6243127 190.348114,92.5451763 C190.348114,89.4660352 190.519443,86.900089 190.862106,84.3341428 C191.204769,81.7681967 192.74674,81.9392585 192.575411,77.8337418 C192.404082,73.728225 191.033435,74.2414152 192.74674,72.0175927 C194.460045,69.7937749 194.631374,72.0175927 194.117382,66.5435719 C193.603395,61.0695512 191.718756,59.872109 193.260732,57.9904149 C194.802708,56.1087207 196.002021,47.2134353 195.659358,44.6474891 C195.316695,42.0815381 194.460045,41.2262244 194.974037,39.3445302 C195.488029,37.462836 195.830687,34.7258233 195.830687,33.3573193 C195.830687,31.9888105 198.229313,23.6067153 198.229313,22.5803397 C198.229313,21.5539593 199.771289,16.0799386 200.799273,19.3301367 C201.827252,22.5803397 200.799273,25.8305378 201.141931,26.8569182 C201.484594,27.8832986 201.31326,37.6338978 201.998586,39.3445302 C202.683907,41.0551626 203.540557,46.1870549 203.540557,48.068749 C203.540557,49.9504432 203.026565,50.1215098 203.369228,52.8585178 C203.711886,55.5955305 204.73987,54.9112785 205.082533,55.9376541 C205.425191,56.9640345 204.73987,61.7538032 206.624504,61.7538032 C208.509138,61.7538032 207.652488,57.3061629 208.16648,56.6219109 C208.680472,55.9376541 209.194464,54.3980883 209.879785,50.9768236 C210.565106,47.5555589 211.079098,48.4108774 211.764419,45.5028029 C212.44974,42.5947283 210.736435,43.1079185 211.59309,40.7130342 C212.44974,38.3181498 212.278411,33.1862527 212.963732,31.6466869 C213.649053,30.1071163 212.792403,29.4228644 213.991716,27.02798 C215.191029,24.6330956 214.848366,23.7777818 216.561671,19.8433269 C218.274976,15.9088768 216.561671,7.18465313 217.418321,4.78976877 C218.274976,2.39488436 217.932313,0 217.932313,0 L0,0.1710618 Z" id="path1381"></path>
                </g>
                <g id="Icicles_clip_art" transform="translate(700.500000, 394.000000) scale(-1, 1) translate(-700.500000, -394.000000) translate(0.000000, 339.000000)" fill="#1E66AC">
                    <path d="M360,10.1710618 C360,10.1710618 360,18.2110335 360.513992,20.4348513 C361.027984,22.6586738 362.569955,26.9352524 363.083947,29.1590749 C363.597939,31.3828975 362.741289,35.659476 364.111931,39.4228644 C365.482573,43.1862527 366.510557,43.8705095 366.339228,47.6338978 C366.167894,51.3972862 366.167894,50.3709058 366.681886,52.0815381 C367.195878,53.7921705 367.538541,60.6347 367.538541,60.6347 C367.795535,62.7729917 370.108496,62.4308633 370.279825,60.8057618 C370.63854,57.4032969 369.937162,54.4764225 370.622483,52.9368567 C371.307804,51.3972862 372.164459,51.2262244 372.84978,48.6602782 C373.535101,46.0943272 374.220422,44.3836949 374.56309,42.6730673 C374.905748,40.9624349 374.734419,39.5939262 375.591074,38.9096742 C376.447724,38.2254222 376.105061,35.4884142 376.276395,34.290972 C376.447724,33.0935299 376.619053,30.6986455 378.161029,30.8697073 C379.703,31.0407691 380.730984,36.6858564 380.730984,40.4492447 C380.730984,44.2126331 381.930297,45.0679517 382.101626,46.9496458 C382.27296,48.83134 382.786952,53.4500469 383.300939,54.9896127 C383.814931,56.5291833 385.014244,57.5555589 384.671586,59.2661912 C384.328923,60.9768236 384.414588,64.9968046 385.356907,65.2534021 C386.925014,65.6804004 387.584204,64.0559599 388.440854,64.0559599 C389.297504,64.0559599 389.468838,67.3061629 389.468838,68.3325385 C389.468838,69.3589189 389.98283,73.9776258 390.154159,75.3461298 C390.325488,76.7146337 390.325488,81.6754643 390.668151,86.1231094 C390.800651,87.8286167 390.496817,91.7681967 391.010809,94.3341428 C391.524801,96.900089 391.353472,98.9528498 391.696131,100.492416 C392.038793,102.031986 391.524801,105.966436 393.238106,105.966436 C394.951411,105.966436 394.780082,104.42687 395.465403,100.663477 C396.150724,96.900089 395.122741,96.0447752 395.808062,94.5052046 C396.493383,92.9656389 397.692696,90.7418163 397.350037,88.6890555 C397.007375,86.6362996 396.664716,84.2414152 397.350037,83.2150348 C398.035359,82.1886592 398.378021,79.6227083 398.378021,77.7410141 C398.378021,75.8593199 397.350037,75.6882581 398.549351,73.9776258 C399.748664,72.2669934 399.063342,66.4508443 399.748664,64.3980883 C400.433985,62.3453276 401.633298,61.1478854 401.461969,56.5291833 C401.290635,51.9104763 401.119306,47.6338978 401.804627,46.0943272 C402.489948,44.5547615 402.318619,42.1598771 403.689261,42.6730673 C405.059908,43.1862527 404.888574,43.5283811 405.231237,46.4364556 C405.5739,49.3445302 405.74523,54.6474891 405.916559,56.0159931 C406.087888,57.3844971 406.430551,58.753001 407.115872,59.9504432 C407.801193,61.1478854 409.17184,65.4244687 409.17184,66.7929727 C409.17184,68.1614767 410.371153,71.4116796 410.199819,72.4380552 C410.02849,73.4644356 408.829177,75.6882581 409.685827,77.3988905 C410.542482,79.1095181 410.371153,80.6490887 410.542482,82.0175927 C410.713811,83.3861014 410.88514,86.1231094 411.227803,87.66268 C411.570466,89.2022457 413.626429,91.7681967 414.140421,88.6890555 C414.654413,85.6099192 415.511063,83.2150348 415.682392,80.4780269 C415.853726,77.7410141 415.168405,77.2278239 415.511063,75.0040062 C415.853726,72.7801836 416.367718,71.240613 416.196384,69.5299807 C416.025055,67.8193531 416.539047,63.7138363 416.539047,61.1478854 C416.539047,58.5819392 417.395697,56.5291833 417.73836,55.3317411 C418.081018,54.1342989 418.081018,52.9368567 418.937673,51.2262244 C419.794323,49.515592 420.479644,44.0415713 422.706941,45.7522036 C424.934238,47.462836 432.448572,47.2917694 432.448572,50.7130342 C432.448572,54.1342989 433.890325,55.1153445 434.232988,57.3391671 C434.575646,59.5629897 434.977385,68.5680307 437.614257,67.9904149 C438.246472,67.8519259 439.852937,63.3647283 440.397028,63.2006462 C441.860857,62.7591976 441.860857,58.4108774 443.151458,54.4764225 C444.107077,51.563177 447.026366,49.3445302 445.888112,49.9255723 C447.409735,49.1960841 449.22249,48.83134 451.32638,48.83134 C454.482214,48.83134 452.822238,47.6338978 455.773714,48.83134 C458.72519,50.0287822 457.658348,47.2917694 458.17234,52.0815381 C458.686332,56.8713069 459.371653,62.1742658 460.228308,64.3980883 C461.084958,66.6219109 462.112942,72.6091218 462.798263,75.0040062 C463.483584,77.3988905 465.196889,78.9384563 464.854226,82.7018446 C464.511568,86.4652378 465.710881,87.1494898 465.88221,89.5443741 C466.053539,91.9392585 465.710881,95.531585 467.252852,95.0183948 C468.794828,94.5052046 469.30882,93.3077625 469.480149,89.0311839 C469.651478,84.7546054 470.679462,83.043973 471.022125,81.3333407 C471.364783,79.6227083 470.679462,77.3988905 471.022125,73.9776258 C471.364783,70.556361 471.364783,68.3325385 471.878775,66.4508443 C472.392767,64.5691501 473.934743,59.6083196 473.59208,58.4108774 C473.249417,57.2134353 473.934743,50.884096 473.934743,50.884096 C473.934743,50.884096 475.134056,47.6338978 475.990706,51.568348 C476.847357,55.5028029 475.819377,61.8321422 476.676027,63.8848981 C477.532682,65.9376541 477.87534,68.3325385 478.04667,70.8984894 C478.218003,73.4644356 478.903324,77.9120759 479.931308,76.5435719 C480.959288,75.175068 482.158601,70.0431708 482.158601,67.9904149 C482.158601,65.9376541 481.987272,63.371708 482.672593,61.318952 C483.357914,59.2661912 482.617371,55.967923 483.186585,52.9368567 C484.72856,44.7258233 485.242548,47.462836 489.697142,44.7258233 C494.151731,41.9888105 493.123752,40.6203065 496.89302,42.5020007 C500.662288,44.3836949 502.375593,49.8577204 503.232243,51.568348 C504.088898,53.2789803 504.088898,57.5555589 504.945548,58.9240676 C505.802203,60.2925716 505.802203,65.4244687 506.316195,67.4772247 C506.830182,69.5299807 505.45954,71.7538032 506.487524,73.2933738 C507.515508,74.8329396 508.200829,77.0567621 507.001516,79.6227083 C505.802203,82.1886592 508.372158,89.2022457 509.057479,91.4260683 C509.7428,93.6498909 510.428121,100.492416 510.770784,102.37411 C511.113447,104.255804 510.942113,110.414081 513.16941,109.387701 C515.396707,108.361321 515.568036,106.137503 515.568036,103.40049 C515.568036,100.663477 514.882715,99.2949734 516.253357,96.3868988 C517.623999,93.4788243 518.137991,86.4652378 517.623999,84.7546054 C517.110012,83.043973 518.480654,83.2150348 518.651983,81.675469 C518.823312,80.1358985 519.165975,76.7146337 520.022625,74.6618778 C520.87928,72.6091218 518.651983,70.8984894 520.193959,69.7010472 C521.73593,68.5036051 523.620564,63.0295844 523.449235,61.318952 C523.277906,59.6083196 524.134556,56.5291833 524.477219,54.4764225 C524.819877,52.4236665 526.533182,43.1862527 526.533182,40.7913683 C526.533182,38.396484 528.417816,32.4092731 531.501768,37.5411702 C534.585715,42.6730673 533.557731,51.0551626 534.071723,52.0815381 C534.585715,53.1079185 536.781301,48.4892116 537.123964,51.2262244 C537.466622,53.9632323 544.554847,41.3045585 546.096823,39.4228644 C547.638799,37.5411702 556.002021,57.2134353 555.659358,54.6474891 C555.316695,52.0815381 554.460045,51.2262244 554.974037,49.3445302 C555.488029,47.462836 555.830687,44.7258233 555.830687,43.3573193 C555.830687,41.9888105 558.229313,33.6067153 558.229313,32.5803397 C558.229313,31.5539593 559.771289,26.0799386 560.799273,29.3301367 C561.827252,32.5803397 560.799273,35.8305378 561.141931,36.8569182 C561.484594,37.8832986 561.31326,47.6338978 561.998586,49.3445302 C562.683907,51.0551626 563.540557,56.1870549 563.540557,58.068749 C563.540557,59.9504432 563.026565,60.1215098 563.369228,62.8585178 C563.711886,65.5955305 564.73987,64.9112785 565.082533,65.9376541 C565.425191,66.9640345 564.73987,71.7538032 566.624504,71.7538032 C568.509138,71.7538032 567.652488,67.3061629 568.16648,66.6219109 C568.680472,65.9376541 569.194464,64.3980883 569.879785,60.9768236 C570.565106,57.5555589 571.079098,58.4108774 571.764419,55.5028029 C572.44974,52.5947283 570.736435,53.1079185 571.59309,50.7130342 C572.44974,48.3181498 572.278411,43.1862527 572.963732,41.6466869 C573.649053,40.1071163 572.792403,39.4228644 573.991716,37.02798 C575.191029,34.6330956 574.848366,33.7777818 576.561671,29.8433269 C578.274976,25.9088768 576.561671,17.1846531 577.418321,14.7897688 C578.274976,12.3948844 577.932313,10 577.932313,10 L360,10.1710618 Z" id="path1381"></path>
                    <path d="M560,0.1710618 C560,0.1710618 560,8.21103351 560.513992,10.4348513 C561.027984,12.6586738 562.569955,16.9352524 563.083947,19.1590749 C563.597939,21.3828975 562.741289,25.659476 564.111931,29.4228644 C565.482573,33.1862527 566.510557,33.8705095 566.339228,37.6338978 C566.167894,41.3972862 566.167894,40.3709058 566.681886,42.0815381 C567.195878,43.7921705 567.538541,50.6347 567.538541,50.6347 C567.795535,52.7729917 570.108496,52.4308633 570.279825,50.8057618 C570.63854,47.4032969 569.937162,44.4764225 570.622483,42.9368567 C571.307804,41.3972862 572.164459,41.2262244 572.84978,38.6602782 C573.535101,36.0943272 574.220422,34.3836949 574.56309,32.6730673 C574.905748,30.9624349 574.734419,29.5939262 575.591074,28.9096742 C576.447724,28.2254222 576.105061,25.4884142 576.276395,24.290972 C576.447724,23.0935299 576.619053,20.6986455 578.161029,20.8697073 C579.703,21.0407691 580.730984,26.6858564 580.730984,30.4492447 C580.730984,34.2126331 581.930297,35.0679517 582.101626,36.9496458 C582.27296,38.83134 582.786952,43.4500469 583.300939,44.9896127 C583.814931,46.5291833 585.014244,47.5555589 584.671586,49.2661912 C584.328923,50.9768236 584.414588,54.9968046 585.356907,55.2534021 C586.925014,55.6804004 587.584204,54.0559599 588.440854,54.0559599 C589.297504,54.0559599 589.468838,57.3061629 589.468838,58.3325385 C589.468838,59.3589189 589.98283,63.9776258 590.154159,65.3461298 C590.325488,66.7146337 590.325488,71.6754643 590.668151,76.1231094 C590.800651,77.8286167 590.496817,81.7681967 591.010809,84.3341428 C591.524801,86.900089 591.353472,88.9528498 591.696131,90.4924155 C592.038793,92.0319861 591.524801,95.9664363 593.238106,95.9664363 C594.951411,95.9664363 594.780082,94.4268705 595.465403,90.6634773 C596.150724,86.900089 595.122741,86.0447752 595.808062,84.5052046 C596.493383,82.9656389 597.692696,80.7418163 597.350037,78.6890555 C597.007375,76.6362996 596.664716,74.2414152 597.350037,73.2150348 C598.035359,72.1886592 598.378021,69.6227083 598.378021,67.7410141 C598.378021,65.8593199 597.350037,65.6882581 598.549351,63.9776258 C599.748664,62.2669934 599.063342,56.4508443 599.748664,54.3980883 C600.433985,52.3453276 601.633298,51.1478854 601.461969,46.5291833 C601.290635,41.9104763 601.119306,37.6338978 601.804627,36.0943272 C602.489948,34.5547615 602.318619,32.1598771 603.689261,32.6730673 C605.059908,33.1862527 604.888574,33.5283811 605.231237,36.4364556 C605.5739,39.3445302 605.74523,44.6474891 605.916559,46.0159931 C606.087888,47.3844971 606.430551,48.753001 607.115872,49.9504432 C607.801193,51.1478854 609.17184,55.4244687 609.17184,56.7929727 C609.17184,58.1614767 610.371153,61.4116796 610.199819,62.4380552 C610.02849,63.4644356 608.829177,65.6882581 609.685827,67.3988905 C610.542482,69.1095181 610.371153,70.6490887 610.542482,72.0175927 C610.713811,73.3861014 610.88514,76.1231094 611.227803,77.66268 C611.570466,79.2022457 613.626429,81.7681967 614.140421,78.6890555 C614.654413,75.6099192 615.511063,73.2150348 615.682392,70.4780269 C615.853726,67.7410141 615.168405,67.2278239 615.511063,65.0040062 C615.853726,62.7801836 616.367718,61.240613 616.196384,59.5299807 C616.025055,57.8193531 616.539047,53.7138363 616.539047,51.1478854 C616.539047,48.5819392 617.395697,46.5291833 617.73836,45.3317411 C618.081018,44.1342989 618.081018,42.9368567 618.937673,41.2262244 C619.794323,39.515592 620.479644,34.0415713 622.706941,35.7522036 C624.934238,37.462836 632.448572,37.2917694 632.448572,40.7130342 C632.448572,44.1342989 633.890325,45.1153445 634.232988,47.3391671 C634.575646,49.5629897 634.977385,58.5680307 637.614257,57.9904149 C638.246472,57.8519259 639.852937,53.3647283 640.397028,53.2006462 C641.860857,52.7591976 641.860857,48.4108774 643.151458,44.4764225 C644.107077,41.563177 647.026366,39.3445302 645.888112,39.9255723 C647.409735,39.1960841 649.22249,38.83134 651.32638,38.83134 C654.482214,38.83134 652.822238,37.6338978 655.773714,38.83134 C658.72519,40.0287822 657.658348,37.2917694 658.17234,42.0815381 C658.686332,46.8713069 659.371653,52.1742658 660.228308,54.3980883 C661.084958,56.6219109 662.112942,62.6091218 662.798263,65.0040062 C663.483584,67.3988905 665.196889,68.9384563 664.854226,72.7018446 C664.511568,76.4652378 665.710881,77.1494898 665.88221,79.5443741 C666.053539,81.9392585 665.710881,85.531585 667.252852,85.0183948 C668.794828,84.5052046 669.30882,83.3077625 669.480149,79.0311839 C669.651478,74.7546054 670.679462,73.043973 671.022125,71.3333407 C671.364783,69.6227083 670.679462,67.3988905 671.022125,63.9776258 C671.364783,60.556361 671.364783,58.3325385 671.878775,56.4508443 C672.392767,54.5691501 673.934743,49.6083196 673.59208,48.4108774 C673.249417,47.2134353 673.934743,40.884096 673.934743,40.884096 C673.934743,40.884096 675.134056,37.6338978 675.990706,41.568348 C676.847357,45.5028029 675.819377,51.8321422 676.676027,53.8848981 C677.532682,55.9376541 677.87534,58.3325385 678.04667,60.8984894 C678.218003,63.4644356 678.903324,67.9120759 679.931308,66.5435719 C680.959288,65.175068 682.158601,60.0431708 682.158601,57.9904149 C682.158601,55.9376541 681.987272,53.371708 682.672593,51.318952 C683.357914,49.2661912 682.617371,45.967923 683.186585,42.9368567 C684.72856,34.7258233 685.242548,37.462836 689.697142,34.7258233 C694.151731,31.9888105 693.123752,30.6203065 696.89302,32.5020007 C700.662288,34.3836949 702.375593,39.8577204 703.232243,41.568348 C704.088898,43.2789803 704.088898,47.5555589 704.945548,48.9240676 C705.802203,50.2925716 705.802203,55.4244687 706.316195,57.4772247 C706.830182,59.5299807 705.45954,61.7538032 706.487524,63.2933738 C707.515508,64.8329396 708.200829,67.0567621 707.001516,69.6227083 C705.802203,72.1886592 708.372158,79.2022457 709.057479,81.4260683 C709.7428,83.6498909 710.428121,90.4924155 710.770784,92.3741097 C711.113447,94.2558039 710.942113,100.414081 713.16941,99.387701 C715.396707,98.3613206 715.568036,96.1375028 715.568036,93.4004901 C715.568036,90.6634773 714.882715,89.2949734 716.253357,86.3868988 C717.623999,83.4788243 718.137991,76.4652378 717.623999,74.7546054 C717.110012,73.043973 718.480654,73.2150348 718.651983,71.675469 C718.823312,70.1358985 719.165975,66.7146337 720.022625,64.6618778 C720.87928,62.6091218 718.651983,60.8984894 720.193959,59.7010472 C721.73593,58.5036051 723.620564,53.0295844 723.449235,51.318952 C723.277906,49.6083196 724.134556,46.5291833 724.477219,44.4764225 C724.819877,42.4236665 726.533182,33.1862527 726.533182,30.7913683 C726.533182,28.396484 728.417816,22.4092731 731.501768,27.5411702 C734.585715,32.6730673 733.557731,41.0551626 734.071723,42.0815381 C734.585715,43.1079185 736.781301,38.4892116 737.123964,41.2262244 C737.466622,43.9632323 744.554847,31.3045585 746.096823,29.4228644 C747.638799,27.5411702 756.002021,47.2134353 755.659358,44.6474891 C755.316695,42.0815381 754.460045,41.2262244 754.974037,39.3445302 C755.488029,37.462836 755.830687,34.7258233 755.830687,33.3573193 C755.830687,31.9888105 758.229313,23.6067153 758.229313,22.5803397 C758.229313,21.5539593 759.771289,16.0799386 760.799273,19.3301367 C761.827252,22.5803397 760.799273,25.8305378 761.141931,26.8569182 C761.484594,27.8832986 761.31326,37.6338978 761.998586,39.3445302 C762.683907,41.0551626 763.540557,46.1870549 763.540557,48.068749 C763.540557,49.9504432 763.026565,50.1215098 763.369228,52.8585178 C763.711886,55.5955305 764.73987,54.9112785 765.082533,55.9376541 C765.425191,56.9640345 764.73987,61.7538032 766.624504,61.7538032 C768.509138,61.7538032 767.652488,57.3061629 768.16648,56.6219109 C768.680472,55.9376541 769.194464,54.3980883 769.879785,50.9768236 C770.565106,47.5555589 771.079098,48.4108774 771.764419,45.5028029 C772.44974,42.5947283 770.736435,43.1079185 771.59309,40.7130342 C772.44974,38.3181498 772.278411,33.1862527 772.963732,31.6466869 C773.649053,30.1071163 772.792403,29.4228644 773.991716,27.02798 C775.191029,24.6330956 774.848366,23.7777818 776.561671,19.8433269 C778.274976,15.9088768 776.561671,7.18465313 777.418321,4.78976877 C778.274976,2.39488436 777.932313,0 777.932313,0 L560,0.1710618 Z" id="path1381"></path>
                    <path d="M716,0.1710618 C716,0.1710618 716,8.21103351 716.513992,10.4348513 C717.027984,12.6586738 718.569955,16.9352524 719.083947,19.1590749 C719.597939,21.3828975 718.741289,25.659476 720.111931,29.4228644 C721.482573,33.1862527 722.510557,33.8705095 722.339228,37.6338978 C722.167894,41.3972862 722.167894,40.3709058 722.681886,42.0815381 C723.195878,43.7921705 723.538541,50.6347 723.538541,50.6347 C723.795535,52.7729917 726.108496,52.4308633 726.279825,50.8057618 C726.63854,47.4032969 725.937162,44.4764225 726.622483,42.9368567 C727.307804,41.3972862 728.164459,41.2262244 728.84978,38.6602782 C729.535101,36.0943272 730.220422,34.3836949 730.56309,32.6730673 C730.905748,30.9624349 730.734419,29.5939262 731.591074,28.9096742 C732.447724,28.2254222 732.105061,25.4884142 732.276395,24.290972 C732.447724,23.0935299 732.619053,20.6986455 734.161029,20.8697073 C735.703,21.0407691 736.730984,26.6858564 736.730984,30.4492447 C736.730984,34.2126331 737.930297,35.0679517 738.101626,36.9496458 C738.27296,38.83134 738.786952,43.4500469 739.300939,44.9896127 C739.814931,46.5291833 741.014244,47.5555589 740.671586,49.2661912 C740.328923,50.9768236 740.414588,54.9968046 741.356907,55.2534021 C742.925014,55.6804004 743.584204,54.0559599 744.440854,54.0559599 C745.297504,54.0559599 745.468838,57.3061629 745.468838,58.3325385 C745.468838,59.3589189 745.98283,63.9776258 746.154159,65.3461298 C746.325488,66.7146337 746.325488,71.6754643 746.668151,76.1231094 C746.800651,77.8286167 746.496817,81.7681967 747.010809,84.3341428 C747.524801,86.900089 747.353472,88.9528498 747.696131,90.4924155 C748.038793,92.0319861 747.524801,95.9664363 749.238106,95.9664363 C750.951411,95.9664363 750.780082,94.4268705 751.465403,90.6634773 C752.150724,86.900089 751.122741,86.0447752 751.808062,84.5052046 C752.493383,82.9656389 753.692696,80.7418163 753.350037,78.6890555 C753.007375,76.6362996 752.664716,74.2414152 753.350037,73.2150348 C754.035359,72.1886592 754.378021,69.6227083 754.378021,67.7410141 C754.378021,65.8593199 753.350037,65.6882581 754.549351,63.9776258 C755.748664,62.2669934 755.063342,56.4508443 755.748664,54.3980883 C756.433985,52.3453276 757.633298,51.1478854 757.461969,46.5291833 C757.290635,41.9104763 757.119306,37.6338978 757.804627,36.0943272 C758.489948,34.5547615 758.318619,32.1598771 759.689261,32.6730673 C761.059908,33.1862527 760.888574,33.5283811 761.231237,36.4364556 C761.5739,39.3445302 761.74523,44.6474891 761.916559,46.0159931 C762.087888,47.3844971 762.430551,48.753001 763.115872,49.9504432 C763.801193,51.1478854 765.17184,55.4244687 765.17184,56.7929727 C765.17184,58.1614767 766.371153,61.4116796 766.199819,62.4380552 C766.02849,63.4644356 764.829177,65.6882581 765.685827,67.3988905 C766.542482,69.1095181 766.371153,70.6490887 766.542482,72.0175927 C766.713811,73.3861014 766.88514,76.1231094 767.227803,77.66268 C767.570466,79.2022457 769.626429,81.7681967 770.140421,78.6890555 C770.654413,75.6099192 771.511063,73.2150348 771.682392,70.4780269 C771.853726,67.7410141 771.168405,67.2278239 771.511063,65.0040062 C771.853726,62.7801836 772.367718,61.240613 772.196384,59.5299807 C772.025055,57.8193531 772.539047,53.7138363 772.539047,51.1478854 C772.539047,48.5819392 773.395697,46.5291833 773.73836,45.3317411 C774.081018,44.1342989 774.081018,42.9368567 774.937673,41.2262244 C775.794323,39.515592 776.479644,34.0415713 778.706941,35.7522036 C780.934238,37.462836 788.448572,37.2917694 788.448572,40.7130342 C788.448572,44.1342989 789.890325,45.1153445 790.232988,47.3391671 C790.575646,49.5629897 790.977385,58.5680307 793.614257,57.9904149 C794.246472,57.8519259 795.852937,53.3647283 796.397028,53.2006462 C797.860857,52.7591976 797.860857,48.4108774 799.151458,44.4764225 C800.107077,41.563177 803.026366,39.3445302 801.888112,39.9255723 C803.409735,39.1960841 805.22249,38.83134 807.32638,38.83134 C810.482214,38.83134 808.822238,37.6338978 811.773714,38.83134 C814.72519,40.0287822 813.658348,37.2917694 814.17234,42.0815381 C814.686332,46.8713069 815.371653,52.1742658 816.228308,54.3980883 C817.084958,56.6219109 818.112942,62.6091218 818.798263,65.0040062 C819.483584,67.3988905 821.196889,68.9384563 820.854226,72.7018446 C820.511568,76.4652378 821.710881,77.1494898 821.88221,79.5443741 C822.053539,81.9392585 821.710881,85.531585 823.252852,85.0183948 C824.794828,84.5052046 825.30882,83.3077625 825.480149,79.0311839 C825.651478,74.7546054 826.679462,73.043973 827.022125,71.3333407 C827.364783,69.6227083 826.679462,67.3988905 827.022125,63.9776258 C827.364783,60.556361 827.364783,58.3325385 827.878775,56.4508443 C828.392767,54.5691501 829.934743,49.6083196 829.59208,48.4108774 C829.249417,47.2134353 829.934743,40.884096 829.934743,40.884096 C829.934743,40.884096 831.134056,37.6338978 831.990706,41.568348 C832.847357,45.5028029 831.819377,51.8321422 832.676027,53.8848981 C833.532682,55.9376541 833.87534,58.3325385 834.04667,60.8984894 C834.218003,63.4644356 834.903324,67.9120759 835.931308,66.5435719 C836.959288,65.175068 838.158601,60.0431708 838.158601,57.9904149 C838.158601,55.9376541 837.987272,53.371708 838.672593,51.318952 C839.357914,49.2661912 838.617371,45.967923 839.186585,42.9368567 C840.72856,34.7258233 841.242548,37.462836 845.697142,34.7258233 C850.151731,31.9888105 849.123752,30.6203065 852.89302,32.5020007 C856.662288,34.3836949 858.375593,39.8577204 859.232243,41.568348 C860.088898,43.2789803 860.088898,47.5555589 860.945548,48.9240676 C861.802203,50.2925716 861.802203,55.4244687 862.316195,57.4772247 C862.830182,59.5299807 861.45954,61.7538032 862.487524,63.2933738 C863.515508,64.8329396 864.200829,67.0567621 863.001516,69.6227083 C861.802203,72.1886592 864.372158,79.2022457 865.057479,81.4260683 C865.7428,83.6498909 866.428121,90.4924155 866.770784,92.3741097 C867.113447,94.2558039 866.942113,100.414081 869.16941,99.387701 C871.396707,98.3613206 871.568036,96.1375028 871.568036,93.4004901 C871.568036,90.6634773 870.882715,89.2949734 872.253357,86.3868988 C873.623999,83.4788243 874.137991,76.4652378 873.623999,74.7546054 C873.110012,73.043973 874.480654,73.2150348 874.651983,71.675469 C874.823312,70.1358985 875.165975,66.7146337 876.022625,64.6618778 C876.87928,62.6091218 874.651983,60.8984894 876.193959,59.7010472 C877.73593,58.5036051 879.620564,53.0295844 879.449235,51.318952 C879.277906,49.6083196 880.134556,46.5291833 880.477219,44.4764225 C880.819877,42.4236665 882.533182,33.1862527 882.533182,30.7913683 C882.533182,28.396484 884.417816,22.4092731 887.501768,27.5411702 C890.585715,32.6730673 889.557731,41.0551626 890.071723,42.0815381 C890.585715,43.1079185 892.781301,38.4892116 893.123964,41.2262244 C893.466622,43.9632323 900.554847,31.3045585 902.096823,29.4228644 C903.638799,27.5411702 912.002021,47.2134353 911.659358,44.6474891 C911.316695,42.0815381 910.460045,41.2262244 910.974037,39.3445302 C911.488029,37.462836 911.830687,34.7258233 911.830687,33.3573193 C911.830687,31.9888105 914.229313,23.6067153 914.229313,22.5803397 C914.229313,21.5539593 915.771289,16.0799386 916.799273,19.3301367 C917.827252,22.5803397 916.799273,25.8305378 917.141931,26.8569182 C917.484594,27.8832986 917.31326,37.6338978 917.998586,39.3445302 C918.683907,41.0551626 919.540557,46.1870549 919.540557,48.068749 C919.540557,49.9504432 919.026565,50.1215098 919.369228,52.8585178 C919.711886,55.5955305 920.73987,54.9112785 921.082533,55.9376541 C921.425191,56.9640345 920.73987,61.7538032 922.624504,61.7538032 C924.509138,61.7538032 923.652488,57.3061629 924.16648,56.6219109 C924.680472,55.9376541 925.194464,54.3980883 925.879785,50.9768236 C926.565106,47.5555589 927.079098,48.4108774 927.764419,45.5028029 C928.44974,42.5947283 926.736435,43.1079185 927.59309,40.7130342 C928.44974,38.3181498 928.278411,33.1862527 928.963732,31.6466869 C929.649053,30.1071163 928.792403,29.4228644 929.991716,27.02798 C931.191029,24.6330956 930.848366,23.7777818 932.561671,19.8433269 C934.274976,15.9088768 932.561671,7.18465313 933.418321,4.78976877 C934.274976,2.39488436 933.932313,0 933.932313,0 L716,0.1710618 Z" id="path1381"></path>
                    <path d="M2.111931,0.650469799 C5.19587804,0.479407999 0.569955057,8.34268414 1.08394704,10.5665019 C1.59793902,12.7903245 0.569955105,16.9352524 1.08394704,19.1590749 C1.59793902,21.3828975 0.741288916,25.659476 2.111931,29.4228644 C3.48257308,33.1862527 4.51055704,33.8705095 4.33922798,37.6338978 C4.16789412,41.3972862 4.16789412,40.3709058 4.6818861,42.0815381 C5.19587808,43.7921705 5.538541,50.6347 5.538541,50.6347 C5.7955346,52.7729917 8.10849611,52.4308633 8.27982517,50.8057618 C8.6385397,47.4032969 7.93716225,44.4764225 8.62248329,42.9368567 C9.30780433,41.3972862 10.1644592,41.2262244 10.8497803,38.6602782 C11.5351013,36.0943272 12.2204224,34.3836949 12.5630901,32.6730673 C12.9057482,30.9624349 12.7344191,29.5939262 13.591074,28.9096742 C14.4477241,28.2254222 14.1050612,25.4884142 14.2763951,24.290972 C14.4477241,23.0935299 14.6190532,20.6986455 16.1610291,20.8697073 C17.7030003,21.0407691 18.7309842,26.6858564 18.7309842,30.4492447 C18.7309842,34.2126331 19.9302973,35.0679517 20.1016263,36.9496458 C20.2729602,38.83134 20.7869522,43.4500469 21.3009394,44.9896127 C21.8149313,46.5291833 23.0142444,47.5555589 22.6715862,49.2661912 C22.3289233,50.9768236 22.4145878,54.9968046 23.3569073,55.2534021 C24.9250138,55.6804004 25.5842043,54.0559599 26.4408544,54.0559599 C27.2975045,54.0559599 27.4688383,57.3061629 27.4688383,58.3325385 C27.4688383,59.3589189 27.9828303,63.9776258 28.1541594,65.3461298 C28.3254884,66.7146337 28.3254884,71.6754643 28.6681513,76.1231094 C28.8006514,77.8286167 28.4968175,81.7681967 29.0108095,84.3341428 C29.5248014,86.900089 29.3534724,88.9528498 29.6961305,90.4924155 C30.0387934,92.0319861 29.5248014,95.9664363 31.2381064,95.9664363 C32.9514115,95.9664363 32.7800824,94.4268705 33.4654034,90.6634773 C34.1507245,86.900089 33.1227405,86.0447752 33.8080616,84.5052046 C34.4933826,82.9656389 35.6926956,80.7418163 35.3500375,78.6890555 C35.0073746,76.6362996 34.6647165,74.2414152 35.3500375,73.2150348 C36.0353585,72.1886592 36.3780215,69.6227083 36.3780215,67.7410141 C36.3780215,65.8593199 35.3500375,65.6882581 36.5493505,63.9776258 C37.7486635,62.2669934 37.0633425,56.4508443 37.7486635,54.3980883 C38.4339846,52.3453276 39.6332976,51.1478854 39.4619685,46.5291833 C39.2906347,41.9104763 39.1193056,37.6338978 39.8046267,36.0943272 C40.4899477,34.5547615 40.3186186,32.1598771 41.6892607,32.6730673 C43.0599076,33.1862527 42.8885737,33.5283811 43.2312367,36.4364556 C43.5738996,39.3445302 43.7452301,44.6474891 43.9165591,46.0159931 C44.0878882,47.3844971 44.4305511,48.753001 45.1158722,49.9504432 C45.8011932,51.1478854 47.1718401,55.4244687 47.1718401,56.7929727 C47.1718401,58.1614767 48.3711531,61.4116796 48.1998193,62.4380552 C48.0284902,63.4644356 46.8291772,65.6882581 47.6858273,67.3988905 C48.5424822,69.1095181 48.3711531,70.6490887 48.5424822,72.0175927 C48.7138112,73.3861014 48.8851403,76.1231094 49.2278032,77.66268 C49.5704661,79.2022457 51.6264293,81.7681967 52.1404212,78.6890555 C52.6544132,75.6099192 53.5110633,73.2150348 53.6823924,70.4780269 C53.8537262,67.7410141 53.1684052,67.2278239 53.5110633,65.0040062 C53.8537262,62.7801836 54.3677182,61.240613 54.1963844,59.5299807 C54.0250553,57.8193531 54.5390473,53.7138363 54.5390473,51.1478854 C54.5390473,48.5819392 55.3956974,46.5291833 55.7383603,45.3317411 C56.0810184,44.1342989 56.0810184,42.9368567 56.9376733,41.2262244 C57.7943234,39.515592 58.4796445,34.0415713 60.7069415,35.7522036 C62.9342384,37.462836 70.448572,37.2917694 70.448572,40.7130342 C70.448572,44.1342989 71.8903246,45.1153445 72.2329875,47.3391671 C72.5756457,49.5629897 72.9773845,58.5680307 75.6142566,57.9904149 C76.2464722,57.8519259 77.8529366,53.3647283 78.3970277,53.2006462 C79.8608569,52.7591976 79.8608569,48.4108774 81.1514584,44.4764225 C82.1070771,41.563177 85.026366,39.3445302 83.8881119,39.9255723 C85.4097345,39.1960841 87.2224905,38.83134 89.3263798,38.83134 C92.4822138,38.83134 90.8222384,37.6338978 93.7737141,38.83134 C96.7251898,40.0287822 95.6583482,37.2917694 96.1723401,42.0815381 C96.6863321,46.8713069 97.3716532,52.1742658 98.2283081,54.3980883 C99.0849582,56.6219109 100.112942,62.6091218 100.798263,65.0040062 C101.483584,67.3988905 103.196889,68.9384563 102.854226,72.7018446 C102.511568,76.4652378 103.710881,77.1494898 103.88221,79.5443741 C104.053539,81.9392585 103.710881,85.531585 105.252852,85.0183948 C106.794828,84.5052046 107.30882,83.3077625 107.480149,79.0311839 C107.651478,74.7546054 108.679462,73.043973 109.022125,71.3333407 C109.364783,69.6227083 108.679462,67.3988905 109.022125,63.9776258 C109.364783,60.556361 109.364783,58.3325385 109.878775,56.4508443 C110.392767,54.5691501 111.934743,49.6083196 111.59208,48.4108774 C111.249417,47.2134353 111.934743,40.884096 111.934743,40.884096 C111.934743,40.884096 113.134056,37.6338978 113.990706,41.568348 C114.847357,45.5028029 113.819377,51.8321422 114.676027,53.8848981 C115.532682,55.9376541 115.87534,58.3325385 116.04667,60.8984894 C116.218003,63.4644356 116.903324,67.9120759 117.931308,66.5435719 C118.959288,65.175068 120.158601,60.0431708 120.158601,57.9904149 C120.158601,55.9376541 119.987272,53.371708 120.672593,51.318952 C121.357914,49.2661912 120.617371,45.967923 121.186585,42.9368567 C122.72856,34.7258233 123.242548,37.462836 127.697142,34.7258233 C132.151731,31.9888105 131.123752,30.6203065 134.89302,32.5020007 C138.662288,34.3836949 140.375593,39.8577204 141.232243,41.568348 C142.088898,43.2789803 142.088898,47.5555589 142.945548,48.9240676 C143.802203,50.2925716 143.802203,55.4244687 144.316195,57.4772247 C144.830182,59.5299807 143.45954,61.7538032 144.487524,63.2933738 C145.515508,64.8329396 146.200829,67.0567621 145.001516,69.6227083 C143.802203,72.1886592 146.372158,79.2022457 147.057479,81.4260683 C147.7428,83.6498909 148.428121,90.4924155 148.770784,92.3741097 C149.113447,94.2558039 148.942113,100.414081 151.16941,99.387701 C153.396707,98.3613206 153.568036,96.1375028 153.568036,93.4004901 C153.568036,90.6634773 152.882715,89.2949734 154.253357,86.3868988 C155.623999,83.4788243 156.137991,76.4652378 155.623999,74.7546054 C155.110012,73.043973 156.480654,73.2150348 156.651983,71.675469 C156.823312,70.1358985 157.165975,66.7146337 158.022625,64.6618778 C158.87928,62.6091218 156.651983,60.8984894 158.193959,59.7010472 C159.73593,58.5036051 161.620564,53.0295844 161.449235,51.318952 C161.277906,49.6083196 162.134556,46.5291833 162.477219,44.4764225 C162.819877,42.4236665 164.533182,33.1862527 164.533182,30.7913683 C164.533182,28.396484 166.417816,22.4092731 169.501768,27.5411702 C172.585715,32.6730673 171.557731,41.0551626 172.071723,42.0815381 C172.585715,43.1079185 174.781301,38.4892116 175.123964,41.2262244 C175.466622,43.9632323 182.554847,31.3045585 184.096823,29.4228644 C185.638799,27.5411702 194.002021,47.2134353 193.659358,44.6474891 C193.316695,42.0815381 192.460045,41.2262244 192.974037,39.3445302 C193.488029,37.462836 193.830687,34.7258233 193.830687,33.3573193 C193.830687,31.9888105 196.229313,23.6067153 196.229313,22.5803397 C196.229313,21.5539593 197.771289,16.0799386 198.799273,19.3301367 C199.827252,22.5803397 198.799273,25.8305378 199.141931,26.8569182 C199.484594,27.8832986 199.31326,37.6338978 199.998586,39.3445302 C200.683907,41.0551626 201.540557,46.1870549 201.540557,48.068749 C201.540557,49.9504432 201.026565,50.1215098 201.369228,52.8585178 C201.711886,55.5955305 202.73987,54.9112785 203.082533,55.9376541 C203.425191,56.9640345 202.73987,61.7538032 204.624504,61.7538032 C206.509138,61.7538032 205.652488,57.3061629 206.16648,56.6219109 C206.680472,55.9376541 207.194464,54.3980883 207.879785,50.9768236 C208.565106,47.5555589 209.079098,48.4108774 209.764419,45.5028029 C210.44974,42.5947283 208.736435,43.1079185 209.59309,40.7130342 C210.44974,38.3181498 210.278411,33.1862527 210.963732,31.6466869 C211.649053,30.1071163 210.792403,29.4228644 211.991716,27.02798 C213.191029,24.6330956 212.848366,23.7777818 214.561671,19.8433269 C216.274976,15.9088768 214.561671,7.18465313 215.418321,4.78976877 C216.274976,2.39488436 215.932313,0 215.932313,0 L2.111931,0.650469799 Z" id="path1381"></path>
                    <path d="M1183,5.1710618 C1183,5.1710618 1183,13.2110335 1183.51399,15.4348513 C1184.02798,17.6586738 1185.56996,21.9352524 1186.08395,24.1590749 C1186.59794,26.3828975 1185.74129,30.659476 1187.11193,34.4228644 C1188.48257,38.1862527 1189.51056,38.8705095 1189.33923,42.6338978 C1189.16789,46.3972862 1189.16789,45.3709058 1189.68189,47.0815381 C1190.19588,48.7921705 1190.53854,55.6347 1190.53854,55.6347 C1190.79553,57.7729917 1193.1085,57.4308633 1193.27983,55.8057618 C1193.63854,52.4032969 1192.93716,49.4764225 1193.62248,47.9368567 C1194.3078,46.3972862 1195.16446,46.2262244 1195.84978,43.6602782 C1196.5351,41.0943272 1197.22042,39.3836949 1197.56309,37.6730673 C1197.90575,35.9624349 1197.73442,34.5939262 1198.59107,33.9096742 C1199.44772,33.2254222 1199.10506,30.4884142 1199.2764,29.290972 C1199.44772,28.0935299 1199.61905,25.6986455 1201.16103,25.8697073 C1202.703,26.0407691 1203.73098,31.6858564 1203.73098,35.4492447 C1203.73098,39.2126331 1204.9303,40.0679517 1205.10163,41.9496458 C1205.27296,43.83134 1205.78695,48.4500469 1206.30094,49.9896127 C1206.81493,51.5291833 1208.01424,52.5555589 1207.67159,54.2661912 C1207.32892,55.9768236 1207.41459,59.9968046 1208.35691,60.2534021 C1209.92501,60.6804004 1210.5842,59.0559599 1211.44085,59.0559599 C1212.2975,59.0559599 1212.46884,62.3061629 1212.46884,63.3325385 C1212.46884,64.3589189 1212.98283,68.9776258 1213.15416,70.3461298 C1213.32549,71.7146337 1213.32549,76.6754643 1213.66815,81.1231094 C1213.80065,82.8286167 1213.49682,86.7681967 1214.01081,89.3341428 C1214.5248,91.900089 1214.35347,93.9528498 1214.69613,95.4924155 C1215.03879,97.0319861 1214.5248,100.966436 1216.23811,100.966436 C1217.95141,100.966436 1217.78008,99.4268705 1218.4654,95.6634773 C1219.15072,91.900089 1218.12274,91.0447752 1218.80806,89.5052046 C1219.49338,87.9656389 1220.6927,85.7418163 1220.35004,83.6890555 C1220.00737,81.6362996 1219.66472,79.2414152 1220.35004,78.2150348 C1221.03536,77.1886592 1221.37802,74.6227083 1221.37802,72.7410141 C1221.37802,70.8593199 1220.35004,70.6882581 1221.54935,68.9776258 C1222.74866,67.2669934 1222.06334,61.4508443 1222.74866,59.3980883 C1223.43398,57.3453276 1224.6333,56.1478854 1224.46197,51.5291833 C1224.29063,46.9104763 1224.11931,42.6338978 1224.80463,41.0943272 C1225.48995,39.5547615 1225.31862,37.1598771 1226.68926,37.6730673 C1228.05991,38.1862527 1227.88857,38.5283811 1228.23124,41.4364556 C1228.5739,44.3445302 1228.74523,49.6474891 1228.91656,51.0159931 C1229.08789,52.3844971 1229.43055,53.753001 1230.11587,54.9504432 C1230.80119,56.1478854 1232.17184,60.4244687 1232.17184,61.7929727 C1232.17184,63.1614767 1233.37115,66.4116796 1233.19982,67.4380552 C1233.02849,68.4644356 1231.82918,70.6882581 1232.68583,72.3988905 C1233.54248,74.1095181 1233.37115,75.6490887 1233.54248,77.0175927 C1233.71381,78.3861014 1233.88514,81.1231094 1234.2278,82.66268 C1234.57047,84.2022457 1236.62643,86.7681967 1237.14042,83.6890555 C1237.65441,80.6099192 1238.51106,78.2150348 1238.68239,75.4780269 C1238.85373,72.7410141 1238.16841,72.2278239 1238.51106,70.0040062 C1238.85373,67.7801836 1239.36772,66.240613 1239.19638,64.5299807 C1239.02506,62.8193531 1239.53905,58.7138363 1239.53905,56.1478854 C1239.53905,53.5819392 1240.3957,51.5291833 1240.73836,50.3317411 C1241.08102,49.1342989 1241.08102,47.9368567 1241.93767,46.2262244 C1242.79432,44.515592 1243.47964,39.0415713 1245.70694,40.7522036 C1247.93424,42.462836 1255.44857,42.2917694 1255.44857,45.7130342 C1255.44857,49.1342989 1256.89032,50.1153445 1257.23299,52.3391671 C1257.57565,54.5629897 1257.97738,63.5680307 1260.61426,62.9904149 C1261.24647,62.8519259 1262.85294,58.3647283 1263.39703,58.2006462 C1264.86086,57.7591976 1264.86086,53.4108774 1266.15146,49.4764225 C1267.10708,46.563177 1270.02637,44.3445302 1268.88811,44.9255723 C1270.40973,44.1960841 1272.22249,43.83134 1274.32638,43.83134 C1277.48221,43.83134 1275.82224,42.6338978 1278.77371,43.83134 C1281.72519,45.0287822 1280.65835,42.2917694 1281.17234,47.0815381 C1281.68633,51.8713069 1282.37165,57.1742658 1283.22831,59.3980883 C1284.08496,61.6219109 1285.11294,67.6091218 1285.79826,70.0040062 C1286.48358,72.3988905 1288.19689,73.9384563 1287.85423,77.7018446 C1287.51157,81.4652378 1288.71088,82.1494898 1288.88221,84.5443741 C1289.05354,86.9392585 1288.71088,90.531585 1290.25285,90.0183948 C1291.79483,89.5052046 1292.30882,88.3077625 1292.48015,84.0311839 C1292.65148,79.7546054 1293.67946,78.043973 1294.02213,76.3333407 C1294.36478,74.6227083 1293.67946,72.3988905 1294.02213,68.9776258 C1294.36478,65.556361 1294.36478,63.3325385 1294.87878,61.4508443 C1295.39277,59.5691501 1296.93474,54.6083196 1296.59208,53.4108774 C1296.24942,52.2134353 1296.93474,45.884096 1296.93474,45.884096 C1296.93474,45.884096 1298.13406,42.6338978 1298.99071,46.568348 C1299.84736,50.5028029 1298.81938,56.8321422 1299.67603,58.8848981 C1300.53268,60.9376541 1300.87534,63.3325385 1301.04667,65.8984894 C1301.218,68.4644356 1301.90332,72.9120759 1302.93131,71.5435719 C1303.95929,70.175068 1305.1586,65.0431708 1305.1586,62.9904149 C1305.1586,60.9376541 1304.98727,58.371708 1305.67259,56.318952 C1306.35791,54.2661912 1305.61737,50.967923 1306.18658,47.9368567 C1307.72856,39.7258233 1308.24255,42.462836 1312.69714,39.7258233 C1317.15173,36.9888105 1316.12375,35.6203065 1319.89302,37.5020007 C1323.66229,39.3836949 1325.37559,44.8577204 1326.23224,46.568348 C1327.0889,48.2789803 1327.0889,52.5555589 1327.94555,53.9240676 C1328.8022,55.2925716 1328.8022,60.4244687 1329.31619,62.4772247 C1329.83018,64.5299807 1328.45954,66.7538032 1329.48752,68.2933738 C1330.51551,69.8329396 1331.20083,72.0567621 1330.00152,74.6227083 C1328.8022,77.1886592 1331.37216,84.2022457 1332.05748,86.4260683 C1332.7428,88.6498909 1333.42812,95.4924155 1333.77078,97.3741097 C1334.11345,99.2558039 1333.94211,105.414081 1336.16941,104.387701 C1338.39671,103.361321 1338.56804,101.137503 1338.56804,98.4004901 C1338.56804,95.6634773 1337.88272,94.2949734 1339.25336,91.3868988 C1340.624,88.4788243 1341.13799,81.4652378 1340.624,79.7546054 C1340.11001,78.043973 1341.48065,78.2150348 1341.65198,76.675469 C1341.82331,75.1358985 1342.16598,71.7146337 1343.02263,69.6618778 C1343.87928,67.6091218 1341.65198,65.8984894 1343.19396,64.7010472 C1344.73593,63.5036051 1346.62056,58.0295844 1346.44924,56.318952 C1346.27791,54.6083196 1347.13456,51.5291833 1347.47722,49.4764225 C1347.81988,47.4236665 1349.53318,38.1862527 1349.53318,35.7913683 C1349.53318,33.396484 1351.41782,27.4092731 1354.50177,32.5411702 C1357.58572,37.6730673 1356.55773,46.0551626 1357.07172,47.0815381 C1357.58572,48.1079185 1359.7813,43.4892116 1360.12396,46.2262244 C1360.46662,48.9632323 1367.55485,36.3045585 1369.09682,34.4228644 C1370.6388,32.5411702 1379.00202,52.2134353 1378.65936,49.6474891 C1378.31669,47.0815381 1377.46004,46.2262244 1377.97404,44.3445302 C1378.48803,42.462836 1378.83069,39.7258233 1378.83069,38.3573193 C1378.83069,36.9888105 1381.22931,28.6067153 1381.22931,27.5803397 C1381.22931,26.5539593 1382.77129,21.0799386 1383.79927,24.3301367 C1384.82725,27.5803397 1383.79927,30.8305378 1384.14193,31.8569182 C1384.48459,32.8832986 1384.31326,42.6338978 1384.99859,44.3445302 C1385.68391,46.0551626 1386.54056,51.1870549 1386.54056,53.068749 C1386.54056,54.9504432 1386.02657,55.1215098 1386.36923,57.8585178 C1386.71189,60.5955305 1387.73987,59.9112785 1388.08253,60.9376541 C1388.42519,61.9640345 1387.73987,66.7538032 1389.6245,66.7538032 C1391.50914,66.7538032 1390.65249,62.3061629 1391.16648,61.6219109 C1391.68047,60.9376541 1392.19446,59.3980883 1392.87979,55.9768236 C1393.56511,52.5555589 1394.0791,53.4108774 1394.76442,50.5028029 C1395.44974,47.5947283 1393.73644,48.1079185 1394.59309,45.7130342 C1395.44974,43.3181498 1395.27841,38.1862527 1395.96373,36.6466869 C1396.64905,35.1071163 1395.7924,34.4228644 1396.99172,32.02798 C1398.19103,29.6330956 1397.84837,28.7777818 1399.56167,24.8433269 C1401.27498,20.9088768 1399.56167,12.1846531 1400.41832,9.78976877 C1401.27498,7.39488436 1400.93231,5 1400.93231,5 L1183,5.1710618 Z" id="path1381"></path>
                    <path d="M827,5.1710618 C827,5.1710618 827,13.2110335 827.513992,15.4348513 C828.027984,17.6586738 829.569955,21.9352524 830.083947,24.1590749 C830.597939,26.3828975 829.741289,30.659476 831.111931,34.4228644 C832.482573,38.1862527 833.510557,38.8705095 833.339228,42.6338978 C833.167894,46.3972862 833.167894,45.3709058 833.681886,47.0815381 C834.195878,48.7921705 834.538541,55.6347 834.538541,55.6347 C834.795535,57.7729917 837.108496,57.4308633 837.279825,55.8057618 C837.63854,52.4032969 836.937162,49.4764225 837.622483,47.9368567 C838.307804,46.3972862 839.164459,46.2262244 839.84978,43.6602782 C840.535101,41.0943272 841.220422,39.3836949 841.56309,37.6730673 C841.905748,35.9624349 841.734419,34.5939262 842.591074,33.9096742 C843.447724,33.2254222 843.105061,30.4884142 843.276395,29.290972 C843.447724,28.0935299 843.619053,25.6986455 845.161029,25.8697073 C846.703,26.0407691 847.730984,31.6858564 847.730984,35.4492447 C847.730984,39.2126331 848.930297,40.0679517 849.101626,41.9496458 C849.27296,43.83134 849.786952,48.4500469 850.300939,49.9896127 C850.814931,51.5291833 852.014244,52.5555589 851.671586,54.2661912 C851.328923,55.9768236 851.414588,59.9968046 852.356907,60.2534021 C853.925014,60.6804004 854.584204,59.0559599 855.440854,59.0559599 C856.297504,59.0559599 856.468838,62.3061629 856.468838,63.3325385 C856.468838,64.3589189 856.98283,68.9776258 857.154159,70.3461298 C857.325488,71.7146337 857.325488,76.6754643 857.668151,81.1231094 C857.800651,82.8286167 857.496817,86.7681967 858.010809,89.3341428 C858.524801,91.900089 858.353472,93.9528498 858.696131,95.4924155 C859.038793,97.0319861 858.524801,100.966436 860.238106,100.966436 C861.951411,100.966436 861.780082,99.4268705 862.465403,95.6634773 C863.150724,91.900089 862.122741,91.0447752 862.808062,89.5052046 C863.493383,87.9656389 864.692696,85.7418163 864.350037,83.6890555 C864.007375,81.6362996 863.664716,79.2414152 864.350037,78.2150348 C865.035359,77.1886592 865.378021,74.6227083 865.378021,72.7410141 C865.378021,70.8593199 864.350037,70.6882581 865.549351,68.9776258 C866.748664,67.2669934 866.063342,61.4508443 866.748664,59.3980883 C867.433985,57.3453276 868.633298,56.1478854 868.461969,51.5291833 C868.290635,46.9104763 868.119306,42.6338978 868.804627,41.0943272 C869.489948,39.5547615 869.318619,37.1598771 870.689261,37.6730673 C872.059908,38.1862527 871.888574,38.5283811 872.231237,41.4364556 C872.5739,44.3445302 872.74523,49.6474891 872.916559,51.0159931 C873.087888,52.3844971 873.430551,53.753001 874.115872,54.9504432 C874.801193,56.1478854 876.17184,60.4244687 876.17184,61.7929727 C876.17184,63.1614767 877.371153,66.4116796 877.199819,67.4380552 C877.02849,68.4644356 875.829177,70.6882581 876.685827,72.3988905 C877.542482,74.1095181 877.371153,75.6490887 877.542482,77.0175927 C877.713811,78.3861014 877.88514,81.1231094 878.227803,82.66268 C878.570466,84.2022457 880.626429,86.7681967 881.140421,83.6890555 C881.654413,80.6099192 882.511063,78.2150348 882.682392,75.4780269 C882.853726,72.7410141 882.168405,72.2278239 882.511063,70.0040062 C882.853726,67.7801836 883.367718,66.240613 883.196384,64.5299807 C883.025055,62.8193531 883.539047,58.7138363 883.539047,56.1478854 C883.539047,53.5819392 884.395697,51.5291833 884.73836,50.3317411 C885.081018,49.1342989 885.081018,47.9368567 885.937673,46.2262244 C886.794323,44.515592 887.479644,39.0415713 889.706941,40.7522036 C891.934238,42.462836 899.448572,42.2917694 899.448572,45.7130342 C899.448572,49.1342989 900.890325,50.1153445 901.232988,52.3391671 C901.575646,54.5629897 901.977385,63.5680307 904.614257,62.9904149 C905.246472,62.8519259 906.852937,58.3647283 907.397028,58.2006462 C908.860857,57.7591976 908.860857,53.4108774 910.151458,49.4764225 C911.107077,46.563177 914.026366,44.3445302 912.888112,44.9255723 C914.409735,44.1960841 916.22249,43.83134 918.32638,43.83134 C921.482214,43.83134 919.822238,42.6338978 922.773714,43.83134 C925.72519,45.0287822 924.658348,42.2917694 925.17234,47.0815381 C925.686332,51.8713069 926.371653,57.1742658 927.228308,59.3980883 C928.084958,61.6219109 929.112942,67.6091218 929.798263,70.0040062 C930.483584,72.3988905 932.196889,73.9384563 931.854226,77.7018446 C931.511568,81.4652378 932.710881,82.1494898 932.88221,84.5443741 C933.053539,86.9392585 932.710881,90.531585 934.252852,90.0183948 C935.794828,89.5052046 936.30882,88.3077625 936.480149,84.0311839 C936.651478,79.7546054 937.679462,78.043973 938.022125,76.3333407 C938.364783,74.6227083 937.679462,72.3988905 938.022125,68.9776258 C938.364783,65.556361 938.364783,63.3325385 938.878775,61.4508443 C939.392767,59.5691501 940.934743,54.6083196 940.59208,53.4108774 C940.249417,52.2134353 940.934743,45.884096 940.934743,45.884096 C940.934743,45.884096 942.134056,42.6338978 942.990706,46.568348 C943.847357,50.5028029 942.819377,56.8321422 943.676027,58.8848981 C944.532682,60.9376541 944.87534,63.3325385 945.04667,65.8984894 C945.218003,68.4644356 945.903324,72.9120759 946.931308,71.5435719 C947.959288,70.175068 949.158601,65.0431708 949.158601,62.9904149 C949.158601,60.9376541 948.987272,58.371708 949.672593,56.318952 C950.357914,54.2661912 949.617371,50.967923 950.186585,47.9368567 C951.72856,39.7258233 952.242548,42.462836 956.697142,39.7258233 C961.151731,36.9888105 960.123752,35.6203065 963.89302,37.5020007 C967.662288,39.3836949 969.375593,44.8577204 970.232243,46.568348 C971.088898,48.2789803 971.088898,52.5555589 971.945548,53.9240676 C972.802203,55.2925716 972.802203,60.4244687 973.316195,62.4772247 C973.830182,64.5299807 972.45954,66.7538032 973.487524,68.2933738 C974.515508,69.8329396 975.200829,72.0567621 974.001516,74.6227083 C972.802203,77.1886592 975.372158,84.2022457 976.057479,86.4260683 C976.7428,88.6498909 977.428121,95.4924155 977.770784,97.3741097 C978.113447,99.2558039 977.942113,105.414081 980.16941,104.387701 C982.396707,103.361321 982.568036,101.137503 982.568036,98.4004901 C982.568036,95.6634773 981.882715,94.2949734 983.253357,91.3868988 C984.623999,88.4788243 985.137991,81.4652378 984.623999,79.7546054 C984.110012,78.043973 985.480654,78.2150348 985.651983,76.675469 C985.823312,75.1358985 986.165975,71.7146337 987.022625,69.6618778 C987.87928,67.6091218 985.651983,65.8984894 987.193959,64.7010472 C988.73593,63.5036051 990.620564,58.0295844 990.449235,56.318952 C990.277906,54.6083196 991.134556,51.5291833 991.477219,49.4764225 C991.819877,47.4236665 993.533182,38.1862527 993.533182,35.7913683 C993.533182,33.396484 995.417816,27.4092731 998.501768,32.5411702 C1001.58572,37.6730673 1000.55773,46.0551626 1001.07172,47.0815381 C1001.58572,48.1079185 1003.7813,43.4892116 1004.12396,46.2262244 C1004.46662,48.9632323 1011.55485,36.3045585 1013.09682,34.4228644 C1014.6388,32.5411702 1023.00202,52.2134353 1022.65936,49.6474891 C1022.31669,47.0815381 1021.46004,46.2262244 1021.97404,44.3445302 C1022.48803,42.462836 1022.83069,39.7258233 1022.83069,38.3573193 C1022.83069,36.9888105 1025.22931,28.6067153 1025.22931,27.5803397 C1025.22931,26.5539593 1026.77129,21.0799386 1027.79927,24.3301367 C1028.82725,27.5803397 1027.79927,30.8305378 1028.14193,31.8569182 C1028.48459,32.8832986 1028.31326,42.6338978 1028.99859,44.3445302 C1029.68391,46.0551626 1030.54056,51.1870549 1030.54056,53.068749 C1030.54056,54.9504432 1030.02657,55.1215098 1030.36923,57.8585178 C1030.71189,60.5955305 1031.73987,59.9112785 1032.08253,60.9376541 C1032.42519,61.9640345 1031.73987,66.7538032 1033.6245,66.7538032 C1035.50914,66.7538032 1034.65249,62.3061629 1035.16648,61.6219109 C1035.68047,60.9376541 1036.19446,59.3980883 1036.87979,55.9768236 C1037.56511,52.5555589 1038.0791,53.4108774 1038.76442,50.5028029 C1039.44974,47.5947283 1037.73644,48.1079185 1038.59309,45.7130342 C1039.44974,43.3181498 1039.27841,38.1862527 1039.96373,36.6466869 C1040.64905,35.1071163 1039.7924,34.4228644 1040.99172,32.02798 C1042.19103,29.6330956 1041.84837,28.7777818 1043.56167,24.8433269 C1045.27498,20.9088768 1043.56167,12.1846531 1044.41832,9.78976877 C1045.27498,7.39488436 1044.93231,5 1044.93231,5 L827,5.1710618 Z" id="path1381" transform="translate(936.000000, 54.751126) scale(-1, 1) translate(-936.000000, -54.751126) "></path>
                </g>
                <g id="Icicles_clip_art" transform="translate(1112.000000, 436.500000) scale(-1, 1) translate(-1112.000000, -436.500000) translate(1003.000000, 346.000000)" fill="#1E66AC">
                    <path d="M0,0.1710618 C0,0.1710618 0,8.21103351 0.51399198,10.4348513 C1.02798396,12.6586738 2.56995511,16.9352524 3.08394704,19.1590749 C3.59793902,21.3828975 2.74128892,25.659476 4.111931,29.4228644 C5.48257308,33.1862527 6.51055704,33.8705095 6.33922798,37.6338978 C6.16789412,41.3972862 6.16789412,40.3709058 6.6818861,42.0815381 C7.19587808,43.7921705 7.538541,50.6347 7.538541,50.6347 C7.7955346,52.7729917 10.1084961,52.4308633 10.2798252,50.8057618 C10.6385397,47.4032969 9.93716225,44.4764225 10.6224833,42.9368567 C11.3078043,41.3972862 12.1644592,41.2262244 12.8497803,38.6602782 C13.5351013,36.0943272 14.2204224,34.3836949 14.5630901,32.6730673 C14.9057482,30.9624349 14.7344191,29.5939262 15.591074,28.9096742 C16.4477241,28.2254222 16.1050612,25.4884142 16.2763951,24.290972 C16.4477241,23.0935299 16.6190532,20.6986455 18.1610291,20.8697073 C19.7030003,21.0407691 20.7309842,26.6858564 20.7309842,30.4492447 C20.7309842,34.2126331 21.9302973,35.0679517 22.1016263,36.9496458 C22.2729602,38.83134 22.7869522,43.4500469 23.3009394,44.9896127 C23.8149313,46.5291833 25.0142444,47.5555589 24.6715862,49.2661912 C24.3289233,50.9768236 24.4145878,54.9968046 25.3569073,55.2534021 C26.9250138,55.6804004 27.5842043,54.0559599 28.4408544,54.0559599 C29.2975045,54.0559599 29.4688383,57.3061629 29.4688383,58.3325385 C29.4688383,59.3589189 29.9828303,63.9776258 30.1541594,65.3461298 C30.3254884,66.7146337 30.3254884,71.6754643 30.6681513,76.1231094 C30.8006514,77.8286167 30.4968175,81.7681967 31.0108095,84.3341428 C31.5248014,86.900089 31.3534724,88.9528498 31.6961305,90.4924155 C32.0387934,92.0319861 31.5248014,95.9664363 33.2381064,95.9664363 C34.9514115,95.9664363 34.7800824,94.4268705 35.4654034,90.6634773 C36.1507245,86.900089 35.1227405,86.0447752 35.8080616,84.5052046 C36.4933826,82.9656389 37.6926956,80.7418163 37.3500375,78.6890555 C37.0073746,76.6362996 36.6647165,74.2414152 37.3500375,73.2150348 C38.0353585,72.1886592 38.3780215,69.6227083 38.3780215,67.7410141 C38.3780215,65.8593199 37.3500375,65.6882581 38.5493505,63.9776258 C39.7486635,62.2669934 39.0633425,56.4508443 39.7486635,54.3980883 C40.4339846,52.3453276 41.6332976,51.1478854 41.4619685,46.5291833 C41.2906347,41.9104763 41.1193056,37.6338978 41.8046267,36.0943272 C42.4899477,34.5547615 42.3186186,32.1598771 43.6892607,32.6730673 C45.0599076,33.1862527 44.8885737,33.5283811 45.2312367,36.4364556 C45.5738996,39.3445302 45.7452301,44.6474891 45.9165591,46.0159931 C46.0878882,47.3844971 46.4305511,48.753001 47.1158722,49.9504432 C47.8011932,51.1478854 49.1718401,55.4244687 49.1718401,56.7929727 C49.1718401,58.1614767 50.3711531,61.4116796 50.1998193,62.4380552 C50.0284902,63.4644356 48.8291772,65.6882581 49.6858273,67.3988905 C50.5424822,69.1095181 50.3711531,70.6490887 50.5424822,72.0175927 C50.7138112,73.3861014 50.8851403,76.1231094 51.2278032,77.66268 C51.5704661,79.2022457 53.6264293,81.7681967 54.1404212,78.6890555 C54.6544132,75.6099192 55.5110633,73.2150348 55.6823924,70.4780269 C55.8537262,67.7410141 55.1684052,67.2278239 55.5110633,65.0040062 C55.8537262,62.7801836 56.3677182,61.240613 56.1963844,59.5299807 C56.0250553,57.8193531 56.5390473,53.7138363 56.5390473,51.1478854 C56.5390473,48.5819392 57.3956974,46.5291833 57.7383603,45.3317411 C58.0810184,44.1342989 58.0810184,42.9368567 58.9376733,41.2262244 C59.7943234,39.515592 60.4796445,34.0415713 62.7069415,35.7522036 C64.9342384,37.462836 68.0181855,43.7921705 68.0181855,47.2134353 C68.0181855,50.6347 69.9028196,50.9768236 70.2454825,53.2006462 C70.5881406,55.4244687 71.2734617,62.9512454 71.4447955,64.3197494 C71.6161246,65.6882581 72.6441086,82.9656389 73.3294296,85.8737086 C74.0147506,88.7817832 74.3574136,89.4660352 74.5287426,92.7162381 C74.7000717,95.9664363 73.8434216,96.3085646 74.5287426,99.387701 C75.2140637,102.466837 76.2420476,106.743416 76.2420476,108.62511 C76.2420476,110.506809 77.2700268,109.993619 77.2700268,111.533185 C77.2700268,113.072755 76.0707138,114.270197 76.4133767,117.349334 C76.7560396,120.42847 76.9273687,128.981627 77.7840188,130.863326 C78.6406737,132.74502 77.6126897,137.021599 77.9553526,138.219041 C78.2980107,139.416483 77.4413606,140.613925 77.9553526,144.03519 C78.4693398,147.45645 79.3259947,154.81217 79.6686528,158.062368 C80.0113157,161.312566 80.3539787,163.536389 80.1826448,166.273401 C80.0113157,169.010409 81.0392997,170.892103 81.0392997,172.773802 C81.0392997,174.655497 80.6966368,180.471641 82.2386127,180.813769 C83.7805839,181.155898 84.8085678,181.498021 84.9798969,177.221443 C85.1512308,172.944864 84.8085678,165.075959 85.1512308,162.681075 C85.4938889,160.28619 86.5218728,156.180674 86.3505438,153.614727 C86.1792099,151.048777 85.1512308,147.96964 85.4938889,146.430074 C85.8365518,144.890504 86.6932019,140.271797 86.6932019,138.561165 C86.6932019,136.850537 86.5218728,133.25821 86.5218728,131.547578 C86.5218728,129.836946 85.3220753,127.621366 86.3505438,125.902491 C90.291141,119.316559 87.9781842,114.783388 89.1774973,112.901689 C90.3768103,111.019994 90.6338039,111.019994 90.6338039,106.059164 C90.6338039,101.098333 91.8331169,99.387701 91.661783,96.6506882 C91.490454,93.9136803 90.6338039,91.8609195 91.8331169,89.9792254 C93.0324299,88.0975312 91.661783,81.2550065 92.5184379,79.2022457 C93.3750881,77.1494898 93.0324299,75.6099192 93.3750881,73.2150348 C93.717751,70.8201505 93.3750881,71.3333407 93.88908,69.4516465 C94.403072,67.5699523 95.431056,68.2542043 94.7457349,65.0040062 C94.0604091,61.7538032 95.0883931,61.4116796 94.917064,59.5299807 C94.7457349,57.6482865 94.917064,47.0423735 95.2597221,44.9896127 C95.602385,42.9368567 94.5744011,40.199844 95.7737141,38.83134 C96.9730271,37.462836 97.6583482,37.2917694 98.1723401,42.0815381 C98.6863321,46.8713069 99.3716532,52.1742658 100.228308,54.3980883 C101.084958,56.6219109 102.112942,62.6091218 102.798263,65.0040062 C103.483584,67.3988905 105.196889,68.9384563 104.854226,72.7018446 C104.511568,76.4652378 105.710881,77.1494898 105.88221,79.5443741 C106.053539,81.9392585 105.710881,85.531585 107.252852,85.0183948 C108.794828,84.5052046 109.30882,83.3077625 109.480149,79.0311839 C109.651478,74.7546054 110.679462,73.043973 111.022125,71.3333407 C111.364783,69.6227083 110.679462,67.3988905 111.022125,63.9776258 C111.364783,60.556361 111.364783,58.3325385 111.878775,56.4508443 C112.392767,54.5691501 113.934743,49.6083196 113.59208,48.4108774 C113.249417,47.2134353 113.934743,40.884096 113.934743,40.884096 C113.934743,40.884096 115.134056,37.6338978 115.990706,41.568348 C116.847357,45.5028029 115.819377,51.8321422 116.676027,53.8848981 C117.532682,55.9376541 117.87534,58.3325385 118.04667,60.8984894 C118.218003,63.4644356 118.903324,67.9120759 119.931308,66.5435719 C120.959288,65.175068 122.158601,60.0431708 122.158601,57.9904149 C122.158601,55.9376541 121.987272,53.371708 122.672593,51.318952 C123.357914,49.2661912 122.617371,45.967923 123.186585,42.9368567 C124.72856,34.7258233 125.242548,37.462836 129.697142,34.7258233 C134.151731,31.9888105 133.123752,30.6203065 136.89302,32.5020007 C140.662288,34.3836949 142.375593,39.8577204 143.232243,41.568348 C144.088898,43.2789803 144.088898,47.5555589 144.945548,48.9240676 C145.802203,50.2925716 145.802203,55.4244687 146.316195,57.4772247 C146.830182,59.5299807 145.45954,61.7538032 146.487524,63.2933738 C147.515508,64.8329396 148.200829,67.0567621 147.001516,69.6227083 C145.802203,72.1886592 148.372158,79.2022457 149.057479,81.4260683 C149.7428,83.6498909 150.428121,90.4924155 150.770784,92.3741097 C151.113447,94.2558039 150.942113,100.414081 153.16941,99.387701 C155.396707,98.3613206 155.568036,96.1375028 155.568036,93.4004901 C155.568036,90.6634773 154.882715,89.2949734 156.253357,86.3868988 C157.623999,83.4788243 158.137991,76.4652378 157.623999,74.7546054 C157.110012,73.043973 158.480654,73.2150348 158.651983,71.675469 C158.823312,70.1358985 159.165975,66.7146337 160.022625,64.6618778 C160.87928,62.6091218 158.651983,60.8984894 160.193959,59.7010472 C161.73593,58.5036051 163.620564,53.0295844 163.449235,51.318952 C163.277906,49.6083196 164.134556,46.5291833 164.477219,44.4764225 C164.819877,42.4236665 166.533182,33.1862527 166.533182,30.7913683 C166.533182,28.396484 168.417816,22.4092731 171.501768,27.5411702 C174.585715,32.6730673 173.557731,41.0551626 174.071723,42.0815381 C174.585715,43.1079185 174.928374,51.6610756 175.271036,54.3980883 C175.613695,57.1350963 178.354984,61.5827414 177.155671,63.9776258 C175.956358,66.3725101 175.613695,72.359721 176.813012,73.5571632 C178.012325,74.7546054 175.271036,76.6362996 176.470349,78.6890555 C177.669663,80.7418163 178.012325,86.0447752 178.183654,87.584341 C178.354984,89.1239116 179.896959,90.6634773 179.554297,92.5451763 C179.211638,94.4268705 178.868976,104.348532 180.239618,108.282986 C181.610265,112.217437 180.582281,114.783388 180.924939,117.007205 C181.267602,119.231028 181.267602,123.507606 182.638244,124.533987 C184.008891,125.560367 186.407517,124.362925 185.893525,122.652293 C185.379533,120.94166 185.379533,120.086346 186.407517,117.691462 C187.435496,115.296578 187.778159,113.928069 187.778159,111.019994 C187.778159,108.111925 188.46348,108.282986 188.46348,106.572354 C188.46348,104.861722 186.921504,105.20385 188.292151,101.953647 C189.662793,98.703449 190.348114,95.6243127 190.348114,92.5451763 C190.348114,89.4660352 190.519443,86.900089 190.862106,84.3341428 C191.204769,81.7681967 192.74674,81.9392585 192.575411,77.8337418 C192.404082,73.728225 191.033435,74.2414152 192.74674,72.0175927 C194.460045,69.7937749 194.631374,72.0175927 194.117382,66.5435719 C193.603395,61.0695512 191.718756,59.872109 193.260732,57.9904149 C194.632833,56.3160217 195.733612,49.0882501 195.718068,45.7081519 C195.716144,45.2896733 195.697108,44.9301722 195.659358,44.6474891 C195.316695,42.0815381 194.460045,41.2262244 194.974037,39.3445302 C195.488029,37.462836 195.830687,34.7258233 195.830687,33.3573193 C195.830687,31.9888105 198.229313,23.6067153 198.229313,22.5803397 C198.229313,21.5539593 199.771289,16.0799386 200.799273,19.3301367 C201.827252,22.5803397 200.799273,25.8305378 201.141931,26.8569182 C201.484594,27.8832986 204.790153,46.7002451 205.475478,48.4108774 C206.1608,50.1215098 214.386433,58.7708894 212.640512,53.2006462 C210.89459,47.6304029 211.079098,48.4108774 211.764419,45.5028029 C212.44974,42.5947283 210.736435,43.1079185 211.59309,40.7130342 C212.44974,38.3181498 212.278411,33.1862527 212.963732,31.6466869 C213.649053,30.1071163 212.792403,29.4228644 213.991716,27.02798 C215.191029,24.6330956 214.848366,23.7777818 216.561671,19.8433269 C218.274976,15.9088768 216.561671,7.18465313 217.418321,4.78976877 C218.274976,2.39488436 217.932313,0 217.932313,0 L0,0.1710618 Z" id="path1381"></path>
                </g>
                <rect id="Rectangle" fill="url(#linearGradient-1)" x="0" y="0" width="1400" height="360"></rect>
            </g>
        </g>
    </g>
</svg>