<?xml version="1.0" encoding="UTF-8"?>
<svg width="462px" height="439px" viewBox="0 0 462 439" preserveAspectRatio="none" version="1.1" xmlns="http://www.w3.org/2000/svg" xmlns:xlink="http://www.w3.org/1999/xlink">
    <!-- Generator: Sketch 53.2 (72643) - https://sketchapp.com -->
    <title>Group 10 Copy</title>
    <desc>Created with Sketch.</desc>
    <defs>
        <linearGradient x1="50%" y1="100%" x2="50%" y2="26.8543102%" id="linearGradient-1">
            <stop stop-color="#1E66AC" offset="0%"></stop>
            <stop stop-color="#0D3674" offset="100%"></stop>
        </linearGradient>
    </defs>
    <g id="Welcome" stroke="none" stroke-width="1" fill="none" fill-rule="evenodd">
        <g id="Desktop-HD-Copy" transform="translate(-516.000000, -2274.000000)">
            <g id="Group-10-Copy" transform="translate(747.000000, 2493.500000) scale(1, -1) translate(-747.000000, -2493.500000) translate(516.000000, 2274.000000)">
                <g id="Icicles_clip_art" transform="translate(231.000000, 389.000000) scale(-1, 1) translate(-231.000000, -389.000000) translate(0.000000, 339.000000)" fill="#1E66AC">
                    <path d="M0,0.497748793 C4,0.497748793 7.13465161e-13,8.95392649 3.56469686e-13,11.3710327 C0,13.7881388 0.111930999,17.6118593 0.111930999,19.8278855 C0.111930999,22.0439117 0.111930999,26.0440779 0.111930999,29.9206132 C0.111930999,33.7971484 2.51055704,34.3682583 2.33922798,38.1316466 C2.16789412,41.895035 2.16789412,40.8686546 2.6818861,42.5792869 C3.19587808,44.2899193 3.538541,51.1324488 3.538541,51.1324488 C3.7955346,53.2707405 6.10849611,52.9286121 6.27982517,51.3035106 C6.6385397,47.9010457 5.93716225,44.9741713 6.62248329,43.4346055 C7.30780433,41.895035 8.16445923,41.7239732 8.84978028,39.158027 C9.53510132,36.592076 10.2204224,34.8814437 10.5630901,33.1708161 C10.9057482,31.4601837 10.7344191,30.091675 11.591074,29.407423 C12.4477241,28.723171 12.1050612,25.986163 12.2763951,24.7887208 C12.4477241,23.5912787 12.6190532,21.1963943 14.1610291,21.3674561 C15.7030003,21.5385179 16.7309842,27.1836052 16.7309842,30.9469935 C16.7309842,34.7103819 17.9302973,35.5657005 18.1016263,37.4473946 C18.2729602,39.3290888 18.7869522,43.9477957 19.3009394,45.4873615 C19.8149313,47.0269321 21.0142444,48.0533077 20.6715862,49.76394 C20.3289233,51.4745724 20.4145878,55.4945534 21.3569073,55.7511509 C22.9250138,56.1781492 23.5842043,54.5537087 24.4408544,54.5537087 C25.2975045,54.5537087 25.4688383,57.8039117 25.4688383,58.8302873 C25.4688383,59.8566677 25.9828303,64.4753746 26.1541594,65.8438786 C26.3254884,67.2123825 26.3254884,72.1732131 26.6681513,76.6208582 C26.8006514,78.3263655 26.4968175,82.2659455 27.0108095,84.8318916 C27.5248014,87.3978378 27.3534724,89.4505986 27.6961305,90.9901643 C28.0387934,92.5297349 27.5248014,96.464185 29.2381064,96.464185 C30.9514115,96.464185 30.7800824,94.9246193 31.4654034,91.1612261 C32.1507245,87.3978378 31.1227405,86.542524 31.8080616,85.0029534 C32.4933826,83.4633877 33.6926956,81.2395651 33.3500375,79.1868043 C33.0073746,77.1340484 32.6647165,74.739164 33.3500375,73.7127836 C34.0353585,72.686408 34.3780215,70.1204571 34.3780215,68.2387629 C34.3780215,66.3570687 33.3500375,66.1860069 34.5493505,64.4753746 C35.7486635,62.7647422 35.0633425,56.9485931 35.7486635,54.8958371 C36.4339846,52.8430764 37.6332976,51.6456342 37.4619685,47.0269321 C37.2906347,42.4082251 37.1193056,38.1316466 37.8046267,36.592076 C38.4899477,35.0525103 38.3186186,32.6576259 39.6892607,33.1708161 C41.0599076,33.6840015 40.8885737,34.0261299 41.2312367,36.9342044 C41.5738996,39.842279 41.7452301,45.1452379 41.9165591,46.5137419 C42.0878882,47.8822459 42.4305511,49.2507498 43.1158722,50.448192 C43.8011932,51.6456342 45.1718401,55.9222175 45.1718401,57.2907215 C45.1718401,58.6592255 46.3711531,61.9094284 46.1998193,62.935804 C46.0284902,63.9621844 44.8291772,66.1860069 45.6858273,67.8966393 C46.5424822,69.6072669 46.3711531,71.1468375 46.5424822,72.5153414 C46.7138112,73.8838502 46.8851403,76.6208582 47.2278032,78.1604287 C47.5704661,79.6999945 49.6264293,82.2659455 50.1404212,79.1868043 C50.6544132,76.107668 51.5110633,73.7127836 51.6823924,70.9757757 C51.8537262,68.2387629 51.1684052,67.7255727 51.5110633,65.501755 C51.8537262,63.2779324 52.3677182,61.7383618 52.1963844,60.0277295 C52.0250553,58.3171019 52.5390473,54.2115851 52.5390473,51.6456342 C52.5390473,49.079688 53.3956974,47.0269321 53.7383603,45.8294899 C54.0810184,44.6320477 54.0810184,43.4346055 54.9376733,41.7239732 C55.7943234,40.0133408 56.4796445,34.5393201 58.7069415,36.2499524 C60.9342384,37.9605848 68.448572,37.7895182 68.448572,41.210783 C68.448572,44.6320477 69.8903246,45.6130933 70.2329875,47.8369159 C70.5756457,50.0607385 70.9773845,59.0657795 73.6142566,58.4881637 C74.2464722,58.3496747 75.8529366,53.8624771 76.3970277,53.698395 C77.8608569,53.2569464 77.8608569,48.9086262 79.1514584,44.9741713 C80.1070771,42.0609258 83.026366,39.842279 81.8881119,40.4233211 C83.4097345,39.6938329 85.2224905,39.3290888 87.3263798,39.3290888 C90.4822138,39.3290888 88.8222384,38.1316466 91.7737141,39.3290888 C94.7251898,40.526531 93.6583482,37.7895182 94.1723401,42.5792869 C94.6863321,47.3690557 95.3716532,52.6720146 96.2283081,54.8958371 C97.0849582,57.1196597 98.1129421,63.1068706 98.7982632,65.501755 C99.4835842,67.8966393 101.196889,69.4362051 100.854226,73.1995934 C100.511568,76.9629866 101.710881,77.6472386 101.88221,80.0421229 C102.053539,82.4370073 101.710881,86.0293338 103.252852,85.5161436 C104.794828,85.0029534 105.30882,83.8055113 105.480149,79.5289327 C105.651478,75.2523542 106.679462,73.5417218 107.022125,71.8310895 C107.364783,70.1204571 106.679462,67.8966393 107.022125,64.4753746 C107.364783,61.0541098 107.364783,58.8302873 107.878775,56.9485931 C108.392767,55.0668989 109.934743,50.1060684 109.59208,48.9086262 C109.249417,47.7111841 109.934743,41.3818448 109.934743,41.3818448 C109.934743,41.3818448 111.134056,38.1316466 111.990706,42.0660968 C112.847357,46.0005517 111.819377,52.329891 112.676027,54.3826469 C113.532682,56.4354029 113.87534,58.8302873 114.04667,61.3962382 C114.218003,63.9621844 114.903324,68.4098247 115.931308,67.0413207 C116.959288,65.6728168 118.158601,60.5409196 118.158601,58.4881637 C118.158601,56.4354029 117.987272,53.8694568 118.672593,51.8167008 C119.357914,49.76394 118.617371,46.4656718 119.186585,43.4346055 C120.72856,35.2235721 121.242548,37.9605848 125.697142,35.2235721 C130.151731,32.4865593 129.123752,31.1180553 132.89302,32.9997495 C136.662288,34.8814437 138.375593,40.3554692 139.232243,42.0660968 C140.088898,43.7767291 140.088898,48.0533077 140.945548,49.4218164 C141.802203,50.7903204 141.802203,55.9222175 142.316195,57.9749735 C142.830182,60.0277295 141.45954,62.251552 142.487524,63.7911226 C143.515508,65.3306884 144.200829,67.5545109 143.001516,70.1204571 C141.802203,72.686408 144.372158,79.6999945 145.057479,81.9238171 C145.7428,84.1476396 146.428121,90.9901643 146.770784,92.8718585 C147.113447,94.7535527 146.942113,100.91183 149.16941,99.8854498 C151.396707,98.8590694 151.568036,96.6352516 151.568036,93.8982389 C151.568036,91.1612261 150.882715,89.7927222 152.253357,86.8846476 C153.623999,83.9765731 154.137991,76.9629866 153.623999,75.2523542 C153.110012,73.5417218 154.480654,73.7127836 154.651983,72.1732178 C154.823312,70.6336473 155.165975,67.2123825 156.022625,65.1596266 C156.87928,63.1068706 154.651983,61.3962382 156.193959,60.198796 C157.73593,59.0013539 159.620564,53.5273332 159.449235,51.8167008 C159.277906,50.1060684 160.134556,47.0269321 160.477219,44.9741713 C160.819877,42.9214153 162.533182,33.6840015 162.533182,31.2891171 C162.533182,28.8942328 164.417816,22.9070219 167.501768,28.038919 C170.585715,33.1708161 169.557731,41.5529114 170.071723,42.5792869 C170.585715,43.6056673 172.781301,38.9869604 173.123964,41.7239732 C173.466622,44.4609811 180.554847,31.8023073 182.096823,29.9206132 C183.638799,28.038919 192.002021,47.7111841 191.659358,45.1452379 C191.316695,42.5792869 190.460045,41.7239732 190.974037,39.842279 C191.488029,37.9605848 191.830687,35.2235721 191.830687,33.8550681 C191.830687,32.4865593 194.229313,24.1044641 194.229313,23.0780885 C194.229313,22.0517081 195.771289,16.5776874 196.799273,19.8278855 C197.827252,23.0780885 196.799273,26.3282866 197.141931,27.354667 C197.484594,28.3810474 197.31326,38.1316466 197.998586,39.842279 C198.683907,41.5529114 199.540557,46.6848037 199.540557,48.5664978 C199.540557,50.448192 199.026565,50.6192586 199.369228,53.3562666 C199.711886,56.0932793 200.73987,55.4090273 201.082533,56.4354029 C201.425191,57.4617833 200.73987,62.251552 202.624504,62.251552 C204.509138,62.251552 203.652488,57.8039117 204.16648,57.1196597 C204.680472,56.4354029 205.194464,54.8958371 205.879785,51.4745724 C206.565106,48.0533077 207.079098,48.9086262 207.764419,46.0005517 C208.44974,43.0924771 206.736435,43.6056673 207.59309,41.210783 C208.44974,38.8158986 208.278411,33.6840015 208.963732,32.1444357 C209.649053,30.6048651 208.792403,29.9206132 209.991716,27.5257288 C211.191029,25.1308444 210.848366,24.2755306 212.561671,20.3410757 C214.274976,16.4066256 212.561671,7.68240192 213.418321,5.28751756 C214.274976,2.89263315 213.932313,0.497748793 213.932313,0.497748793 L0,0.497748793 Z" id="path1381"></path>
                    <path d="M116,0.1710618 C116,0.1710618 116,8.21103351 116.513992,10.4348513 C117.027984,12.6586738 118.569955,16.9352524 119.083947,19.1590749 C119.597939,21.3828975 118.741289,25.659476 120.111931,29.4228644 C121.482573,33.1862527 122.510557,33.8705095 122.339228,37.6338978 C122.167894,41.3972862 122.167894,40.3709058 122.681886,42.0815381 C123.195878,43.7921705 123.538541,50.6347 123.538541,50.6347 C123.795535,52.7729917 126.108496,52.4308633 126.279825,50.8057618 C126.63854,47.4032969 125.937162,44.4764225 126.622483,42.9368567 C127.307804,41.3972862 128.164459,41.2262244 128.84978,38.6602782 C129.535101,36.0943272 130.220422,34.3836949 130.56309,32.6730673 C130.905748,30.9624349 130.734419,29.5939262 131.591074,28.9096742 C132.447724,28.2254222 132.105061,25.4884142 132.276395,24.290972 C132.447724,23.0935299 132.619053,20.6986455 134.161029,20.8697073 C135.703,21.0407691 136.730984,26.6858564 136.730984,30.4492447 C136.730984,34.2126331 137.930297,35.0679517 138.101626,36.9496458 C138.27296,38.83134 138.786952,43.4500469 139.300939,44.9896127 C139.814931,46.5291833 141.014244,47.5555589 140.671586,49.2661912 C140.328923,50.9768236 140.414588,54.9968046 141.356907,55.2534021 C142.925014,55.6804004 143.584204,54.0559599 144.440854,54.0559599 C145.297504,54.0559599 145.468838,57.3061629 145.468838,58.3325385 C145.468838,59.3589189 145.98283,63.9776258 146.154159,65.3461298 C146.325488,66.7146337 146.325488,71.6754643 146.668151,76.1231094 C146.800651,77.8286167 146.496817,81.7681967 147.010809,84.3341428 C147.524801,86.900089 147.353472,88.9528498 147.696131,90.4924155 C148.038793,92.0319861 147.524801,95.9664363 149.238106,95.9664363 C150.951411,95.9664363 150.780082,94.4268705 151.465403,90.6634773 C152.150724,86.900089 151.122741,86.0447752 151.808062,84.5052046 C152.493383,82.9656389 153.692696,80.7418163 153.350037,78.6890555 C153.007375,76.6362996 152.664716,74.2414152 153.350037,73.2150348 C154.035359,72.1886592 154.378021,69.6227083 154.378021,67.7410141 C154.378021,65.8593199 153.350037,65.6882581 154.549351,63.9776258 C155.748664,62.2669934 155.063342,56.4508443 155.748664,54.3980883 C156.433985,52.3453276 157.633298,51.1478854 157.461969,46.5291833 C157.290635,41.9104763 157.119306,37.6338978 157.804627,36.0943272 C158.489948,34.5547615 158.318619,32.1598771 159.689261,32.6730673 C161.059908,33.1862527 160.888574,33.5283811 161.231237,36.4364556 C161.5739,39.3445302 161.74523,44.6474891 161.916559,46.0159931 C162.087888,47.3844971 162.430551,48.753001 163.115872,49.9504432 C163.801193,51.1478854 165.17184,55.4244687 165.17184,56.7929727 C165.17184,58.1614767 166.371153,61.4116796 166.199819,62.4380552 C166.02849,63.4644356 164.829177,65.6882581 165.685827,67.3988905 C166.542482,69.1095181 166.371153,70.6490887 166.542482,72.0175927 C166.713811,73.3861014 166.88514,76.1231094 167.227803,77.66268 C167.570466,79.2022457 169.626429,81.7681967 170.140421,78.6890555 C170.654413,75.6099192 171.511063,73.2150348 171.682392,70.4780269 C171.853726,67.7410141 171.168405,67.2278239 171.511063,65.0040062 C171.853726,62.7801836 172.367718,61.240613 172.196384,59.5299807 C172.025055,57.8193531 172.539047,53.7138363 172.539047,51.1478854 C172.539047,48.5819392 173.395697,46.5291833 173.73836,45.3317411 C174.081018,44.1342989 174.081018,42.9368567 174.937673,41.2262244 C175.794323,39.515592 176.479644,34.0415713 178.706941,35.7522036 C180.934238,37.462836 188.448572,37.2917694 188.448572,40.7130342 C188.448572,44.1342989 189.890325,45.1153445 190.232988,47.3391671 C190.575646,49.5629897 190.977385,58.5680307 193.614257,57.9904149 C194.246472,57.8519259 195.852937,53.3647283 196.397028,53.2006462 C197.860857,52.7591976 197.860857,48.4108774 199.151458,44.4764225 C200.107077,41.563177 203.026366,39.3445302 201.888112,39.9255723 C203.409735,39.1960841 205.22249,38.83134 207.32638,38.83134 C210.482214,38.83134 208.822238,37.6338978 211.773714,38.83134 C214.72519,40.0287822 213.658348,37.2917694 214.17234,42.0815381 C214.686332,46.8713069 215.371653,52.1742658 216.228308,54.3980883 C217.084958,56.6219109 218.112942,62.6091218 218.798263,65.0040062 C219.483584,67.3988905 221.196889,68.9384563 220.854226,72.7018446 C220.511568,76.4652378 221.710881,77.1494898 221.88221,79.5443741 C222.053539,81.9392585 221.710881,85.531585 223.252852,85.0183948 C224.794828,84.5052046 225.30882,83.3077625 225.480149,79.0311839 C225.651478,74.7546054 226.679462,73.043973 227.022125,71.3333407 C227.364783,69.6227083 226.679462,67.3988905 227.022125,63.9776258 C227.364783,60.556361 227.364783,58.3325385 227.878775,56.4508443 C228.392767,54.5691501 229.934743,49.6083196 229.59208,48.4108774 C229.249417,47.2134353 229.934743,40.884096 229.934743,40.884096 C229.934743,40.884096 231.134056,37.6338978 231.990706,41.568348 C232.847357,45.5028029 231.819377,51.8321422 232.676027,53.8848981 C233.532682,55.9376541 233.87534,58.3325385 234.04667,60.8984894 C234.218003,63.4644356 234.903324,67.9120759 235.931308,66.5435719 C236.959288,65.175068 238.158601,60.0431708 238.158601,57.9904149 C238.158601,55.9376541 237.987272,53.371708 238.672593,51.318952 C239.357914,49.2661912 238.617371,45.967923 239.186585,42.9368567 C240.72856,34.7258233 241.242548,37.462836 245.697142,34.7258233 C250.151731,31.9888105 249.123752,30.6203065 252.89302,32.5020007 C256.662288,34.3836949 258.375593,39.8577204 259.232243,41.568348 C260.088898,43.2789803 260.088898,47.5555589 260.945548,48.9240676 C261.802203,50.2925716 261.802203,55.4244687 262.316195,57.4772247 C262.830182,59.5299807 261.45954,61.7538032 262.487524,63.2933738 C263.515508,64.8329396 264.200829,67.0567621 263.001516,69.6227083 C261.802203,72.1886592 264.372158,79.2022457 265.057479,81.4260683 C265.7428,83.6498909 266.428121,90.4924155 266.770784,92.3741097 C267.113447,94.2558039 266.942113,100.414081 269.16941,99.387701 C271.396707,98.3613206 271.568036,96.1375028 271.568036,93.4004901 C271.568036,90.6634773 270.882715,89.2949734 272.253357,86.3868988 C273.623999,83.4788243 274.137991,76.4652378 273.623999,74.7546054 C273.110012,73.043973 274.480654,73.2150348 274.651983,71.675469 C274.823312,70.1358985 275.165975,66.7146337 276.022625,64.6618778 C276.87928,62.6091218 274.651983,60.8984894 276.193959,59.7010472 C277.73593,58.5036051 279.620564,53.0295844 279.449235,51.318952 C279.277906,49.6083196 280.134556,46.5291833 280.477219,44.4764225 C280.819877,42.4236665 282.533182,33.1862527 282.533182,30.7913683 C282.533182,28.396484 284.417816,22.4092731 287.501768,27.5411702 C290.585715,32.6730673 289.557731,41.0551626 290.071723,42.0815381 C290.585715,43.1079185 292.781301,38.4892116 293.123964,41.2262244 C293.466622,43.9632323 300.554847,31.3045585 302.096823,29.4228644 C303.638799,27.5411702 312.002021,47.2134353 311.659358,44.6474891 C311.316695,42.0815381 310.460045,41.2262244 310.974037,39.3445302 C311.488029,37.462836 311.830687,34.7258233 311.830687,33.3573193 C311.830687,31.9888105 314.229313,23.6067153 314.229313,22.5803397 C314.229313,21.5539593 315.771289,16.0799386 316.799273,19.3301367 C317.827252,22.5803397 316.799273,25.8305378 317.141931,26.8569182 C317.484594,27.8832986 317.31326,37.6338978 317.998586,39.3445302 C318.683907,41.0551626 319.540557,46.1870549 319.540557,48.068749 C319.540557,49.9504432 319.026565,50.1215098 319.369228,52.8585178 C319.711886,55.5955305 320.73987,54.9112785 321.082533,55.9376541 C321.425191,56.9640345 320.73987,61.7538032 322.624504,61.7538032 C324.509138,61.7538032 323.652488,57.3061629 324.16648,56.6219109 C324.680472,55.9376541 325.194464,54.3980883 325.879785,50.9768236 C326.565106,47.5555589 327.079098,48.4108774 327.764419,45.5028029 C328.44974,42.5947283 326.736435,43.1079185 327.59309,40.7130342 C328.44974,38.3181498 328.278411,33.1862527 328.963732,31.6466869 C329.649053,30.1071163 328.792403,29.4228644 329.991716,27.02798 C331.191029,24.6330956 330.848366,23.7777818 332.561671,19.8433269 C334.274976,15.9088768 332.561671,7.18465313 333.418321,4.78976877 C334.274976,2.39488436 333.932313,0 333.932313,0 L116,0.1710618 Z" id="path1381"></path>
                    <path d="M272,0.1710618 C272,0.1710618 272,8.21103351 272.513992,10.4348513 C273.027984,12.6586738 274.569955,16.9352524 275.083947,19.1590749 C275.597939,21.3828975 274.741289,25.659476 276.111931,29.4228644 C277.482573,33.1862527 278.510557,33.8705095 278.339228,37.6338978 C278.167894,41.3972862 278.167894,40.3709058 278.681886,42.0815381 C279.195878,43.7921705 279.538541,50.6347 279.538541,50.6347 C279.795535,52.7729917 282.108496,52.4308633 282.279825,50.8057618 C282.63854,47.4032969 281.937162,44.4764225 282.622483,42.9368567 C283.307804,41.3972862 284.164459,41.2262244 284.84978,38.6602782 C285.535101,36.0943272 286.220422,34.3836949 286.56309,32.6730673 C286.905748,30.9624349 286.734419,29.5939262 287.591074,28.9096742 C288.447724,28.2254222 288.105061,25.4884142 288.276395,24.290972 C288.447724,23.0935299 288.619053,20.6986455 290.161029,20.8697073 C291.703,21.0407691 292.730984,26.6858564 292.730984,30.4492447 C292.730984,34.2126331 293.930297,35.0679517 294.101626,36.9496458 C294.27296,38.83134 294.786952,43.4500469 295.300939,44.9896127 C295.814931,46.5291833 297.014244,47.5555589 296.671586,49.2661912 C296.328923,50.9768236 296.414588,54.9968046 297.356907,55.2534021 C298.925014,55.6804004 299.584204,54.0559599 300.440854,54.0559599 C301.297504,54.0559599 301.468838,57.3061629 301.468838,58.3325385 C301.468838,59.3589189 301.98283,63.9776258 302.154159,65.3461298 C302.325488,66.7146337 302.325488,71.6754643 302.668151,76.1231094 C302.800651,77.8286167 302.496817,81.7681967 303.010809,84.3341428 C303.524801,86.900089 303.353472,88.9528498 303.696131,90.4924155 C304.038793,92.0319861 303.524801,95.9664363 305.238106,95.9664363 C306.951411,95.9664363 306.780082,94.4268705 307.465403,90.6634773 C308.150724,86.900089 307.122741,86.0447752 307.808062,84.5052046 C308.493383,82.9656389 309.692696,80.7418163 309.350037,78.6890555 C309.007375,76.6362996 308.664716,74.2414152 309.350037,73.2150348 C310.035359,72.1886592 310.378021,69.6227083 310.378021,67.7410141 C310.378021,65.8593199 309.350037,65.6882581 310.549351,63.9776258 C311.748664,62.2669934 311.063342,56.4508443 311.748664,54.3980883 C312.433985,52.3453276 313.633298,51.1478854 313.461969,46.5291833 C313.290635,41.9104763 313.119306,37.6338978 313.804627,36.0943272 C314.489948,34.5547615 314.318619,32.1598771 315.689261,32.6730673 C317.059908,33.1862527 316.888574,33.5283811 317.231237,36.4364556 C317.5739,39.3445302 317.74523,44.6474891 317.916559,46.0159931 C318.087888,47.3844971 318.430551,48.753001 319.115872,49.9504432 C319.801193,51.1478854 321.17184,55.4244687 321.17184,56.7929727 C321.17184,58.1614767 322.371153,61.4116796 322.199819,62.4380552 C322.02849,63.4644356 320.829177,65.6882581 321.685827,67.3988905 C322.542482,69.1095181 322.371153,70.6490887 322.542482,72.0175927 C322.713811,73.3861014 322.88514,76.1231094 323.227803,77.66268 C323.570466,79.2022457 325.626429,81.7681967 326.140421,78.6890555 C326.654413,75.6099192 327.511063,73.2150348 327.682392,70.4780269 C327.853726,67.7410141 327.168405,67.2278239 327.511063,65.0040062 C327.853726,62.7801836 328.367718,61.240613 328.196384,59.5299807 C328.025055,57.8193531 328.539047,53.7138363 328.539047,51.1478854 C328.539047,48.5819392 329.395697,46.5291833 329.73836,45.3317411 C330.081018,44.1342989 330.081018,42.9368567 330.937673,41.2262244 C331.794323,39.515592 332.479644,34.0415713 334.706941,35.7522036 C336.934238,37.462836 344.448572,37.2917694 344.448572,40.7130342 C344.448572,44.1342989 345.890325,45.1153445 346.232988,47.3391671 C346.575646,49.5629897 346.977385,58.5680307 349.614257,57.9904149 C350.246472,57.8519259 351.852937,53.3647283 352.397028,53.2006462 C353.860857,52.7591976 353.860857,48.4108774 355.151458,44.4764225 C356.107077,41.563177 359.026366,39.3445302 357.888112,39.9255723 C359.409735,39.1960841 361.22249,38.83134 363.32638,38.83134 C366.482214,38.83134 364.822238,37.6338978 367.773714,38.83134 C370.72519,40.0287822 369.658348,37.2917694 370.17234,42.0815381 C370.686332,46.8713069 371.371653,52.1742658 372.228308,54.3980883 C373.084958,56.6219109 374.112942,62.6091218 374.798263,65.0040062 C375.483584,67.3988905 377.196889,68.9384563 376.854226,72.7018446 C376.511568,76.4652378 377.710881,77.1494898 377.88221,79.5443741 C378.053539,81.9392585 377.710881,85.531585 379.252852,85.0183948 C380.794828,84.5052046 381.30882,83.3077625 381.480149,79.0311839 C381.651478,74.7546054 382.679462,73.043973 383.022125,71.3333407 C383.364783,69.6227083 382.679462,67.3988905 383.022125,63.9776258 C383.364783,60.556361 383.364783,58.3325385 383.878775,56.4508443 C384.392767,54.5691501 385.934743,49.6083196 385.59208,48.4108774 C385.249417,47.2134353 385.934743,40.884096 385.934743,40.884096 C385.934743,40.884096 387.134056,37.6338978 387.990706,41.568348 C388.847357,45.5028029 387.819377,51.8321422 388.676027,53.8848981 C389.532682,55.9376541 389.87534,58.3325385 390.04667,60.8984894 C390.218003,63.4644356 390.903324,67.9120759 391.931308,66.5435719 C392.959288,65.175068 394.158601,60.0431708 394.158601,57.9904149 C394.158601,55.9376541 393.987272,53.371708 394.672593,51.318952 C395.357914,49.2661912 394.617371,45.967923 395.186585,42.9368567 C396.72856,34.7258233 397.242548,37.462836 401.697142,34.7258233 C406.151731,31.9888105 405.123752,30.6203065 408.89302,32.5020007 C412.662288,34.3836949 414.375593,39.8577204 415.232243,41.568348 C416.088898,43.2789803 416.088898,47.5555589 416.945548,48.9240676 C417.802203,50.2925716 417.802203,55.4244687 418.316195,57.4772247 C418.830182,59.5299807 417.45954,61.7538032 418.487524,63.2933738 C419.515508,64.8329396 420.200829,67.0567621 419.001516,69.6227083 C417.802203,72.1886592 420.372158,79.2022457 421.057479,81.4260683 C421.7428,83.6498909 422.428121,90.4924155 422.770784,92.3741097 C423.113447,94.2558039 422.942113,100.414081 425.16941,99.387701 C427.396707,98.3613206 427.568036,96.1375028 427.568036,93.4004901 C427.568036,90.6634773 426.882715,89.2949734 428.253357,86.3868988 C429.623999,83.4788243 430.137991,76.4652378 429.623999,74.7546054 C429.110012,73.043973 430.480654,73.2150348 430.651983,71.675469 C430.823312,70.1358985 431.165975,66.7146337 432.022625,64.6618778 C432.87928,62.6091218 430.651983,60.8984894 432.193959,59.7010472 C433.73593,58.5036051 435.620564,53.0295844 435.449235,51.318952 C435.277906,49.6083196 436.134556,46.5291833 436.477219,44.4764225 C436.819877,42.4236665 438.533182,33.1862527 438.533182,30.7913683 C438.533182,28.396484 440.417816,22.4092731 443.501768,27.5411702 C446.585715,32.6730673 445.557731,41.0551626 446.071723,42.0815381 C446.585715,43.1079185 448.781301,38.4892116 449.123964,41.2262244 C449.466622,43.9632323 459.458024,22.7514015 461,20.8697073 C462.027984,19.6152445 399.027984,12.715696 272,0.1710618 Z" id="path1381"></path>
                    <path d="M243,0.668810593 C243,0.668810593 243,8.7087823 243.513992,10.9326001 C244.027984,13.1564226 245.569955,17.4330012 246.083947,19.6568237 C246.597939,21.8806463 245.741289,26.1572248 247.111931,29.9206132 C248.482573,33.6840015 249.510557,34.3682583 249.339228,38.1316466 C249.167894,41.895035 249.167894,40.8686546 249.681886,42.5792869 C250.195878,44.2899193 250.538541,51.1324488 250.538541,51.1324488 C250.795535,53.2707405 253.108496,52.9286121 253.279825,51.3035106 C253.63854,47.9010457 252.937162,44.9741713 253.622483,43.4346055 C254.307804,41.895035 255.164459,41.7239732 255.84978,39.158027 C256.535101,36.592076 257.220422,34.8814437 257.56309,33.1708161 C257.905748,31.4601837 257.734419,30.091675 258.591074,29.407423 C259.447724,28.723171 259.105061,25.986163 259.276395,24.7887208 C259.447724,23.5912787 259.619053,21.1963943 261.161029,21.3674561 C262.703,21.5385179 263.730984,27.1836052 263.730984,30.9469935 C263.730984,34.7103819 264.930297,35.5657005 265.101626,37.4473946 C265.27296,39.3290888 265.786952,43.9477957 266.300939,45.4873615 C266.814931,47.0269321 268.014244,48.0533077 267.671586,49.76394 C267.328923,51.4745724 267.414588,55.4945534 268.356907,55.7511509 C269.925014,56.1781492 270.584204,54.5537087 271.440854,54.5537087 C272.297504,54.5537087 272.468838,57.8039117 272.468838,58.8302873 C272.468838,59.8566677 272.98283,64.4753746 273.154159,65.8438786 C273.325488,67.2123825 273.325488,72.1732131 273.668151,76.6208582 C273.800651,78.3263655 273.496817,82.2659455 274.010809,84.8318916 C274.524801,87.3978378 274.353472,89.4505986 274.696131,90.9901643 C275.038793,92.5297349 274.524801,96.464185 276.238106,96.464185 C277.951411,96.464185 277.780082,94.9246193 278.465403,91.1612261 C279.150724,87.3978378 278.122741,86.542524 278.808062,85.0029534 C279.493383,83.4633877 280.692696,81.2395651 280.350037,79.1868043 C280.007375,77.1340484 279.664716,74.739164 280.350037,73.7127836 C281.035359,72.686408 281.378021,70.1204571 281.378021,68.2387629 C281.378021,66.3570687 280.350037,66.1860069 281.549351,64.4753746 C282.748664,62.7647422 282.063342,56.9485931 282.748664,54.8958371 C283.433985,52.8430764 284.633298,51.6456342 284.461969,47.0269321 C284.290635,42.4082251 284.119306,38.1316466 284.804627,36.592076 C285.489948,35.0525103 285.318619,32.6576259 286.689261,33.1708161 C288.059908,33.6840015 287.888574,34.0261299 288.231237,36.9342044 C288.5739,39.842279 288.74523,45.1452379 288.916559,46.5137419 C289.087888,47.8822459 289.430551,49.2507498 290.115872,50.448192 C290.801193,51.6456342 292.17184,55.9222175 292.17184,57.2907215 C292.17184,58.6592255 293.371153,61.9094284 293.199819,62.935804 C293.02849,63.9621844 291.829177,66.1860069 292.685827,67.8966393 C293.542482,69.6072669 293.371153,71.1468375 293.542482,72.5153414 C293.713811,73.8838502 293.88514,76.6208582 294.227803,78.1604287 C294.570466,79.6999945 296.626429,82.2659455 297.140421,79.1868043 C297.654413,76.107668 298.511063,73.7127836 298.682392,70.9757757 C298.853726,68.2387629 298.168405,67.7255727 298.511063,65.501755 C298.853726,63.2779324 299.367718,61.7383618 299.196384,60.0277295 C299.025055,58.3171019 299.539047,54.2115851 299.539047,51.6456342 C299.539047,49.079688 300.395697,47.0269321 300.73836,45.8294899 C301.081018,44.6320477 301.081018,43.4346055 301.937673,41.7239732 C302.794323,40.0133408 303.479644,34.5393201 305.706941,36.2499524 C307.934238,37.9605848 315.448572,37.7895182 315.448572,41.210783 C315.448572,44.6320477 316.890325,45.6130933 317.232988,47.8369159 C317.575646,50.0607385 317.977385,59.0657795 320.614257,58.4881637 C321.246472,58.3496747 322.852937,53.8624771 323.397028,53.698395 C324.860857,53.2569464 324.860857,48.9086262 326.151458,44.9741713 C327.107077,42.0609258 330.026366,39.842279 328.888112,40.4233211 C330.409735,39.6938329 332.22249,39.3290888 334.32638,39.3290888 C337.482214,39.3290888 335.822238,38.1316466 338.773714,39.3290888 C341.72519,40.526531 340.658348,37.7895182 341.17234,42.5792869 C341.686332,47.3690557 342.371653,52.6720146 343.228308,54.8958371 C344.084958,57.1196597 345.112942,63.1068706 345.798263,65.501755 C346.483584,67.8966393 348.196889,69.4362051 347.854226,73.1995934 C347.511568,76.9629866 348.710881,77.6472386 348.88221,80.0421229 C349.053539,82.4370073 348.710881,86.0293338 350.252852,85.5161436 C351.794828,85.0029534 352.30882,83.8055113 352.480149,79.5289327 C352.651478,75.2523542 353.679462,73.5417218 354.022125,71.8310895 C354.364783,70.1204571 353.679462,67.8966393 354.022125,64.4753746 C354.364783,61.0541098 354.364783,58.8302873 354.878775,56.9485931 C355.392767,55.0668989 356.934743,50.1060684 356.59208,48.9086262 C356.249417,47.7111841 356.934743,41.3818448 356.934743,41.3818448 C356.934743,41.3818448 358.134056,38.1316466 358.990706,42.0660968 C359.847357,46.0005517 358.819377,52.329891 359.676027,54.3826469 C360.532682,56.4354029 360.87534,58.8302873 361.04667,61.3962382 C361.218003,63.9621844 361.903324,68.4098247 362.931308,67.0413207 C363.959288,65.6728168 365.158601,60.5409196 365.158601,58.4881637 C365.158601,56.4354029 364.987272,53.8694568 365.672593,51.8167008 C366.357914,49.76394 365.617371,46.4656718 366.186585,43.4346055 C367.72856,35.2235721 368.242548,37.9605848 372.697142,35.2235721 C377.151731,32.4865593 376.123752,31.1180553 379.89302,32.9997495 C383.662288,34.8814437 385.375593,40.3554692 386.232243,42.0660968 C387.088898,43.7767291 387.088898,48.0533077 387.945548,49.4218164 C388.802203,50.7903204 388.802203,55.9222175 389.316195,57.9749735 C389.830182,60.0277295 388.45954,62.251552 389.487524,63.7911226 C390.515508,65.3306884 391.200829,67.5545109 390.001516,70.1204571 C388.802203,72.686408 391.372158,79.6999945 392.057479,81.9238171 C392.7428,84.1476396 393.428121,90.9901643 393.770784,92.8718585 C394.113447,94.7535527 393.942113,100.91183 396.16941,99.8854498 C398.396707,98.8590694 398.568036,96.6352516 398.568036,93.8982389 C398.568036,91.1612261 397.882715,89.7927222 399.253357,86.8846476 C400.623999,83.9765731 401.137991,76.9629866 400.623999,75.2523542 C400.110012,73.5417218 401.480654,73.7127836 401.651983,72.1732178 C401.823312,70.6336473 402.165975,67.2123825 403.022625,65.1596266 C403.87928,63.1068706 401.651983,61.3962382 403.193959,60.198796 C404.73593,59.0013539 406.620564,53.5273332 406.449235,51.8167008 C406.277906,50.1060684 407.134556,47.0269321 407.477219,44.9741713 C407.819877,42.9214153 409.533182,33.6840015 409.533182,31.2891171 C409.533182,28.8942328 411.417816,22.9070219 414.501768,28.038919 C417.585715,33.1708161 416.557731,41.5529114 417.071723,42.5792869 C417.585715,43.6056673 419.781301,38.9869604 420.123964,41.7239732 C420.466622,44.4609811 427.554847,31.8023073 429.096823,29.9206132 C430.638799,28.038919 439.002021,47.7111841 438.659358,45.1452379 C438.316695,42.5792869 437.460045,41.7239732 437.974037,39.842279 C438.488029,37.9605848 438.830687,35.2235721 438.830687,33.8550681 C438.830687,32.4865593 441.229313,24.1044641 441.229313,23.0780885 C441.229313,22.0517081 442.771289,16.5776874 443.799273,19.8278855 C444.827252,23.0780885 443.799273,26.3282866 444.141931,27.354667 C444.484594,28.3810474 444.31326,38.1316466 444.998586,39.842279 C445.683907,41.5529114 446.540557,46.6848037 446.540557,48.5664978 C446.540557,50.448192 446.026565,50.6192586 446.369228,53.3562666 C446.711886,56.0932793 447.73987,55.4090273 448.082533,56.4354029 C448.425191,57.4617833 447.73987,62.251552 449.624504,62.251552 C451.509138,62.251552 450.652488,57.8039117 451.16648,57.1196597 C451.680472,56.4354029 452.194464,54.8958371 452.879785,51.4745724 C453.565106,48.0533077 454.079098,48.9086262 454.764419,46.0005517 C455.44974,43.0924771 453.736435,43.6056673 454.59309,41.210783 C455.44974,38.8158986 455.278411,33.6840015 455.963732,32.1444357 C456.649053,30.6048651 455.792403,29.9206132 456.991716,27.5257288 C458.191029,25.1308444 457.848366,24.2755306 459.561671,20.3410757 C461.274976,16.4066256 459.561671,7.68240192 460.418321,5.28751756 C461.274976,2.89263315 460.932313,0.497748793 460.932313,0.497748793 L243,0.668810593 Z" id="path1381" transform="translate(352.000000, 50.248874) scale(-1, 1) translate(-352.000000, -50.248874) "></path>
                </g>
                <rect id="Rectangle" fill="url(#linearGradient-1)" x="0" y="0" width="462" height="360"></rect>
            </g>
        </g>
    </g>
</svg>