<?xml version="1.0" encoding="UTF-8"?>
<svg width="178px" height="134px" version="1.1" xmlns="http://www.w3.org/2000/svg" xmlns:xlink="http://www.w3.org/1999/xlink">
    <!-- Generator: Sketch 51.2 (57519) - http://www.bohemiancoding.com/sketch -->
    <title>Group 3</title>
    <desc>Created with Sketch.</desc>
    <defs></defs>
    <g id="Welcome" stroke="none" stroke-width="1" fill="none" fill-rule="evenodd">
        <g id="Desktop" transform="translate(-305.000000, -776.000000)">
            <g id="Group-20" transform="translate(305.000000, 765.000000)">
                <g id="Group-19" transform="translate(0.000000, 11.000000)">
                    <g id="Group-3">
                        <g id="Group" fill-rule="nonzero">
                            <g transform="translate(6.640625, 103.616279)" id="Rectangle-path">
                                <rect fill="#58595B" x="5.58984375" y="0.277738372" width="5.1375" height="25.8725174"></rect>
                                <rect fill="#414042" x="0.323828125" y="21.9234128" width="15.6699219" height="8.45329651"></rect>
                            </g>
                            <g transform="translate(53.125000, 103.616279)" id="Rectangle-path">
                                <rect fill="#58595B" x="5.60078125" y="0.277738372" width="5.1375" height="25.8725174"></rect>
                                <rect fill="#414042" x="0.334375" y="21.9234128" width="15.6699219" height="8.45329651"></rect>
                            </g>
                            <g id="Rectangle-path">
                                <rect fill="#C4C4C4" x="58.7257812" y="0.0194767442" width="16.1195312" height="116.810605"></rect>
                                <rect fill="#D1D3D4" x="0.349609375" y="0.0194767442" width="58.3761719" height="116.810605"></rect>
                            </g>
                            <rect id="Rectangle-path" fill="#8D8D8E" x="67.2027344" y="9.75356395" width="3.98164062" height="97.3424302"></rect>
                            <rect id="Rectangle-path" fill="#8D8D8E" x="60.7808594" y="9.75356395" width="3.98164063" height="97.3424302"></rect>
                            <rect id="Rectangle-path" fill="#8D8D8E" x="6.08554687" y="3.09329651" width="50.3484375" height="110.662576"></rect>
                            <rect id="Rectangle-path" fill="#D1D3D4" x="6.08554687" y="57.1439884" width="50.3484375" height="2.5615814"></rect>
                            <g transform="translate(7.421875, 6.622093)">
                                <rect id="Rectangle-path" fill="#414042" x="0.285546875" y="0.174901163" width="47.1046875" height="46.972843"></rect>
                                <rect id="Rectangle-path" fill="#F1F2F2" x="2.15585938" y="2.03960465" width="43.3640625" height="43.243436"></rect>
                                <ellipse id="Oval" fill="#58595B" cx="23.8378906" cy="23.6611279" rx="19.0847656" ry="19.0315058"></ellipse>
                                <ellipse id="Oval" fill="#C4C4C4" cx="23.8378906" cy="23.6611279" rx="16.0355469" ry="15.9907965"></ellipse>
                                <g transform="translate(9.375000, 9.348837)">
                                    <ellipse id="Oval" fill="#8D8D8E" cx="14.4628906" cy="14.3122907" rx="14.1203125" ry="14.080907"></ellipse>
                                    <g>
                                        <path d="M26.8308594,12.3914942 L16.3894531,13.5647733 C16.3808594,13.5433488 16.3742187,13.5211453 16.3652344,13.5001105 L24.5785156,6.96838953 C25.3308594,6.21775581 25.3308594,5.00162791 24.5785156,4.25099419 C23.8261719,3.50075 22.6066406,3.50075 21.8542969,4.25099419 L15.3039062,12.4413547 C15.2828125,12.4323953 15.2605469,12.4257733 15.2390625,12.4172035 L16.415625,2.00493605 C16.415625,0.943843023 15.553125,0.08375 14.4890625,0.08375 C13.425,0.08375 12.5625,0.943843023 12.5625,2.00493605 L13.7390625,12.4172035 C13.7171875,12.4257733 13.6953125,12.4323953 13.6738281,12.4413547 L7.12382812,4.25099419 C6.37148437,3.50075 5.1515625,3.50075 4.39921875,4.25138372 C3.646875,5.00162791 3.646875,6.21775581 4.39921875,6.96838953 L12.6125,13.5001105 C12.6035156,13.5215349 12.5964844,13.5433488 12.5882812,13.5647733 L2.146875,12.3914942 C1.0828125,12.3914942 0.2203125,13.2515872 0.2203125,14.3130698 C0.2203125,15.3741628 1.0828125,16.2342558 2.146875,16.2342558 L12.5882812,15.0609767 C12.596875,15.0824012 12.6035156,15.1046047 12.6125,15.1256395 L4.39921875,21.6573605 C3.646875,22.4079942 3.646875,23.6241221 4.39921875,24.3747558 C5.1515625,25.125 6.37148437,25.125 7.12382812,24.3747558 L13.6738281,16.1843953 C13.6953125,16.1933547 13.7171875,16.1999767 13.7390625,16.2085465 L12.5625,26.620814 C12.5625,27.681907 13.425,28.542 14.4890625,28.542 C15.553125,28.542 16.415625,27.681907 16.415625,26.620814 L15.2390625,16.2085465 C15.2605469,16.1999767 15.2828125,16.1933547 15.3039062,16.1843953 L21.8542969,24.3747558 C22.6066406,25.125 23.8261719,25.125 24.5785156,24.3747558 C25.3308594,23.6241221 25.3308594,22.4079942 24.5785156,21.6573605 L16.3652344,15.1256395 C16.3742187,15.1046047 16.38125,15.0824012 16.3894531,15.0609767 L26.8308594,16.2342558 C27.8949219,16.2342558 28.7578125,15.3741628 28.7578125,14.3130698 C28.7574219,13.2515872 27.8945312,12.3914942 26.8308594,12.3914942 Z" id="Shape" fill="#414042"></path>
                                        <ellipse id="Oval" fill="#58595B" cx="14.4886719" cy="14.3122907" rx="2.56835937" ry="2.56119186"></ellipse>
                                    </g>
                                    <path d="M14.4628906,27.3671628 C7.24453125,27.3671628 1.37148437,21.5108953 1.37148437,14.3122907 C1.37148437,7.11407558 7.24414062,1.25780814 14.4628906,1.25780814 C21.6816406,1.25780814 27.5542969,7.11407558 27.5542969,14.3122907 C27.5542969,21.5108953 21.6816406,27.3671628 14.4628906,27.3671628 Z M14.4628906,2.28851744 C7.8140625,2.28851744 2.40507812,7.68279651 2.40507812,14.3122907 C2.40507812,20.942564 7.8140625,26.336064 14.4628906,26.336064 C21.1113281,26.336064 26.5203125,20.9421744 26.5203125,14.3122907 C26.5207031,7.68279651 21.1113281,2.28851744 14.4628906,2.28851744 Z" id="Shape" fill="#F1F2F2"></path>
                                </g>
                                <path d="M23.8378906,32.1720756 C19.1316406,32.1720756 15.303125,28.3542442 15.303125,23.6611279 C15.303125,18.9680116 19.1316406,15.1501802 23.8378906,15.1501802 C28.54375,15.1501802 32.3726563,18.9680116 32.3726563,23.6611279 C32.3726563,28.3542442 28.5441406,32.1720756 23.8378906,32.1720756 Z M23.8378906,16.1812791 C19.7019531,16.1812791 16.3367187,19.5367326 16.3367187,23.6611279 C16.3367187,27.7855233 19.7015625,31.1413663 23.8378906,31.1413663 C27.9738281,31.1413663 31.3386719,27.7855233 31.3386719,23.6611279 C31.3386719,19.5367326 27.9738281,16.1812791 23.8378906,16.1812791 Z" id="Shape" fill="#F1F2F2"></path>
                                <path d="M23.8378906,28.006 C21.4355469,28.006 19.48125,26.057157 19.48125,23.6615174 C19.48125,21.2662674 21.4355469,19.3174244 23.8378906,19.3174244 C26.2398437,19.3174244 28.1941406,21.2662674 28.1941406,23.6615174 C28.1941406,26.057157 26.2398437,28.006 23.8378906,28.006 Z M23.8378906,20.3477442 C22.0058594,20.3477442 20.5148438,21.8338198 20.5148438,23.6611279 C20.5148438,25.488436 22.0054688,26.9749012 23.8378906,26.9749012 C25.6703125,26.9749012 27.1605469,25.488436 27.1605469,23.6611279 C27.1605469,21.8338198 25.6703125,20.3477442 23.8378906,20.3477442 Z" id="Shape" fill="#F1F2F2"></path>
                                <polygon id="Shape" fill="#F1F2F2" points="38.0265625 10.2584012 37.2785156 9.51244186 23.8378906 22.9151686 10.3972656 9.51244186 9.64921875 10.2584012 23.0898437 23.6611279 9.64921875 37.0642442 10.3972656 37.8102035 23.8378906 24.4074767 37.2785156 37.8102035 38.0265625 37.0642442 24.5859375 23.6611279"></polygon>
                            </g>
                            <g transform="translate(7.421875, 62.325581)">
                                <rect id="Rectangle-path" fill="#414042" x="0.285546875" y="0.300331395" width="47.1046875" height="46.972843"></rect>
                                <rect id="Rectangle-path" fill="#F1F2F2" x="2.15585938" y="2.16503488" width="43.3640625" height="43.243436"></rect>
                                <ellipse id="Oval" fill="#58595B" cx="23.8378906" cy="23.7865581" rx="19.0847656" ry="19.0315058"></ellipse>
                                <ellipse id="Oval" fill="#C4C4C4" cx="23.8378906" cy="23.7865581" rx="16.0355469" ry="15.9907965"></ellipse>
                                <g transform="translate(9.375000, 9.348837)">
                                    <ellipse id="Oval" fill="#8D8D8E" cx="14.4628906" cy="14.4377209" rx="14.1203125" ry="14.080907"></ellipse>
                                    <g>
                                        <path d="M26.8308594,12.5165349 L16.3894531,13.6902035 C16.3808594,13.6683895 16.3742187,13.6465756 16.3652344,13.6251512 L24.5785156,7.09343023 C25.3308594,6.34318605 25.3308594,5.1266686 24.5785156,4.37603488 C23.8261719,3.6257907 22.6066406,3.6257907 21.8542969,4.37642442 L15.3039062,12.5663953 C15.2828125,12.557436 15.2605469,12.550814 15.2390625,12.5422442 L16.415625,2.12997674 C16.415625,1.06888372 15.553125,0.208790698 14.4890625,0.208790698 C13.425,0.208790698 12.5625,1.06888372 12.5625,2.12997674 L13.7390625,12.5422442 C13.7171875,12.550814 13.6953125,12.557436 13.6738281,12.5667849 L7.12382812,4.37642442 C6.37148437,3.6257907 5.1515625,3.6257907 4.39921875,4.37642442 C3.646875,5.1266686 3.646875,6.34318605 4.39921875,7.09343023 L12.6125,13.6251512 C12.6035156,13.6465756 12.5964844,13.6683895 12.5882812,13.6902035 L2.146875,12.5165349 C1.0828125,12.5165349 0.2203125,13.3766279 0.2203125,14.4381105 C0.2203125,15.4992035 1.0828125,16.3592965 2.146875,16.3592965 L12.5882812,15.1860174 C12.596875,15.2078314 12.6035156,15.2296453 12.6125,15.2506802 L4.39921875,21.7824012 C3.646875,22.5330349 3.646875,23.7491628 4.39921875,24.4997965 C5.1515625,25.2500407 6.37148437,25.2500407 7.12382812,24.4997965 L13.6738281,16.309436 C13.6953125,16.3183953 13.7171875,16.325407 13.7390625,16.3335872 L12.5625,26.7458547 C12.5625,27.8069477 13.425,28.6670407 14.4890625,28.6670407 C15.553125,28.6670407 16.415625,27.8069477 16.415625,26.7458547 L15.2390625,16.3335872 C15.2605469,16.325407 15.2828125,16.3183953 15.3039062,16.309436 L21.8542969,24.4997965 C22.6066406,25.2500407 23.8261719,25.2500407 24.5785156,24.4997965 C25.3308594,23.7491628 25.3308594,22.5330349 24.5785156,21.7824012 L16.3652344,15.2506802 C16.3742187,15.2296453 16.38125,15.2078314 16.3894531,15.1860174 L26.8308594,16.3592965 C27.8949219,16.3592965 28.7578125,15.4992035 28.7578125,14.4381105 C28.7574219,13.3766279 27.8945312,12.5165349 26.8308594,12.5165349 Z" id="Shape" fill="#414042"></path>
                                        <ellipse id="Oval" fill="#58595B" cx="14.4886719" cy="14.4377209" rx="2.56835937" ry="2.56119186"></ellipse>
                                    </g>
                                    <path d="M14.4628906,27.492593 C7.24453125,27.492593 1.37148437,21.635936 1.37148437,14.4373314 C1.37148437,7.23911628 7.24414062,1.38284884 14.4628906,1.38284884 C21.6816406,1.38284884 27.5542969,7.23911628 27.5542969,14.4373314 C27.5542969,21.635936 21.6816406,27.492593 14.4628906,27.492593 Z M14.4628906,2.41394767 C7.8140625,2.41394767 2.40507812,7.80783721 2.40507812,14.4373314 C2.40507812,21.0676047 7.8140625,26.4614942 14.4628906,26.4614942 C21.1113281,26.4614942 26.5203125,21.0672151 26.5203125,14.4373314 C26.5207031,7.80783721 21.1113281,2.41394767 14.4628906,2.41394767 Z" id="Shape" fill="#F1F2F2"></path>
                                </g>
                                <path d="M23.8378906,32.2975058 C19.1316406,32.2975058 15.303125,28.4792849 15.303125,23.7861686 C15.303125,19.0934419 19.1316406,15.2752209 23.8378906,15.2752209 C28.54375,15.2752209 32.3726563,19.0934419 32.3726563,23.7861686 C32.3726563,28.4792849 28.5441406,32.2975058 23.8378906,32.2975058 Z M23.8378906,16.3063198 C19.7019531,16.3063198 16.3367187,19.6617733 16.3367187,23.7861686 C16.3367187,27.9109535 19.7015625,31.266407 23.8378906,31.266407 C27.9738281,31.266407 31.3386719,27.9109535 31.3386719,23.7861686 C31.3390625,19.6621628 27.9738281,16.3063198 23.8378906,16.3063198 Z" id="Shape" fill="#F1F2F2"></path>
                                <path d="M23.8378906,28.1310407 C21.4355469,28.1310407 19.48125,26.1821977 19.48125,23.7865581 C19.48125,21.3916977 21.4355469,19.4428547 23.8378906,19.4428547 C26.2398437,19.4428547 28.1941406,21.3916977 28.1941406,23.7865581 C28.1941406,26.1821977 26.2398437,28.1310407 23.8378906,28.1310407 Z M23.8378906,20.4731744 C22.0058594,20.4731744 20.5148438,21.95925 20.5148438,23.7865581 C20.5148438,25.6138663 22.0054688,27.1003314 23.8378906,27.1003314 C25.6703125,27.1003314 27.1605469,25.6138663 27.1605469,23.7865581 C27.1605469,21.95925 25.6703125,20.4731744 23.8378906,20.4731744 Z" id="Shape" fill="#F1F2F2"></path>
                                <polygon id="Shape" fill="#F1F2F2" points="38.0265625 10.3834419 37.2785156 9.63748256 23.8378906 23.0402093 10.3972656 9.63748256 9.64921875 10.3834419 23.0898437 23.7865581 9.64921875 37.1896744 10.3972656 37.9360233 23.8378906 24.5325174 37.2785156 37.9360233 38.0265625 37.1896744 24.5859375 23.7865581"></polygon>
                            </g>
                            <ellipse id="Oval" fill="#414042" cx="12.175" cy="11.2521047" rx="1.07695313" ry="1.07394767"></ellipse>
                            <ellipse id="Oval" fill="#414042" cx="50.3445312" cy="11.2521047" rx="1.0765625" ry="1.07355814"></ellipse>
                            <ellipse id="Oval" fill="#414042" cx="12.175" cy="49.3151163" rx="1.07695313" ry="1.07394767"></ellipse>
                            <ellipse id="Oval" fill="#414042" cx="50.3445312" cy="49.3151163" rx="1.0765625" ry="1.07355814"></ellipse>
                            <ellipse id="Oval" fill="#414042" cx="12.175" cy="67.0806337" rx="1.07695313" ry="1.07394767"></ellipse>
                            <ellipse id="Oval" fill="#414042" cx="50.3445312" cy="67.0806337" rx="1.0765625" ry="1.07355814"></ellipse>
                            <ellipse id="Oval" fill="#414042" cx="12.175" cy="105.143645" rx="1.07695313" ry="1.07394767"></ellipse>
                            <ellipse id="Oval" fill="#414042" cx="50.3445312" cy="105.143645" rx="1.0765625" ry="1.07355814"></ellipse>
                        </g>
                        <g id="Group-7" transform="translate(96.000000, 0.000000)">
                            <polygon id="Fill-29" fill="#C4C4C4" points="23 15 41 15 41 0 23 0"></polygon>
                            <polygon id="Fill-30" fill="#7D7C7D" points="32 15 41 15 41 0 32 0"></polygon>
                            <polygon id="Fill-31" fill="#C4C4C4" points="0 53 64 53 64 44 0 44"></polygon>
                            <polygon id="Fill-32" fill="#7D7C7D" points="32 53 64 53 64 44 32 44"></polygon>
                            <polyline id="Fill-33" fill="#C4C4C4" points="23.6499859 18 41.3500141 18 62 41 3 41 23.6499859 18"></polyline>
                            <polyline id="Fill-35" fill="#7D7C7D" points="32 18 32 41 61 41 40.8261349 18 32 18"></polyline>
                        </g>
                        <g id="Group" transform="translate(90.000000, 65.000000)" fill-rule="nonzero">
                            <path d="M87.1799758,25.6369976 L82.5224829,21.4545981 L82.5224829,2.46883219 C82.5224829,1.10766346 81.415319,0 80.0551223,0 L2.46736055,0 C1.1068724,0 0,1.10766346 0,2.46883219 L0,51.5671745 C0,52.9289267 1.1068724,54.0365901 2.46736055,54.0365901 L13.4637895,54.0365901 L13.4637895,54.95376 C11.1354804,55.751616 9.4654061,57.976278 9.4654061,60.5305844 C9.4654061,61.8923365 10.5722785,63 11.9327667,63 L23.8089799,63 C25.1694681,63 26.2763405,61.8923365 26.2763405,60.5305844 C26.2763405,57.976278 24.6062662,55.751616 22.277957,54.95376 L22.277957,54.0365901 L60.7013257,54.0365901 L60.7013257,54.95376 C58.372725,55.751616 56.7029423,57.976278 56.7029423,60.5305844 C56.7029423,61.8923365 57.8098147,63 59.1705944,63 L71.0465161,63 C72.4070042,63 73.5135851,61.8923365 73.5135851,60.5305844 C73.5135851,57.976278 71.8435109,55.751616 69.5154932,54.95376 L69.5154932,54.0365901 L80.0554138,54.0365901 C81.4156105,54.0365901 82.5227744,52.9289267 82.5227744,51.5671745 L82.5227744,48.7955362 L87.1802673,44.6131367 C87.7006168,44.1455084 88,43.4751343 88,42.7750046 L88,35.1249213 L88,27.4748379 C87.9997085,26.7744166 87.7003253,26.1049176 87.1799758,25.6369976 Z" id="Shape" fill="#353535"></path>
                            <g transform="translate(2.000000, 1.000000)" id="Shape">
                                <g transform="translate(9.336564, 40.913446)">
                                    <g transform="translate(4.084747, 0.000000)">
                                        <path d="M0.994344111,18.3803657 C0.738463893,18.3803657 0.531308869,18.1719994 0.531308869,17.9165826 L0.531308869,0.987475248 C0.531308869,0.73147397 0.738463893,0.523399872 0.994344111,0.523399872 L4.87718784,0.523399872 C5.13277629,0.523399872 5.33993132,0.73147397 5.33993132,0.987475248 L5.33993132,17.9165826 C5.33993132,18.1719994 5.13277629,18.3803657 4.87718784,18.3803657 L0.994344111,18.3803657 Z" fill="#6D6E71"></path>
                                        <path d="M4.87718784,0.987475248 L4.87718784,17.9165826 L0.994344111,17.9165826 L0.994344111,0.987475248 L4.87718784,0.987475248 Z M4.87718784,0.0599089748 L0.994344111,0.0599089748 C0.482875441,0.0599089748 0.0682736274,0.475180454 0.0682736274,0.987475248 L0.0682736274,17.9165826 C0.0682736274,18.4288774 0.482875441,18.8435644 0.994344111,18.8435644 L4.87718784,18.8435644 C5.38836474,18.8435644 5.80325833,18.4288774 5.80325833,17.9165826 L5.80325833,0.987475248 C5.80325833,0.475180454 5.38836474,0.0599089748 4.87718784,0.0599089748 Z" fill="#353535"></path>
                                    </g>
                                    <g transform="translate(0.000000, 14.027467)">
                                        <path d="M1.07720612,4.8672389 C0.821617669,4.8672389 0.614170879,4.6591648 0.614170879,4.40345576 C0.614170879,2.25579208 2.35894136,0.508203449 4.5034335,0.508203449 L9.5378841,0.508203449 C11.6820845,0.508203449 13.4268549,2.25579208 13.4268549,4.40345576 C13.4268549,4.6591648 13.2199917,4.8672389 12.9641115,4.8672389 L1.07720612,4.8672389 Z" fill="#58595B"></path>
                                        <path d="M9.53730056,0.971986586 C11.4294137,0.971986586 12.9635279,2.50828649 12.9635279,4.40345576 L1.07691435,4.40345576 C1.07691435,2.50828649 2.61073683,0.971986586 4.50314173,0.971986586 L9.53730056,0.971986586 Z M9.53730056,0.0441280741 L4.50314173,0.0441280741 C2.10306114,0.0441280741 0.150843869,1.9997908 0.150843869,4.40345576 C0.150843869,4.91575056 0.565445683,5.33102204 1.07691435,5.33102204 L12.9635279,5.33102204 C13.4749966,5.33102204 13.8895984,4.91575056 13.8895984,4.40345576 C13.8895984,2.00008304 11.9373812,0.0441280741 9.53730056,0.0441280741 Z" fill="#353535"></path>
                                    </g>
                                </g>
                                <g transform="translate(56.602922, 40.913446)">
                                    <g transform="translate(4.084747, 0.000000)">
                                        <path d="M1.00659835,18.3803657 C0.751009901,18.3803657 0.54356311,18.1719994 0.54356311,17.9165826 L0.54356311,0.987475248 C0.54356311,0.73147397 0.751009901,0.523399872 1.00659835,0.523399872 L4.88944208,0.523399872 C5.14561407,0.523399872 5.35276909,0.73147397 5.35276909,0.987475248 L5.35276909,17.9165826 C5.35276909,18.1719994 5.14561407,18.3803657 4.88944208,18.3803657 L1.00659835,18.3803657 Z" fill="#6D6E71"></path>
                                        <path d="M4.88944208,0.987475248 L4.88944208,17.9165826 L1.00659835,17.9165826 L1.00659835,0.987475248 L4.88944208,0.987475248 Z M4.88944208,0.0599089748 L1.00659835,0.0599089748 C0.49542145,0.0599089748 0.0805278682,0.475180454 0.0805278682,0.987475248 L0.0805278682,17.9165826 C0.0805278682,18.4288774 0.49542145,18.8435644 1.00659835,18.8435644 L4.88944208,18.8435644 C5.40120252,18.8435644 5.81580433,18.4288774 5.81580433,17.9165826 L5.81580433,0.987475248 C5.81580433,0.475180454 5.40120252,0.0599089748 4.88944208,0.0599089748 Z" fill="#353535"></path>
                                    </g>
                                    <g transform="translate(0.000000, 14.027467)">
                                        <path d="M1.08975213,4.8672389 C0.834163678,4.8672389 0.626425119,4.6591648 0.626425119,4.40345576 C0.626425119,2.25579208 2.37090383,0.508203449 4.51597951,0.508203449 L9.55013834,0.508203449 C11.6946305,0.508203449 13.4391092,2.25579208 13.4391092,4.40345576 C13.4391092,4.6591648 13.2316624,4.8672389 12.9763657,4.8672389 L1.08975213,4.8672389 Z" fill="#58595B"></path>
                                        <path d="M9.54984657,0.971986586 C11.4419597,0.971986586 12.9760739,2.50828649 12.9760739,4.40345576 L1.08975213,4.40345576 C1.08975213,2.50828649 2.6235746,0.971986586 4.51539597,0.971986586 L9.54984657,0.971986586 Z M9.54984657,0.0441280741 L4.51539597,0.0441280741 C2.11589891,0.0441280741 0.163389877,1.9997908 0.163389877,4.40345576 C0.163389877,4.91575056 0.577699924,5.33102204 1.08975213,5.33102204 L12.9760739,5.33102204 C13.4872508,5.33102204 13.9018527,4.91575056 13.9018527,4.40345576 C13.9018527,2.00008304 11.9499272,0.0441280741 9.54984657,0.0441280741 Z" fill="#353535"></path>
                                    </g>
                                </g>
                                <g transform="translate(74.108980, 17.242095)">
                                    <path d="M1.06086713,32.7862823 C0.99697002,32.7862823 0.933072907,32.7731316 0.872385239,32.7459534 C0.705785917,32.6714324 0.598123659,32.5051485 0.598123659,32.322207 L0.598123659,0.980753753 C0.598123659,0.798104439 0.705785917,0.632112744 0.872385239,0.557591824 C0.933072907,0.530705845 0.997261788,0.517555094 1.06086713,0.517555094 C1.17261414,0.517555094 1.28377761,0.558176302 1.37072436,0.635911849 L10.2780986,8.64296551 C10.3761325,8.73092942 10.4312766,8.85600767 10.4312766,8.98809965 L10.4312766,24.3154455 C10.4312766,24.4472453 10.3761325,24.5726158 10.2780986,24.6608719 L1.37072436,32.6673411 C1.28348584,32.7456611 1.17261414,32.7862823 1.06086713,32.7862823 Z" fill="#A7A9AC"></path>
                                    <path d="M1.06086713,0.980753753 L9.96853313,8.98809965 L9.96853313,16.6517726 L9.96853313,24.3154455 L1.06086713,32.3224992 L1.06086713,16.6517726 L1.06086713,0.980753753 Z M1.06086713,0.0537719578 C0.933072907,0.0537719578 0.804695146,0.080073459 0.683611577,0.134429895 C0.349537631,0.283471734 0.135088417,0.615455126 0.135088417,0.980753753 L0.135088417,16.6517726 L0.135088417,32.3224992 C0.135088417,32.6883823 0.349537631,33.0206579 0.683611577,33.1691153 C0.804695146,33.2234717 0.933072907,33.2497732 1.06086713,33.2497732 C1.28523645,33.2497732 1.50610455,33.1682386 1.67941453,33.0124752 L10.5867888,25.0057138 C10.7828566,24.829786 10.8946036,24.579045 10.8946036,24.3154455 L10.8946036,16.6517726 L10.8946036,8.98809965 C10.8946036,8.7247924 10.7828566,8.47346694 10.5867888,8.29724689 L1.67941453,0.291069946 C1.50610455,0.135306611 1.28494468,0.0537719578 1.06086713,0.0537719578 Z" fill="#353535"></path>
                                </g>
                                <g>
                                    <path d="M0.940075331,50.8291121 C0.684195112,50.8291121 0.477040089,50.6216225 0.477040089,50.365329 L0.477040089,1.18035292 C0.477040089,0.924059406 0.684195112,0.716277547 0.940075331,0.716277547 L78.5960746,0.716277547 C78.8516631,0.716277547 79.0594016,0.924059406 79.0594016,1.18035292 L79.0594016,50.365329 C79.0594016,50.6216225 78.8516631,50.8291121 78.5960746,50.8291121 L0.940075331,50.8291121 Z" fill="#808285"></path>
                                    <path d="M78.5960746,1.17976844 L78.5960746,50.365329 L0.940075331,50.365329 L0.940075331,1.17976844 L78.5960746,1.17976844 Z M78.5960746,0.252494411 L0.940075331,0.252494411 C0.428606661,0.252494411 0.013713079,0.667765889 0.013713079,1.17976844 L0.013713079,50.365329 C0.013713079,50.8776238 0.428314893,51.2931875 0.940075331,51.2931875 L78.5960746,51.2931875 C79.1072515,51.2931875 79.5221451,50.8776238 79.5221451,50.365329 L79.5221451,1.17976844 C79.5221451,0.667765889 79.1072515,0.252494411 78.5960746,0.252494411 Z" fill="#353535"></path>
                                </g>
                                <g transform="translate(53.101710, 22.794634)">
                                    <path d="M1.16998823,5.38654743 C0.914399778,5.38654743 0.70666122,5.17905781 0.70666122,4.92276429 L0.70666122,1.03306452 C0.70666122,0.777355477 0.914399778,0.569573619 1.16998823,0.569573619 L19.8985529,0.569573619 C20.1538496,0.569573619 20.3615882,0.777355477 20.3615882,1.03306452 L20.3615882,4.92276429 C20.3615882,5.17905781 20.1538496,5.38654743 19.8985529,5.38654743 L1.16998823,5.38654743 Z" fill="#D1D3D4"></path>
                                    <path d="M19.8985529,1.03306452 L19.8985529,4.92276429 L1.16998823,4.92276429 L1.16998823,1.03306452 L19.8985529,1.03306452 Z M19.8985529,0.106082721 L1.16998823,0.106082721 C0.657936024,0.106082721 0.243625978,0.5213542 0.243625978,1.03306452 L0.243625978,4.92276429 C0.243625978,5.43505909 0.657936024,5.85033057 1.16998823,5.85033057 L19.8985529,5.85033057 C20.4097298,5.85033057 20.8243316,5.43505909 20.8243316,4.92276429 L20.8243316,1.03306452 C20.8243316,0.5213542 20.4097298,0.106082721 19.8985529,0.106082721 Z" fill="#353535"></path>
                                </g>
                                <g transform="translate(53.101710, 14.611945)">
                                    <path d="M1.16998823,5.44762536 C0.914399778,5.44762536 0.70666122,5.24013574 0.70666122,4.98413446 L0.70666122,1.09501916 C0.70666122,0.838725647 0.914399778,0.631236027 1.16998823,0.631236027 L19.8985529,0.631236027 C20.1538496,0.631236027 20.3615882,0.838725647 20.3615882,1.09501916 L20.3615882,4.98413446 C20.3615882,5.24013574 20.1538496,5.44762536 19.8985529,5.44762536 L1.16998823,5.44762536 Z" fill="#D1D3D4"></path>
                                    <path d="M19.8985529,1.09472692 L19.8985529,4.98413446 L1.16998823,4.98413446 L1.16998823,1.09472692 L19.8985529,1.09472692 Z M19.8985529,0.167160652 L1.16998823,0.167160652 C0.657936024,0.167160652 0.243625978,0.582724369 0.243625978,1.09472692 L0.243625978,4.98413446 C0.243625978,5.49672149 0.657936024,5.9114085 1.16998823,5.9114085 L19.8985529,5.9114085 C20.4097298,5.9114085 20.8243316,5.49672149 20.8243316,4.98413446 L20.8243316,1.09472692 C20.8243316,0.582724369 20.4097298,0.167160652 19.8985529,0.167160652 Z" fill="#353535"></path>
                                </g>
                                <g transform="translate(53.101710, 6.429256)">
                                    <path d="M1.16998823,5.50928777 C0.914399778,5.50928777 0.70666122,5.30150591 0.70666122,5.04521239 L0.70666122,1.15638933 C0.70666122,0.900095816 0.914399778,0.692606196 1.16998823,0.692606196 L19.8985529,0.692606196 C20.1538496,0.692606196 20.3615882,0.900095816 20.3615882,1.15638933 L20.3615882,5.04521239 C20.3615882,5.30150591 20.1538496,5.50928777 19.8985529,5.50928777 L1.16998823,5.50928777 Z" fill="#D1D3D4"></path>
                                    <path d="M19.8985529,1.15638933 L19.8985529,5.04579687 L1.16998823,5.04579687 L1.16998823,1.15638933 L19.8985529,1.15638933 Z M19.8985529,0.228530821 L1.16998823,0.228530821 C0.657936024,0.228530821 0.243625978,0.6438023 0.243625978,1.15638933 L0.243625978,5.04579687 C0.243625978,5.55779943 0.657936024,5.9730709 1.16998823,5.9730709 L19.8985529,5.9730709 C20.4097298,5.9730709 20.8243316,5.55779943 20.8243316,5.04579687 L20.8243316,1.15638933 C20.8243316,0.6438023 20.4097298,0.228530821 19.8985529,0.228530821 Z" fill="#353535"></path>
                                </g>
                                <g transform="translate(53.101710, 30.977324)">
                                    <path d="M1.16998823,5.32488502 C0.914399778,5.32488502 0.70666122,5.11768764 0.70666122,4.86110188 L0.70666122,0.971986586 C0.70666122,0.715693069 0.914399778,0.508203449 1.16998823,0.508203449 L19.8985529,0.508203449 C20.1538496,0.508203449 20.3615882,0.715693069 20.3615882,0.971986586 L20.3615882,4.86110188 C20.3615882,5.11768764 20.1538496,5.32488502 19.8985529,5.32488502 L1.16998823,5.32488502 Z" fill="#D1D3D4"></path>
                                    <path d="M19.8985529,0.972278825 L19.8985529,4.86110188 L1.16998823,4.86110188 L1.16998823,0.972278825 L19.8985529,0.972278825 Z M19.8985529,0.0441280741 L1.16998823,0.0441280741 C0.657936024,0.0441280741 0.243625978,0.459984031 0.243625978,0.972278825 L0.243625978,4.86110188 C0.243625978,5.37339668 0.657936024,5.78925263 1.16998823,5.78925263 L19.8985529,5.78925263 C20.4097298,5.78925263 20.8243316,5.37339668 20.8243316,4.86110188 L20.8243316,0.972278825 C20.8243316,0.459984031 20.4097298,0.0441280741 19.8985529,0.0441280741 Z" fill="#353535"></path>
                                </g>
                                <g transform="translate(53.101710, 38.867774)">
                                    <path d="M1.16998823,5.55575375 C0.914399778,5.55575375 0.70666122,5.34797189 0.70666122,5.09226286 L0.70666122,1.20314756 C0.70666122,0.94685404 0.914399778,0.739072181 1.16998823,0.739072181 L19.8985529,0.739072181 C20.1538496,0.739072181 20.3615882,0.94685404 20.3615882,1.20314756 L20.3615882,5.09226286 C20.3615882,5.34797189 20.1538496,5.55575375 19.8985529,5.55575375 L1.16998823,5.55575375 Z" fill="#D1D3D4"></path>
                                    <path d="M19.8985529,1.20314756 L19.8985529,5.09226286 L1.16998823,5.09226286 L1.16998823,1.20314756 L19.8985529,1.20314756 Z M19.8985529,0.275289045 L1.16998823,0.275289045 C0.657936024,0.275289045 0.243625978,0.690560524 0.243625978,1.20314756 L0.243625978,5.09226286 C0.243625978,5.60426541 0.657936024,6.01953689 1.16998823,6.01953689 L19.8985529,6.01953689 C20.4097298,6.01953689 20.8243316,5.60426541 20.8243316,5.09226286 L20.8243316,1.20314756 C20.8243316,0.690560524 20.4097298,0.275289045 19.8985529,0.275289045 Z" fill="#353535"></path>
                                </g>
                                <g transform="translate(4.376515, 2.630150)">
                                    <g fill="#353535">
                                        <path d="M1.1314749,45.5679352 C0.875594683,45.5679352 0.668439659,45.3604455 0.668439659,45.1044443 L0.668439659,1.18064516 C0.668439659,0.924936123 0.875594683,0.716862025 1.1314749,0.716862025 L44.9841509,0.716862025 C45.2400312,0.716862025 45.4474779,0.924936123 45.4474779,1.18064516 L45.4474779,45.1044443 C45.4474779,45.3604455 45.2400312,45.5679352 44.9841509,45.5679352 L1.1314749,45.5679352 Z"></path>
                                        <path d="M44.9844427,1.18064516 L44.9844427,45.1047365 L1.1314749,45.1047365 L1.1314749,1.18064516 L44.9844427,1.18064516 Z M44.9844427,0.253371127 L1.1314749,0.253371127 C0.620297999,0.253371127 0.205404417,0.668350367 0.205404417,1.18064516 L0.205404417,45.1047365 C0.205404417,45.6164468 0.620297999,46.0323028 1.1314749,46.0323028 L44.9844427,46.0323028 C45.4959114,46.0323028 45.910805,45.6164468 45.910805,45.1047365 L45.910805,1.18064516 C45.910805,0.668350367 45.4959114,0.253371127 44.9844427,0.253371127 Z"></path>
                                    </g>
                                    <g transform="translate(2.625909, 2.630150)">
                                        <path d="M20.4319042,40.3073427 C9.53467465,40.3073427 0.669314962,31.4273714 0.669314962,20.5122485 C0.669314962,9.59741776 9.53467465,0.718030981 20.4319042,0.718030981 C31.3291337,0.718030981 40.1950769,9.59771 40.1950769,20.5122485 C40.1950769,31.4273714 31.3288419,40.3073427 20.4319042,40.3073427 Z" fill="#58595B"></path>
                                        <path d="M20.4319042,1.18152188 C31.0907595,1.18152188 39.7317499,9.8358847 39.7317499,20.5119562 C39.7317499,31.1886123 31.0907595,39.8432673 20.4319042,39.8432673 C9.77275704,39.8432673 1.13205844,31.1886123 1.13205844,20.5119562 C1.13205844,9.8358847 9.77304881,1.18152188 20.4319042,1.18152188 Z M20.4319042,0.253955605 C9.2790862,0.253955605 0.205987953,9.34170872 0.205987953,20.5119562 C0.205987953,31.6830805 9.2790862,40.7705414 20.4319042,40.7705414 C31.5841386,40.7705414 40.6575286,31.6827882 40.6575286,20.5119562 C40.6578204,9.34170872 31.5841386,0.253955605 20.4319042,0.253955605 Z" fill="#353535"></path>
                                    </g>
                                    <g transform="translate(5.835353, 5.844778)">
                                        <path d="M17.2224602,34.0043341 C8.02565243,34.0043341 0.542979575,26.5095752 0.542979575,17.2973283 C0.542979575,8.08566592 8.02536066,0.591199297 17.2224602,0.591199297 C26.4195596,0.591199297 33.9019407,8.08566592 33.9019407,17.2973283 C33.901649,26.5098675 26.4195596,34.0043341 17.2224602,34.0043341 Z" fill="#E6E7E8"></path>
                                        <path d="M17.2224602,1.05527467 C26.1782678,1.05527467 33.4389055,8.32734749 33.4389055,17.2973283 C33.4389055,26.2681859 26.1785596,33.5405509 17.2224602,33.5405509 C8.26636073,33.5405509 1.00572305,26.2681859 1.00572305,17.2973283 C1.00601482,8.32734749 8.26636073,1.05527467 17.2224602,1.05527467 Z M17.2224602,0.1277084 C7.77006398,0.1277084 0.0799443329,7.82995688 0.0799443329,17.2976206 C0.0799443329,26.7652843 7.76977221,34.4681172 17.2224602,34.4681172 C26.6745646,34.4681172 34.364976,26.7655765 34.364976,17.2976206 C34.364976,7.82995688 26.6748563,0.1277084 17.2224602,0.1277084 Z" fill="#353535"></path>
                                    </g>
                                    <g transform="translate(9.336564, 9.351645)">
                                        <path d="M13.7212485,26.9914772 C6.45448369,26.9914772 0.54239604,21.0695481 0.54239604,13.7904615 C0.54239604,6.51195944 6.45448369,0.590030342 13.7212485,0.590030342 C20.9883051,0.590030342 26.9006845,6.51195944 26.9006845,13.7904615 C26.9006845,21.0698403 20.9883051,26.9914772 13.7212485,26.9914772 Z" fill="#58595B"></path>
                                        <path d="M13.7212485,1.05410572 C20.7440955,1.05410572 26.4373575,6.75627116 26.4373575,13.7904615 C26.4373575,20.8252363 20.7440955,26.5274018 13.7212485,26.5274018 C6.69810967,26.5274018 1.00513951,20.8252363 1.00513951,13.7904615 C1.00513951,6.75627116 6.69840144,1.05410572 13.7212485,1.05410572 Z M13.7212485,0.126831683 C6.19860348,0.126831683 0.07906903,6.25683488 0.07906903,13.7907538 C0.07906903,21.3255493 6.19889524,27.4555525 13.7212485,27.4555525 C21.2436017,27.4555525 27.3631362,21.3255493 27.3631362,13.7907538 C27.363428,6.25654264 21.2436017,0.126831683 13.7212485,0.126831683 Z" fill="#353535"></path>
                                    </g>
                                    <g transform="translate(14.004847, 14.027467)">
                                        <path d="M9.05296628,17.7000335 C4.32691408,17.7000335 0.481708371,13.8486171 0.481708371,9.11463909 C0.481708371,4.38124561 4.32691408,0.530121367 9.05296628,0.530121367 C13.7793103,0.530121367 17.6239324,4.38124561 17.6239324,9.11463909 C17.6239324,13.8489093 13.7793103,17.7000335 9.05296628,17.7000335 Z" fill="#E6E7E8"></path>
                                        <path d="M9.05296628,0.993904503 C13.531016,0.993904503 17.1611889,4.62935644 17.1611889,9.11463909 C17.1611889,13.6005062 13.531016,17.2362504 9.05296628,17.2362504 C4.57491657,17.2362504 0.944743613,13.6005062 0.944743613,9.11463909 C0.944743613,4.62964867 4.57520834,0.993904503 9.05296628,0.993904503 Z M9.05296628,0.0660459917 C4.07132562,0.0660459917 0.0186731289,4.12582881 0.0186731289,9.11493133 C0.0186731289,14.1046183 4.07132562,18.1641089 9.05296628,18.1641089 C14.0343152,18.1641089 18.0869677,14.1046183 18.0869677,9.11493133 C18.0872594,4.12553657 14.0346069,0.0660459917 9.05296628,0.0660459917 Z" fill="#353535"></path>
                                    </g>
                                    <g transform="translate(18.089594, 18.118812)">
                                        <path d="M4.96821935,9.37677739 C2.5722235,9.37677739 0.622340372,7.42403705 0.622340372,5.02358671 C0.622340372,2.62342862 2.57193173,0.670688279 4.96821935,0.670688279 C7.36450696,0.670688279 9.31439009,2.62342862 9.31439009,5.02358671 C9.31409832,7.42403705 7.36450696,9.37677739 4.96821935,9.37677739 Z" fill="#58595B"></path>
                                        <path d="M4.96821935,1.13505589 C7.11271149,1.13505589 8.85106308,2.87592303 8.85106308,5.02358671 C8.85106308,7.17183488 7.11271149,8.91328649 4.96821935,8.91328649 C2.8237272,8.91328649 1.08508385,7.17183488 1.08508385,5.02358671 C1.08537561,2.87592303 2.8237272,1.13505589 4.96821935,1.13505589 Z M4.96821935,0.207197381 C2.31663505,0.207197381 0.159013363,2.36801182 0.159013363,5.02329447 C0.159013363,7.67974609 2.31663505,9.83997605 4.96821935,9.83997605 C7.61980364,9.83997605 9.77684179,7.67945385 9.77684179,5.02329447 C9.77713356,2.36801182 7.61980364,0.207197381 4.96821935,0.207197381 Z" fill="#353535"></path>
                                    </g>
                                    <g transform="translate(8.753029, 8.767167)">
                                        <g>
                                            <path d="M0.657644257,0.706049186 L27.9516315,28.0447062" fill="#FFFFFF"></path>
                                            <path d="M27.9516315,28.5084893 C27.8331739,28.5084893 27.7147162,28.4631923 27.6239765,28.3725982 L0.330280967,1.03423347 C0.149385031,0.853045353 0.149385031,0.559345257 0.330280967,0.378157138 C0.51146867,0.197261258 0.804403379,0.197261258 0.985299315,0.378157138 L28.2792866,27.7168141 C28.4598907,27.89771 28.4598907,28.1914101 28.2792866,28.3725982 C28.1888386,28.4629 28.0700892,28.5084893 27.9516315,28.5084893 Z" fill="#353535"></path>
                                        </g>
                                        <g>
                                            <path d="M27.9516315,0.706049186 L0.657644257,28.0447062" fill="#FFFFFF"></path>
                                            <path d="M0.657644257,28.5084893 C0.539186596,28.5084893 0.420728934,28.4631923 0.330280967,28.3725982 C0.149385031,28.1914101 0.149385031,27.89771 0.330280967,27.7168141 L27.6239765,0.378157138 C27.8051642,0.197261258 28.0980989,0.197261258 28.2789948,0.378157138 C28.459599,0.559345257 28.459599,0.853045353 28.2789948,1.03423347 L0.985007547,28.3725982 C0.894851347,28.4629 0.776101918,28.5084893 0.657644257,28.5084893 Z" fill="#353535"></path>
                                        </g>
                                    </g>
                                </g>
                            </g>
                        </g>
                    </g>
                </g>
            </g>
        </g>
    </g>
</svg>