<?xml version="1.0" encoding="UTF-8"?>
<svg width="283px" height="214px" viewBox="0 0 283 214" version="1.1" xmlns="http://www.w3.org/2000/svg" xmlns:xlink="http://www.w3.org/1999/xlink">
    <!-- Generator: Sketch 51.2 (57519) - http://www.bohemiancoding.com/sketch -->
    <title>Group 3</title>
    <desc>Created with Sketch.</desc>
    <defs></defs>
    <g id="Welcome" stroke="none" stroke-width="1" fill="none" fill-rule="evenodd">
        <g id="Desktop-Copy" transform="translate(-130.000000, -570.000000)">
            <g id="Group-16" transform="translate(106.000000, 555.000000)">
                <g id="Group-13" transform="translate(24.000000, 0.000000)">
                    <g id="Group-3" transform="translate(0.000000, 15.000000)">
                        <g id="Group" fill-rule="nonzero">
                            <g transform="translate(10.536458, 165.018519)" id="Rectangle-path">
                                <rect fill="#58595B" x="8.86921875" y="0.442324074" width="8.1515" height="41.2043796"></rect>
                                <rect fill="#414042" x="0.513807292" y="34.9150648" width="24.8629427" height="13.4626574"></rect>
                            </g>
                            <g transform="translate(84.291667, 165.018519)" id="Rectangle-path">
                                <rect fill="#58595B" x="8.88657292" y="0.442324074" width="8.1515" height="41.2043796"></rect>
                                <rect fill="#414042" x="0.530541667" y="34.9150648" width="24.8629427" height="13.4626574"></rect>
                            </g>
                            <g id="Rectangle-path">
                                <rect fill="#C4C4C4" x="93.1782396" y="0.0310185185" width="25.5763229" height="186.031704"></rect>
                                <rect fill="#D1D3D4" x="0.554713542" y="0.0310185185" width="92.623526" height="186.031704"></rect>
                            </g>
                            <rect id="Rectangle-path" fill="#8D8D8E" x="106.628339" y="15.5334537" width="6.31753646" height="155.026833"></rect>
                            <rect id="Rectangle-path" fill="#8D8D8E" x="96.4389635" y="15.5334537" width="6.31753646" height="155.026833"></rect>
                            <rect id="Rectangle-path" fill="#8D8D8E" x="9.65573437" y="4.92636111" width="79.8861875" height="176.240398"></rect>
                            <rect id="Rectangle-path" fill="#D1D3D4" x="9.65573437" y="91.0070926" width="79.8861875" height="4.07955556"></rect>
                            <g transform="translate(11.776042, 10.546296)">
                                <rect id="Rectangle-path" fill="#414042" x="0.453067708" y="0.278546296" width="74.7394375" height="74.8086019"></rect>
                                <rect id="Rectangle-path" fill="#F1F2F2" x="3.42063021" y="3.24825926" width="68.8043125" height="68.8691759"></rect>
                                <ellipse id="Oval" fill="#58595B" cx="37.8227865" cy="37.682537" rx="30.2811615" ry="30.3094352"></ellipse>
                                <ellipse id="Oval" fill="#C4C4C4" cx="37.8227865" cy="37.682537" rx="25.4430677" ry="25.4668241"></ellipse>
                                <g transform="translate(14.875000, 14.888889)">
                                    <ellipse id="Oval" fill="#8D8D8E" cx="22.9477865" cy="22.7936481" rx="22.4042292" ry="22.4251481"></ellipse>
                                    <g>
                                        <path d="M42.5716302,19.7346019 L26.004599,21.6031574 C25.9909635,21.569037 25.9804271,21.5336759 25.9661719,21.5001759 L38.9979115,11.0978056 C40.1916302,9.90235185 40.1916302,7.96555556 38.9979115,6.77010185 C37.8041927,5.57526852 35.8692031,5.57526852 34.6754844,6.77010185 L24.2821979,19.8140093 C24.2487292,19.7997407 24.213401,19.7891944 24.1793125,19.7755463 L26.046125,3.1930463 C26.046125,1.50315741 24.677625,0.13337963 22.9893125,0.13337963 C21.301,0.13337963 19.9325,1.50315741 19.9325,3.1930463 L21.7993125,19.7755463 C21.7646042,19.7891944 21.7298958,19.7997407 21.6958073,19.8140093 L11.3031406,6.77010185 C10.1094219,5.57526852 8.1738125,5.57526852 6.98009375,6.77072222 C5.786375,7.96555556 5.786375,9.90235185 6.98009375,11.0978056 L20.0118333,21.5001759 C19.9975781,21.5342963 19.9864219,21.569037 19.9734062,21.6031574 L3.406375,19.7346019 C1.7180625,19.7346019 0.3495625,21.1043796 0.3495625,22.7948889 C0.3495625,24.4847778 1.7180625,25.8545556 3.406375,25.8545556 L19.9734062,23.986 C19.9870417,24.0201204 19.9975781,24.0554815 20.0118333,24.0889815 L6.98009375,34.4913519 C5.786375,35.6868056 5.786375,37.6236019 6.98009375,38.8190556 C8.1738125,40.0138889 10.1094219,40.0138889 11.3031406,38.8190556 L21.6958073,25.7751481 C21.7298958,25.7894167 21.7646042,25.799963 21.7993125,25.8136111 L19.9325,42.3961111 C19.9325,44.086 21.301,45.4557778 22.9893125,45.4557778 C24.677625,45.4557778 26.046125,44.086 26.046125,42.3961111 L24.1793125,25.8136111 C24.213401,25.799963 24.2487292,25.7894167 24.2821979,25.7751481 L34.6754844,38.8190556 C35.8692031,40.0138889 37.8041927,40.0138889 38.9979115,38.8190556 C40.1916302,37.6236019 40.1916302,35.6868056 38.9979115,34.4913519 L25.9661719,24.0889815 C25.9804271,24.0554815 25.9915833,24.0201204 26.004599,23.986 L42.5716302,25.8545556 C44.2599427,25.8545556 45.6290625,24.4847778 45.6290625,22.7948889 C45.6284427,21.1043796 44.2593229,19.7346019 42.5716302,19.7346019 Z" id="Shape" fill="#414042"></path>
                                        <ellipse id="Oval" fill="#58595B" cx="22.9886927" cy="22.7936481" rx="4.07513021" ry="4.07893519"></ellipse>
                                    </g>
                                    <path d="M22.9477865,43.5847407 C11.4946562,43.5847407 2.17608854,34.2580926 2.17608854,22.7936481 C2.17608854,11.3298241 11.4940365,2.00317593 22.9477865,2.00317593 C34.4015365,2.00317593 43.7194844,11.3298241 43.7194844,22.7936481 C43.7194844,34.2580926 34.4015365,43.5847407 22.9477865,43.5847407 Z M22.9477865,3.64467593 C12.3983125,3.64467593 3.81605729,12.2355648 3.81605729,22.7936481 C3.81605729,33.3529722 12.3983125,41.9426204 22.9477865,41.9426204 C33.4966406,41.9426204 42.0788958,33.3523519 42.0788958,22.7936481 C42.0795156,12.2355648 33.4966406,3.64467593 22.9477865,3.64467593 Z" id="Shape" fill="#F1F2F2"></path>
                                </g>
                                <path d="M37.8227865,51.2370093 C30.3555365,51.2370093 24.2809583,45.1567593 24.2809583,37.682537 C24.2809583,30.2083148 30.3555365,24.1280648 37.8227865,24.1280648 C45.2894167,24.1280648 51.3646146,30.2083148 51.3646146,37.682537 C51.3646146,45.1567593 45.2900365,51.2370093 37.8227865,51.2370093 Z M37.8227865,25.7701852 C31.2604323,25.7701852 25.9209271,31.1140556 25.9209271,37.682537 C25.9209271,44.2510185 31.2598125,49.5955093 37.8227865,49.5955093 C44.3851406,49.5955093 49.724026,44.2510185 49.724026,37.682537 C49.724026,31.1140556 44.3851406,25.7701852 37.8227865,25.7701852 Z" id="Shape" fill="#F1F2F2"></path>
                                <path d="M37.8227865,44.6021481 C34.0110677,44.6021481 30.91025,41.4984352 30.91025,37.6831574 C30.91025,33.8685 34.0110677,30.764787 37.8227865,30.764787 C41.6338854,30.764787 44.7347031,33.8685 44.7347031,37.6831574 C44.7347031,41.4984352 41.6338854,44.6021481 37.8227865,44.6021481 Z M37.8227865,32.4056667 C34.9159635,32.4056667 32.5502188,34.7723796 32.5502188,37.682537 C32.5502188,40.5926944 34.9153438,42.9600278 37.8227865,42.9600278 C40.7302292,42.9600278 43.0947344,40.5926944 43.0947344,37.682537 C43.0947344,34.7723796 40.7302292,32.4056667 37.8227865,32.4056667 Z" id="Shape" fill="#F1F2F2"></path>
                                <polygon id="Shape" fill="#F1F2F2" points="60.3354792 16.3374537 59.1485781 15.1494444 37.8227865 36.4945278 16.4969948 15.1494444 15.3100938 16.3374537 36.6358854 37.682537 15.3100938 59.0282407 16.4969948 60.21625 37.8227865 38.8711667 59.1485781 60.21625 60.3354792 59.0282407 39.0096875 37.682537"></polygon>
                            </g>
                            <g transform="translate(11.776042, 99.259259)">
                                <rect id="Rectangle-path" fill="#414042" x="0.453067708" y="0.478305556" width="74.7394375" height="74.8086019"></rect>
                                <rect id="Rectangle-path" fill="#F1F2F2" x="3.42063021" y="3.44801852" width="68.8043125" height="68.8691759"></rect>
                                <ellipse id="Oval" fill="#58595B" cx="37.8227865" cy="37.8822963" rx="30.2811615" ry="30.3094352"></ellipse>
                                <ellipse id="Oval" fill="#C4C4C4" cx="37.8227865" cy="37.8822963" rx="25.4430677" ry="25.4668241"></ellipse>
                                <g transform="translate(14.875000, 14.888889)">
                                    <ellipse id="Oval" fill="#8D8D8E" cx="22.9477865" cy="22.9934074" rx="22.4042292" ry="22.4251481"></ellipse>
                                    <g>
                                        <path d="M42.5716302,19.9337407 L26.004599,21.8029167 C25.9909635,21.7681759 25.9804271,21.7334352 25.9661719,21.6993148 L38.9979115,11.2969444 C40.1916302,10.1021111 40.1916302,8.16469444 38.9979115,6.96924074 C37.8041927,5.77440741 35.8692031,5.77440741 34.6754844,6.96986111 L24.2821979,20.0131481 C24.2487292,19.9988796 24.213401,19.9883333 24.1793125,19.9746852 L26.046125,3.39218519 C26.046125,1.7022963 24.677625,0.332518519 22.9893125,0.332518519 C21.301,0.332518519 19.9325,1.7022963 19.9325,3.39218519 L21.7993125,19.9746852 C21.7646042,19.9883333 21.7298958,19.9988796 21.6958073,20.0137685 L11.3031406,6.96986111 C10.1094219,5.77440741 8.1738125,5.77440741 6.98009375,6.96986111 C5.786375,8.16469444 5.786375,10.1021111 6.98009375,11.2969444 L20.0118333,21.6993148 C19.9975781,21.7334352 19.9864219,21.7681759 19.9734062,21.8029167 L3.406375,19.9337407 C1.7180625,19.9337407 0.3495625,21.3035185 0.3495625,22.9940278 C0.3495625,24.6839167 1.7180625,26.0536944 3.406375,26.0536944 L19.9734062,24.1851389 C19.9870417,24.2198796 19.9975781,24.2546204 20.0118333,24.2881204 L6.98009375,34.6904907 C5.786375,35.8859444 5.786375,37.8227407 6.98009375,39.0181944 C8.1738125,40.2130278 10.1094219,40.2130278 11.3031406,39.0181944 L21.6958073,25.974287 C21.7298958,25.9885556 21.7646042,25.9997222 21.7993125,26.01275 L19.9325,42.59525 C19.9325,44.2851389 21.301,45.6549167 22.9893125,45.6549167 C24.677625,45.6549167 26.046125,44.2851389 26.046125,42.59525 L24.1793125,26.01275 C24.213401,25.9997222 24.2487292,25.9885556 24.2821979,25.974287 L34.6754844,39.0181944 C35.8692031,40.2130278 37.8041927,40.2130278 38.9979115,39.0181944 C40.1916302,37.8227407 40.1916302,35.8859444 38.9979115,34.6904907 L25.9661719,24.2881204 C25.9804271,24.2546204 25.9915833,24.2198796 26.004599,24.1851389 L42.5716302,26.0536944 C44.2599427,26.0536944 45.6290625,24.6839167 45.6290625,22.9940278 C45.6284427,21.3035185 44.2593229,19.9337407 42.5716302,19.9337407 Z" id="Shape" fill="#414042"></path>
                                        <ellipse id="Oval" fill="#58595B" cx="22.9886927" cy="22.9934074" rx="4.07513021" ry="4.07893519"></ellipse>
                                    </g>
                                    <path d="M22.9477865,43.7845 C11.4946562,43.7845 2.17608854,34.4572315 2.17608854,22.992787 C2.17608854,11.528963 11.4940365,2.20231481 22.9477865,2.20231481 C34.4015365,2.20231481 43.7194844,11.528963 43.7194844,22.992787 C43.7194844,34.4572315 34.4015365,43.7845 22.9477865,43.7845 Z M22.9477865,3.84443519 C12.3983125,3.84443519 3.81605729,12.4347037 3.81605729,22.992787 C3.81605729,33.5521111 12.3983125,42.1423796 22.9477865,42.1423796 C33.4966406,42.1423796 42.0788958,33.5514907 42.0788958,22.992787 C42.0795156,12.4347037 33.4966406,3.84443519 22.9477865,3.84443519 Z" id="Shape" fill="#F1F2F2"></path>
                                </g>
                                <path d="M37.8227865,51.4367685 C30.3555365,51.4367685 24.2809583,45.3558981 24.2809583,37.8816759 C24.2809583,30.4080741 30.3555365,24.3272037 37.8227865,24.3272037 C45.2894167,24.3272037 51.3646146,30.4080741 51.3646146,37.8816759 C51.3646146,45.3558981 45.2900365,51.4367685 37.8227865,51.4367685 Z M37.8227865,25.9693241 C31.2604323,25.9693241 25.9209271,31.3131944 25.9209271,37.8816759 C25.9209271,44.4507778 31.2598125,49.7946481 37.8227865,49.7946481 C44.3851406,49.7946481 49.724026,44.4507778 49.724026,37.8816759 C49.7246458,31.3138148 44.3851406,25.9693241 37.8227865,25.9693241 Z" id="Shape" fill="#F1F2F2"></path>
                                <path d="M37.8227865,44.801287 C34.0110677,44.801287 30.91025,41.6975741 30.91025,37.8822963 C30.91025,34.0682593 34.0110677,30.9645463 37.8227865,30.9645463 C41.6338854,30.9645463 44.7347031,34.0682593 44.7347031,37.8822963 C44.7347031,41.6975741 41.6338854,44.801287 37.8227865,44.801287 Z M37.8227865,32.6054259 C34.9159635,32.6054259 32.5502188,34.9721389 32.5502188,37.8822963 C32.5502188,40.7924537 34.9153438,43.159787 37.8227865,43.159787 C40.7302292,43.159787 43.0947344,40.7924537 43.0947344,37.8822963 C43.0947344,34.9721389 40.7302292,32.6054259 37.8227865,32.6054259 Z" id="Shape" fill="#F1F2F2"></path>
                                <polygon id="Shape" fill="#F1F2F2" points="60.3354792 16.5365926 59.1485781 15.3485833 37.8227865 36.6936667 16.4969948 15.3485833 15.3100938 16.5365926 36.6358854 37.8822963 15.3100938 59.228 16.4969948 60.4166296 37.8227865 39.0703056 59.1485781 60.4166296 60.3354792 59.228 39.0096875 37.8822963"></polygon>
                            </g>
                            <ellipse id="Oval" fill="#414042" cx="19.3176667" cy="17.9200185" rx="1.70876562" ry="1.71036111"></ellipse>
                            <ellipse id="Oval" fill="#414042" cx="79.8799896" cy="17.9200185" rx="1.70814583" ry="1.70974074"></ellipse>
                            <ellipse id="Oval" fill="#414042" cx="19.3176667" cy="78.5388889" rx="1.70876562" ry="1.71036111"></ellipse>
                            <ellipse id="Oval" fill="#414042" cx="79.8799896" cy="78.5388889" rx="1.70814583" ry="1.70974074"></ellipse>
                            <ellipse id="Oval" fill="#414042" cx="19.3176667" cy="106.83212" rx="1.70876562" ry="1.71036111"></ellipse>
                            <ellipse id="Oval" fill="#414042" cx="79.8799896" cy="106.83212" rx="1.70814583" ry="1.70974074"></ellipse>
                            <ellipse id="Oval" fill="#414042" cx="19.3176667" cy="167.450991" rx="1.70876562" ry="1.71036111"></ellipse>
                            <ellipse id="Oval" fill="#414042" cx="79.8799896" cy="167.450991" rx="1.70814583" ry="1.70974074"></ellipse>
                        </g>
                        <g id="Group-7" transform="translate(153.000000, 0.000000)">
                            <polygon id="Fill-29" fill="#C4C4C4" points="36.65625 23.7735849 65.34375 23.7735849 65.34375 0 36.65625 0"></polygon>
                            <polygon id="Fill-30" fill="#7D7C7D" points="51 23.7735849 65.34375 23.7735849 65.34375 0 51 0"></polygon>
                            <polygon id="Fill-31" fill="#C4C4C4" points="0 84 102 84 102 69.7358491 0 69.7358491"></polygon>
                            <polygon id="Fill-32" fill="#7D7C7D" points="51 84 102 84 102 69.7358491 51 69.7358491"></polygon>
                            <polyline id="Fill-33" fill="#C4C4C4" points="37.692165 28.5283019 65.901585 28.5283019 98.8125 64.9811321 4.78125 64.9811321 37.692165 28.5283019"></polyline>
                            <polyline id="Fill-35" fill="#7D7C7D" points="51 28.5283019 51 64.9811321 97.21875 64.9811321 65.0666525 28.5283019 51 28.5283019"></polyline>
                        </g>
                        <g id="Group" transform="translate(143.000000, 104.000000)" fill-rule="nonzero">
                            <path d="M138.695416,40.693647 L131.285768,34.0549176 L131.285768,3.91878126 C131.285768,1.75819596 129.524371,0 127.360422,0 L3.92534634,0 C1.76093337,0 0,1.75819596 0,3.91878126 L0,81.8526579 C0,84.0141693 1.76093337,85.7723653 3.92534634,85.7723653 L21.4196652,85.7723653 L21.4196652,87.2281904 C17.7155369,88.4946286 15.0586006,92.0258381 15.0586006,96.0802926 C15.0586006,98.241804 16.819534,100 18.9839469,100 L37.8779226,100 C40.0423355,100 41.8032689,98.241804 41.8032689,96.0802926 C41.8032689,92.0258381 39.1463326,88.4946286 35.4422044,87.2281904 L35.4422044,85.7723653 L96.5702909,85.7723653 L96.5702909,87.2281904 C92.8656989,88.4946286 90.2092264,92.0258381 90.2092264,96.0802926 C90.2092264,98.241804 91.9701597,100 94.1350365,100 L113.028548,100 C115.192961,100 116.953431,98.241804 116.953431,96.0802926 C116.953431,92.0258381 114.296495,88.4946286 110.59283,87.2281904 L110.59283,85.7723653 L127.360886,85.7723653 C129.524835,85.7723653 131.286232,84.0141693 131.286232,81.8526579 L131.286232,77.4532321 L138.69588,70.8145027 C139.523709,70.0722356 140,69.0081497 140,67.8968327 L140,55.7538433 L140,43.6108539 C139.999536,42.4990739 139.523245,41.4363771 138.695416,40.693647 Z" id="Shape" fill="#353535"></path>
                            <g transform="translate(3.181818, 1.587302)" id="Shape">
                                <g transform="translate(14.853625, 64.941978)">
                                    <g transform="translate(6.498461, 0.000000)">
                                        <path d="M1.58191109,29.1751836 C1.17482892,29.1751836 0.84526411,28.8444434 0.84526411,28.4390199 L0.84526411,1.56742103 C0.84526411,1.16106979 1.17482892,0.830793448 1.58191109,0.830793448 L7.75916248,0.830793448 C8.16578047,0.830793448 8.49534528,1.16106979 8.49534528,1.56742103 L8.49534528,28.4390199 C8.49534528,28.8444434 8.16578047,29.1751836 7.75916248,29.1751836 L1.58191109,29.1751836 Z" fill="#6D6E71"></path>
                                        <path d="M7.75916248,1.56742103 L7.75916248,28.4390199 L1.58191109,28.4390199 L1.58191109,1.56742103 L7.75916248,1.56742103 Z M7.75916248,0.0950936107 L1.58191109,0.0950936107 C0.768210929,0.0950936107 0.108617134,0.754254688 0.108617134,1.56742103 L0.108617134,28.4390199 C0.108617134,29.2521863 0.768210929,29.9104196 1.58191109,29.9104196 L7.75916248,29.9104196 C8.57239846,29.9104196 9.23245643,29.2521863 9.23245643,28.4390199 L9.23245643,1.56742103 C9.23245643,0.754254688 8.57239846,0.0950936107 7.75916248,0.0950936107 Z" fill="#353535"></path>
                                    </g>
                                    <g transform="translate(0.000000, 22.265821)">
                                        <path d="M1.71373701,7.72577603 C1.30711902,7.72577603 0.977090034,7.39549969 0.977090034,6.98961233 C0.977090034,3.58062235 3.75286125,0.806672142 7.16455329,0.806672142 L15.1739065,0.806672142 C18.5851344,0.806672142 21.3609056,3.58062235 21.3609056,6.98961233 C21.3609056,7.39549969 21.031805,7.72577603 20.6247228,7.72577603 L1.71373701,7.72577603 Z" fill="#58595B"></path>
                                        <path d="M15.1729782,1.54283585 C18.1831582,1.54283585 20.6237944,3.98140713 20.6237944,6.98961233 L1.71327283,6.98961233 C1.71327283,3.98140713 4.15344495,1.54283585 7.16408912,1.54283585 L15.1729782,1.54283585 Z M15.1729782,0.0700445621 L7.16408912,0.0700445621 C3.34577908,0.0700445621 0.239978883,3.17427111 0.239978883,6.98961233 C0.239978883,7.80277866 0.899572678,8.46193974 1.71327283,8.46193974 L20.6237944,8.46193974 C21.4374946,8.46193974 22.0970884,7.80277866 22.0970884,6.98961233 C22.0970884,3.17473499 18.9912882,0.0700445621 15.1729782,0.0700445621 Z" fill="#353535"></path>
                                    </g>
                                </g>
                                <g transform="translate(90.050103, 64.941978)">
                                    <g transform="translate(6.498461, 0.000000)">
                                        <path d="M1.60140647,29.1751836 C1.19478848,29.1751836 0.864759493,28.8444434 0.864759493,28.4390199 L0.864759493,1.56742103 C0.864759493,1.16106979 1.19478848,0.830793448 1.60140647,0.830793448 L7.77865786,0.830793448 C8.1862042,0.830793448 8.51576901,1.16106979 8.51576901,1.56742103 L8.51576901,28.4390199 C8.51576901,28.8444434 8.1862042,29.1751836 7.77865786,29.1751836 L1.60140647,29.1751836 Z" fill="#6D6E71"></path>
                                        <path d="M7.77865786,1.56742103 L7.77865786,28.4390199 L1.60140647,28.4390199 L1.60140647,1.56742103 L7.77865786,1.56742103 Z M7.77865786,0.0950936107 L1.60140647,0.0950936107 C0.788170488,0.0950936107 0.128112518,0.754254688 0.128112518,1.56742103 L0.128112518,28.4390199 C0.128112518,29.2521863 0.788170488,29.9104196 1.60140647,29.9104196 L7.77865786,29.9104196 C8.59282219,29.9104196 9.25241599,29.2521863 9.25241599,28.4390199 L9.25241599,1.56742103 C9.25241599,0.754254688 8.59282219,0.0950936107 7.77865786,0.0950936107 Z" fill="#353535"></path>
                                    </g>
                                    <g transform="translate(0.000000, 22.265821)">
                                        <path d="M1.73369657,7.72577603 C1.32707858,7.72577603 0.996585417,7.39549969 0.996585417,6.98961233 C0.996585417,3.58062235 3.77189245,0.806672142 7.18451285,0.806672142 L15.1934019,0.806672142 C18.6050939,0.806672142 21.380401,3.58062235 21.380401,6.98961233 C21.380401,7.39549969 21.050372,7.72577603 20.6442182,7.72577603 L1.73369657,7.72577603 Z" fill="#58595B"></path>
                                        <path d="M15.1929377,1.54283585 C18.2031177,1.54283585 20.643754,3.98140713 20.643754,6.98961233 L1.73369657,6.98961233 C1.73369657,3.98140713 4.17386869,1.54283585 7.1835845,1.54283585 L15.1929377,1.54283585 Z M15.1929377,0.0700445621 L7.1835845,0.0700445621 C3.36620282,0.0700445621 0.259938441,3.17427111 0.259938441,6.98961233 C0.259938441,7.80277866 0.919068061,8.46193974 1.73369657,8.46193974 L20.643754,8.46193974 C21.45699,8.46193974 22.1165838,7.80277866 22.1165838,6.98961233 C22.1165838,3.17473499 19.0112478,0.0700445621 15.1929377,0.0700445621 Z" fill="#353535"></path>
                                    </g>
                                </g>
                                <g transform="translate(117.900650, 27.368405)">
                                    <path d="M1.68774317,52.041718 C1.58608867,52.041718 1.48443417,52.0208438 1.38788561,51.9777038 C1.12284123,51.8594166 0.951560366,51.5954738 0.951560366,51.3050904 L0.951560366,1.55675199 C0.951560366,1.26683244 1.12284123,1.00335356 1.38788561,0.885066387 C1.48443417,0.84239023 1.58655284,0.821516023 1.68774317,0.821516023 C1.86552249,0.821516023 2.04237347,0.885994129 2.18069785,1.00938389 L16.3515205,13.7189929 C16.5074836,13.8586181 16.5952128,14.057155 16.5952128,14.2668248 L16.5952128,38.5959453 C16.5952128,38.8051513 16.5074836,39.004152 16.3515205,39.1442412 L2.18069785,51.8529224 C2.04190929,51.9772399 1.86552249,52.041718 1.68774317,52.041718 Z" fill="#A7A9AC"></path>
                                    <path d="M1.68774317,1.55675199 L15.85903,14.2668248 L15.85903,26.4313851 L15.85903,38.5959453 L1.68774317,51.3055543 L1.68774317,26.4313851 L1.68774317,1.55675199 Z M1.68774317,0.085352314 C1.48443417,0.085352314 1.28019682,0.127100729 1.08756387,0.213380785 C0.556082594,0.449955134 0.21491339,0.976912899 0.21491339,1.55675199 L0.21491339,26.4313851 L0.21491339,51.3055543 C0.21491339,51.8863211 0.556082594,52.4137428 1.08756387,52.6493894 C1.28019682,52.7356694 1.48443417,52.7774178 1.68774317,52.7774178 C2.04469435,52.7774178 2.39607542,52.6479977 2.67179584,52.4007544 L16.8426185,39.6916093 C17.1545446,39.4123587 17.3323239,39.0143572 17.3323239,38.5959453 L17.3323239,26.4313851 L17.3323239,14.2668248 C17.3323239,13.8488768 17.1545446,13.4499475 16.8426185,13.1702332 L2.67179584,0.462015787 C2.39607542,0.214772399 2.04423017,0.085352314 1.68774317,0.085352314 Z" fill="#353535"></path>
                                </g>
                                <g>
                                    <path d="M1.49557439,80.6811303 C1.08849222,80.6811303 0.758927414,80.3517817 0.758927414,79.9449666 L0.758927414,1.87357607 C0.758927414,1.46676096 1.08849222,1.13694849 1.49557439,1.13694849 L125.03921,1.13694849 C125.445828,1.13694849 125.776321,1.46676096 125.776321,1.87357607 L125.776321,79.9449666 C125.776321,80.3517817 125.445828,80.6811303 125.03921,80.6811303 L1.49557439,80.6811303 Z" fill="#808285"></path>
                                    <path d="M125.03921,1.87264832 L125.03921,79.9449666 L1.49557439,79.9449666 L1.49557439,1.87264832 L125.03921,1.87264832 Z M125.03921,0.400784779 L1.49557439,0.400784779 C0.681874233,0.400784779 0.021816262,1.05994586 0.021816262,1.87264832 L0.021816262,79.9449666 C0.021816262,80.758133 0.681410057,81.4177579 1.49557439,81.4177579 L125.03921,81.4177579 C125.852446,81.4177579 126.512504,80.758133 126.512504,79.9449666 L126.512504,1.87264832 C126.512504,1.05994586 125.852446,0.400784779 125.03921,0.400784779 Z" fill="#353535"></path>
                                </g>
                                <g transform="translate(84.479993, 36.181959)">
                                    <path d="M1.86134491,8.55007528 C1.45472692,8.55007528 1.12423376,8.22072668 1.12423376,7.81391158 L1.12423376,1.63978495 C1.12423376,1.23389758 1.45472692,0.904085109 1.86134491,0.904085109 L31.6567888,0.904085109 C32.0629426,0.904085109 32.3934357,1.23389758 32.3934357,1.63978495 L32.3934357,7.81391158 C32.3934357,8.22072668 32.0629426,8.55007528 31.6567888,8.55007528 L1.86134491,8.55007528 Z" fill="#D1D3D4"></path>
                                    <path d="M31.6567888,1.63978495 L31.6567888,7.81391158 L1.86134491,7.81391158 L1.86134491,1.63978495 L31.6567888,1.63978495 Z M31.6567888,0.168385272 L1.86134491,0.168385272 C1.0467164,0.168385272 0.387586783,0.827546349 0.387586783,1.63978495 L0.387586783,7.81391158 C0.387586783,8.62707792 1.0467164,9.28623899 1.86134491,9.28623899 L31.6567888,9.28623899 C32.4700247,9.28623899 33.1296185,8.62707792 33.1296185,7.81391158 L33.1296185,1.63978495 C33.1296185,0.827546349 32.4700247,0.168385272 31.6567888,0.168385272 Z" fill="#353535"></path>
                                </g>
                                <g transform="translate(84.479993, 23.193564)">
                                    <path d="M1.86134491,8.64702438 C1.45472692,8.64702438 1.12423376,8.31767578 1.12423376,7.91132454 L1.12423376,1.73812566 C1.12423376,1.33131055 1.45472692,1.00196195 1.86134491,1.00196195 L31.6567888,1.00196195 C32.0629426,1.00196195 32.3934357,1.33131055 32.3934357,1.73812566 L32.3934357,7.91132454 C32.3934357,8.31767578 32.0629426,8.64702438 31.6567888,8.64702438 L1.86134491,8.64702438 Z" fill="#D1D3D4"></path>
                                    <path d="M31.6567888,1.73766178 L31.6567888,7.91132454 L1.86134491,7.91132454 L1.86134491,1.73766178 L31.6567888,1.73766178 Z M31.6567888,0.265334368 L1.86134491,0.265334368 C1.0467164,0.265334368 0.387586783,0.924959316 0.387586783,1.73766178 L0.387586783,7.91132454 C0.387586783,8.72495475 1.0467164,9.38318809 1.86134491,9.38318809 L31.6567888,9.38318809 C32.4700247,9.38318809 33.1296185,8.72495475 33.1296185,7.91132454 L33.1296185,1.73766178 C33.1296185,0.924959316 32.4700247,0.265334368 31.6567888,0.265334368 Z" fill="#353535"></path>
                                </g>
                                <g transform="translate(84.479993, 10.205168)">
                                    <path d="M1.86134491,8.74490122 C1.45472692,8.74490122 1.12423376,8.41508874 1.12423376,8.00827364 L1.12423376,1.83553862 C1.12423376,1.42872352 1.45472692,1.09937491 1.86134491,1.09937491 L31.6567888,1.09937491 C32.0629426,1.09937491 32.3934357,1.42872352 32.3934357,1.83553862 L32.3934357,8.00827364 C32.3934357,8.41508874 32.0629426,8.74490122 31.6567888,8.74490122 L1.86134491,8.74490122 Z" fill="#D1D3D4"></path>
                                    <path d="M31.6567888,1.83553862 L31.6567888,8.00920138 L1.86134491,8.00920138 L1.86134491,1.83553862 L31.6567888,1.83553862 Z M31.6567888,0.362747335 L1.86134491,0.362747335 C1.0467164,0.362747335 0.387586783,1.02190841 0.387586783,1.83553862 L0.387586783,8.00920138 C0.387586783,8.82190385 1.0467164,9.48106493 1.86134491,9.48106493 L31.6567888,9.48106493 C32.4700247,9.48106493 33.1296185,8.82190385 33.1296185,8.00920138 L33.1296185,1.83553862 C33.1296185,1.02190841 32.4700247,0.362747335 31.6567888,0.362747335 Z" fill="#353535"></path>
                                </g>
                                <g transform="translate(84.479993, 49.170355)">
                                    <path d="M1.86134491,8.45219845 C1.45472692,8.45219845 1.12423376,8.12331371 1.12423376,7.71603474 L1.12423376,1.54283585 C1.12423376,1.13602074 1.45472692,0.806672142 1.86134491,0.806672142 L31.6567888,0.806672142 C32.0629426,0.806672142 32.3934357,1.13602074 32.3934357,1.54283585 L32.3934357,7.71603474 C32.3934357,8.12331371 32.0629426,8.45219845 31.6567888,8.45219845 L1.86134491,8.45219845 Z" fill="#D1D3D4"></path>
                                    <path d="M31.6567888,1.54329972 L31.6567888,7.71603474 L1.86134491,7.71603474 L1.86134491,1.54329972 L31.6567888,1.54329972 Z M31.6567888,0.0700445621 L1.86134491,0.0700445621 C1.0467164,0.0700445621 0.387586783,0.730133382 0.387586783,1.54329972 L0.387586783,7.71603474 C0.387586783,8.52920108 1.0467164,9.1892899 1.86134491,9.1892899 L31.6567888,9.1892899 C32.4700247,9.1892899 33.1296185,8.52920108 33.1296185,7.71603474 L33.1296185,1.54329972 C33.1296185,0.730133382 32.4700247,0.0700445621 31.6567888,0.0700445621 Z" fill="#353535"></path>
                                </g>
                                <g transform="translate(84.479993, 61.694879)">
                                    <path d="M1.86134491,8.81865675 C1.45472692,8.81865675 1.12423376,8.48884428 1.12423376,8.08295691 L1.12423376,1.90975803 C1.12423376,1.50294292 1.45472692,1.17313045 1.86134491,1.17313045 L31.6567888,1.17313045 C32.0629426,1.17313045 32.3934357,1.50294292 32.3934357,1.90975803 L32.3934357,8.08295691 C32.3934357,8.48884428 32.0629426,8.81865675 31.6567888,8.81865675 L1.86134491,8.81865675 Z" fill="#D1D3D4"></path>
                                    <path d="M31.6567888,1.90975803 L31.6567888,8.08295691 L1.86134491,8.08295691 L1.86134491,1.90975803 L31.6567888,1.90975803 Z M31.6567888,0.436966738 L1.86134491,0.436966738 C1.0467164,0.436966738 0.387586783,1.09612782 0.387586783,1.90975803 L0.387586783,8.08295691 C0.387586783,8.89565938 1.0467164,9.55482046 1.86134491,9.55482046 L31.6567888,9.55482046 C32.4700247,9.55482046 33.1296185,8.89565938 33.1296185,8.08295691 L33.1296185,1.90975803 C33.1296185,1.09612782 32.4700247,0.436966738 31.6567888,0.436966738 Z" fill="#353535"></path>
                                </g>
                                <g transform="translate(6.962637, 4.174841)">
                                    <g fill="#353535">
                                        <path d="M1.80007371,72.3300558 C1.39299154,72.3300558 1.06342673,72.0007072 1.06342673,71.594356 L1.06342673,1.87403994 C1.06342673,1.46815258 1.39299154,1.13787623 1.80007371,1.13787623 L71.5656947,1.13787623 C71.9727768,1.13787623 72.3028058,1.46815258 72.3028058,1.87403994 L72.3028058,71.594356 C72.3028058,72.0007072 71.9727768,72.3300558 71.5656947,72.3300558 L1.80007371,72.3300558 Z"></path>
                                        <path d="M71.5661589,1.87403994 L71.5661589,71.5948199 L1.80007371,71.5948199 L1.80007371,1.87403994 L71.5661589,1.87403994 Z M71.5661589,0.402176393 L1.80007371,0.402176393 C0.986837726,0.402176393 0.326779755,1.0608736 0.326779755,1.87403994 L0.326779755,71.5948199 C0.326779755,72.4070584 0.986837726,73.0671473 1.80007371,73.0671473 L71.5661589,73.0671473 C72.379859,73.0671473 73.039917,72.4070584 73.039917,71.5948199 L73.039917,1.87403994 C73.039917,1.0608736 72.379859,0.402176393 71.5661589,0.402176393 Z"></path>
                                    </g>
                                    <g transform="translate(4.177582, 4.174841)">
                                        <path d="M32.5053021,63.9799091 C15.1688006,63.9799091 1.06481926,49.8847166 1.06481926,32.5591246 C1.06481926,15.2339964 15.1688006,1.13973172 32.5053021,1.13973172 C49.8418036,1.13973172 63.9467133,15.2344603 63.9467133,32.5591246 C63.9467133,49.8847166 49.8413394,63.9799091 32.5053021,63.9799091 Z" fill="#58595B"></path>
                                        <path d="M32.5053021,1.87543155 C49.462572,1.87543155 63.2096021,15.6125154 63.2096021,32.5586607 C63.2096021,49.5057338 49.462572,63.2432815 32.5053021,63.2432815 C15.547568,63.2432815 1.80100206,49.5057338 1.80100206,32.5586607 C1.80100206,15.6125154 15.5480322,1.87543155 32.5053021,1.87543155 Z M32.5053021,0.403104135 C14.7621826,0.403104135 0.327708106,14.8281091 0.327708106,32.5586607 C0.327708106,50.2906039 14.7621826,64.715145 32.5053021,64.715145 C50.2474932,64.715145 64.6824319,50.2901401 64.6824319,32.5586607 C64.6828961,14.8281091 50.2474932,0.403104135 32.5053021,0.403104135 Z" fill="#353535"></path>
                                    </g>
                                    <g transform="translate(9.283516, 9.277425)">
                                        <path d="M27.3993684,53.9751335 C12.7680834,53.9751335 0.863831142,42.0786908 0.863831142,27.4560767 C0.863831142,12.8343904 12.7676192,0.938411583 27.3993684,0.938411583 C42.0311176,0.938411583 53.9349057,12.8343904 53.9349057,27.4560767 C53.9344415,42.0791547 42.0311176,53.9751335 27.3993684,53.9751335 Z" fill="#E6E7E8"></path>
                                        <path d="M27.3993684,1.67503916 C41.6472442,1.67503916 53.1982587,13.2180119 53.1982587,27.4560767 C53.1982587,41.6955331 41.6477084,53.2389697 27.3993684,53.2389697 C13.1510284,53.2389697 1.60001394,41.6955331 1.60001394,27.4560767 C1.60047812,13.2180119 13.1510284,1.67503916 27.3993684,1.67503916 Z M27.3993684,0.202711746 C12.3614654,0.202711746 0.127184166,12.428503 0.127184166,27.4565406 C0.127184166,42.4845782 12.3610012,54.7112972 27.3993684,54.7112972 C42.4368073,54.7112972 54.6715527,42.4850421 54.6715527,27.4565406 C54.6715527,12.428503 42.4372714,0.202711746 27.3993684,0.202711746 Z" fill="#353535"></path>
                                    </g>
                                    <g transform="translate(14.853625, 14.843881)">
                                        <path d="M21.829259,42.8436145 C10.2684968,42.8436145 0.86290279,33.4437271 0.86290279,21.8896215 C0.86290279,10.3364436 10.2684968,0.936556098 21.829259,0.936556098 C33.3904853,0.936556098 42.7965435,10.3364436 42.7965435,21.8896215 C42.7965435,33.444191 33.3904853,42.8436145 21.829259,42.8436145 Z" fill="#58595B"></path>
                                        <path d="M21.829259,1.67318368 C33.0019702,1.67318368 42.0594323,10.7242399 42.0594323,21.8896215 C42.0594323,33.0559307 33.0019702,42.106987 21.829259,42.106987 C10.6560836,42.106987 1.59908559,33.0559307 1.59908559,21.8896215 C1.59908559,10.7242399 10.6565477,1.67318368 21.829259,1.67318368 Z M21.829259,0.201320132 C9.86141462,0.201320132 0.125791639,9.93148393 0.125791639,21.8900853 C0.125791639,33.8500783 9.8618788,43.5802421 21.829259,43.5802421 C33.7966391,43.5802421 43.5322621,33.8500783 43.5322621,21.8900853 C43.5327263,9.93102006 33.7966391,0.201320132 21.829259,0.201320132 Z" fill="#353535"></path>
                                    </g>
                                    <g transform="translate(22.280438, 22.265821)">
                                        <path d="M14.4024464,28.0952913 C6.88372694,28.0952913 0.766354226,21.9819318 0.766354226,14.4676811 C0.766354226,6.95435811 6.88372694,0.841462487 14.4024464,0.841462487 C21.9216299,0.841462487 28.0380743,6.95435811 28.0380743,14.4676811 C28.0380743,21.9823957 21.9216299,28.0952913 14.4024464,28.0952913 Z" fill="#E6E7E8"></path>
                                        <path d="M14.4024464,1.5776262 C21.5266164,1.5776262 27.3018915,7.34818482 27.3018915,14.4676811 C27.3018915,21.5881051 21.5266164,27.3591276 14.4024464,27.3591276 C7.27827636,27.3591276 1.5030012,21.5881051 1.5030012,14.4676811 C1.5030012,7.34864869 7.27874053,1.5776262 14.4024464,1.5776262 Z M14.4024464,0.104834907 C6.47710895,0.104834907 0.0297072504,6.54893462 0.0297072504,14.468145 C0.0297072504,22.3882831 6.47710895,28.8319189 14.4024464,28.8319189 C22.3273196,28.8319189 28.7747213,22.3882831 28.7747213,14.468145 C28.7751855,6.54847075 22.3277838,0.104834907 14.4024464,0.104834907 Z" fill="#353535"></path>
                                    </g>
                                    <g transform="translate(28.778899, 28.760019)">
                                        <path d="M7.90398532,14.8837736 C4.09217375,14.8837736 0.990086956,11.7841858 0.990086956,7.97394716 C0.990086956,4.16417241 4.09170957,1.06458457 7.90398532,1.06458457 C11.7162611,1.06458457 14.8183479,4.16417241 14.8183479,7.97394716 C14.8178837,11.7841858 11.7162611,14.8837736 7.90398532,14.8837736 Z" fill="#58595B"></path>
                                        <path d="M7.90398532,1.80167602 C11.3156774,1.80167602 14.0812367,4.56495719 14.0812367,7.97394716 C14.0812367,11.3838649 11.3156774,14.1480738 7.90398532,14.1480738 C4.49229328,14.1480738 1.72626976,11.3838649 1.72626976,7.97394716 C1.72673393,4.56495719 4.49229328,1.80167602 7.90398532,1.80167602 Z M7.90398532,0.328884732 C3.68555576,0.328884732 0.252975805,3.75874892 0.252975805,7.97348329 C0.252975805,12.1900732 3.68555576,15.6190096 7.90398532,15.6190096 C12.1224149,15.6190096 15.5540665,12.1896093 15.5540665,7.97348329 C15.5545307,3.75874892 12.1224149,0.328884732 7.90398532,0.328884732 Z" fill="#353535"></path>
                                    </g>
                                    <g transform="translate(13.925274, 13.916138)">
                                        <g>
                                            <path d="M1.04625223,1.12071299 L44.4685047,44.5154066" fill="#FFFFFF"></path>
                                            <path d="M44.4685047,45.2515703 C44.2800493,45.2515703 44.0915939,45.1796703 43.9472353,45.0358702 L0.525446992,1.64164043 C0.237658004,1.35404024 0.237658004,0.887849614 0.525446992,0.600249426 C0.813700157,0.313113109 1.27973265,0.313113109 1.56752164,0.600249426 L44.9897741,43.994943 C45.2770989,44.2820794 45.2770989,44.74827 44.9897741,45.0358702 C44.8458796,45.1792064 44.6569601,45.2515703 44.4685047,45.2515703 Z" fill="#353535"></path>
                                        </g>
                                        <g>
                                            <path d="M44.4685047,1.12071299 L1.04625223,44.5154066" fill="#FFFFFF"></path>
                                            <path d="M1.04625223,45.2515703 C0.857796857,45.2515703 0.669341487,45.1796703 0.525446992,45.0358702 C0.237658004,44.74827 0.237658004,44.2820794 0.525446992,43.994943 L43.9472353,0.600249426 C44.2354884,0.313113109 44.7015209,0.313113109 44.9893099,0.600249426 C45.2766347,0.887849614 45.2766347,1.35404024 44.9893099,1.64164043 L1.56705746,45.0358702 C1.42362714,45.1792064 1.2347076,45.2515703 1.04625223,45.2515703 Z" fill="#353535"></path>
                                        </g>
                                    </g>
                                </g>
                            </g>
                        </g>
                    </g>
                </g>
            </g>
        </g>
    </g>
</svg>