<?xml version="1.0" encoding="UTF-8"?>
<svg width="176px" height="5px" version="1.1" xmlns="http://www.w3.org/2000/svg" xmlns:xlink="http://www.w3.org/1999/xlink">
    <!-- Generator: Sketch 51.2 (57519) - http://www.bohemiancoding.com/sketch -->
    <title>path1381</title>
    <desc>Created with Sketch.</desc>
    <defs></defs>
    <g id="Welcome" stroke="none" stroke-width="1" fill="none" fill-rule="evenodd">
        <g id="Desktop" transform="translate(-352.000000, -468.000000)" fill="#5DB0E3">
            <g id="NavBar" transform="translate(0.000000, 408.000000)">
                <path d="M352,60.0085959 C352,60.0085959 352,60.4126054 352.414966,60.5243525 C352.829932,60.6360999 354.074826,60.8509985 354.489792,60.9627458 C354.904758,61.0744932 354.213151,61.2893917 355.319724,61.4785024 C356.426298,61.6676132 357.25623,61.7019971 357.117909,61.8911079 C356.979584,62.0802186 356.979584,62.0286428 357.39455,62.1146023 C357.809516,62.2005618 358.086162,62.5443997 358.086162,62.5443997 C358.293643,62.6518491 360.160988,62.6346571 360.299308,62.5529956 C360.588913,62.3820213 360.022663,62.2349455 360.57595,62.1575822 C361.129237,62.0802186 361.820848,62.0716227 362.374135,61.9426836 C362.927421,61.8137443 363.480708,61.7277848 363.757357,61.6418255 C364.033999,61.5558661 363.895678,61.4870983 364.587289,61.4527146 C365.278897,61.4183308 365.002251,61.2807959 365.140576,61.2206242 C365.278897,61.1604526 365.417217,61.0401094 366.662115,61.0487053 C367.907009,61.0573012 368.736941,61.3409675 368.736941,61.5300782 C368.736941,61.7191889 369.705194,61.7621688 369.843515,61.8567241 C369.981839,61.9512795 370.396805,62.18337 370.811768,62.2607334 C371.226734,62.338097 372.194986,62.3896725 371.918345,62.475632 C371.6417,62.5615915 371.71086,62.763596 372.471632,62.7764901 C373.737626,62.7979468 374.269816,62.7163184 374.961424,62.7163184 C375.653031,62.7163184 375.791356,62.8796415 375.791356,62.931217 C375.791356,62.9827928 376.206322,63.2148833 376.344642,63.2836508 C376.482963,63.3524183 376.482963,63.6017006 376.759608,63.8251953 C376.866581,63.9108973 376.621284,64.1088616 377.03625,64.2378007 C377.451216,64.3667398 377.312895,64.4698913 377.589537,64.5472547 C377.866182,64.6246183 377.451216,64.8223249 378.834435,64.8223249 C380.217653,64.8223249 380.079333,64.7449615 380.632619,64.5558506 C381.185906,64.3667398 380.355974,64.3237602 380.909261,64.2463966 C381.462547,64.1690333 382.4308,64.0572859 382.154159,63.9541344 C381.877513,63.8509832 381.600872,63.73064 382.154159,63.6790642 C382.707445,63.6274887 382.984091,63.4985494 382.984091,63.403994 C382.984091,63.3094387 382.154159,63.3008428 383.122411,63.2148833 C384.090664,63.1289239 383.537377,62.8366617 384.090664,62.7335104 C384.643951,62.630359 385.612204,62.5701873 385.473883,62.338097 C385.335558,62.1060064 385.197238,61.8911079 385.750524,61.8137443 C386.303811,61.7363809 386.16549,61.6160377 387.272064,61.6418255 C388.378641,61.6676132 388.240316,61.6848052 388.516962,61.8309362 C388.793607,61.9770673 388.931929,62.2435417 389.07025,62.3123091 C389.20857,62.3810766 389.485216,62.4498441 390.038502,62.5100157 C390.591789,62.5701873 391.698366,62.7850862 391.698366,62.8538537 C391.698366,62.9226211 392.666619,63.0859442 392.528294,63.1375197 C392.389974,63.1890955 391.421721,63.3008428 392.113328,63.3868023 C392.80494,63.4727615 392.666619,63.5501251 392.80494,63.6188926 C392.94326,63.6876604 393.081581,63.8251953 393.358226,63.9025589 C393.634872,63.9799223 395.294732,64.1088616 395.709698,63.9541344 C396.124664,63.7994075 396.816271,63.6790642 396.954592,63.5415293 C397.092917,63.403994 396.53963,63.3782062 396.816271,63.2664591 C397.092917,63.1547117 397.507883,63.0773481 397.369558,62.9913886 C397.231237,62.9054294 397.646203,62.6991267 397.646203,62.5701873 C397.646203,62.4412482 398.337811,62.338097 398.614456,62.2779254 C398.891097,62.2177538 398.891097,62.1575822 399.582709,62.0716227 C400.274316,61.9856632 400.827603,61.710593 402.625788,61.7965525 C404.423972,61.882512 410.49059,61.8739159 410.49059,62.0458348 C410.49059,62.2177538 411.654574,62.2670514 411.931219,62.3787988 C412.207861,62.4905461 412.5322,62.9430505 414.661051,62.9140253 C415.171464,62.9070662 416.468426,62.681584 416.907692,62.6733388 C418.089499,62.651156 418.089499,62.4326524 419.131453,62.2349455 C419.902961,62.0885546 422.259818,61.9770673 421.340861,62.0062648 C422.569327,61.9696079 424.032836,61.9512795 425.731389,61.9512795 C428.279218,61.9512795 426.939055,61.8911079 429.321898,61.9512795 C431.70474,62.0114511 430.843437,61.8739159 431.258403,62.1146023 C431.673369,62.3552888 432.226656,62.6217631 432.918267,62.7335104 C433.609874,62.8452578 434.439806,63.1461158 434.993093,63.2664591 C435.54638,63.3868023 436.929599,63.4641657 436.652953,63.6532764 C436.376312,63.8423873 437.344565,63.8767711 437.482885,63.9971143 C437.621206,64.1174575 437.344565,64.2979724 438.589459,64.2721845 C439.834357,64.2463966 440.249323,64.186225 440.387643,63.9713264 C440.525964,63.7564278 441.355896,63.6704684 441.632541,63.5845089 C441.909183,63.4985494 441.355896,63.3868023 441.632541,63.2148833 C441.909183,63.0429644 441.909183,62.931217 442.324149,62.8366617 C442.739115,62.7421063 443.984013,62.492824 443.707368,62.4326524 C443.430722,62.3724808 443.984013,62.0544307 443.984013,62.0544307 C443.984013,62.0544307 444.952266,61.8911079 445.643873,62.0888144 C446.33548,62.2865213 445.505552,62.6045713 446.19716,62.7077226 C446.888771,62.8108738 447.165412,62.931217 447.303733,63.0601564 C447.442058,63.1890955 447.995344,63.4125899 448.825277,63.3438224 C449.655205,63.2750549 450.623457,63.0171765 450.623457,62.9140253 C450.623457,62.8108738 450.485137,62.6819347 451.038423,62.5787835 C451.59171,62.475632 450.993841,62.3098936 451.453389,62.1575822 C452.698287,61.7449768 453.113249,61.882512 456.709619,61.7449768 C460.305985,61.6074415 459.476056,61.5386741 462.519135,61.6332294 C465.562214,61.7277848 466.945433,62.0028552 467.63704,62.0888144 C468.328652,62.1747739 468.328652,62.3896725 469.020259,62.4584402 C469.71187,62.5272077 469.71187,62.7850862 470.126836,62.8882374 C470.541798,62.9913886 469.435225,63.103136 470.265157,63.1804996 C471.095089,63.257863 471.648376,63.3696103 470.680123,63.4985494 C469.71187,63.6274887 471.786696,63.9799223 472.339983,64.0916697 C472.89327,64.203417 473.446557,64.5472547 473.723202,64.64181 C473.999847,64.7363654 473.861523,65.0458196 475.659707,64.9942438 C477.457892,64.9426681 477.596213,64.830921 477.596213,64.6933858 C477.596213,64.5558506 477.042926,64.4870831 478.149499,64.340952 C479.256073,64.1948209 479.671039,63.8423873 479.256073,63.7564278 C478.841111,63.6704684 479.947684,63.6790642 480.086005,63.6017009 C480.224326,63.5243373 480.500971,63.3524183 481.192578,63.2492671 C481.88419,63.1461158 480.086005,63.0601564 481.330903,62.9999848 C482.575797,62.9398131 484.097336,62.6647429 483.959016,62.5787835 C483.820695,62.492824 484.512302,62.338097 484.788948,62.2349455 C485.065589,62.1317943 486.448808,61.6676132 486.448808,61.5472699 C486.448808,61.4269267 487.970347,61.1260686 490.460143,61.3839471 C492.949935,61.6418255 492.120003,62.0630268 492.534969,62.1146023 C492.949935,62.1661781 494.722518,61.9340875 494.999163,62.0716227 C495.275805,62.2091577 500.998409,61.5730578 502.243307,61.4785024 C503.488205,61.3839471 510.240164,62.3724808 509.963518,62.2435417 C509.686873,62.1146023 508.995266,62.0716227 509.410232,61.9770673 C509.825198,61.882512 510.101839,61.7449768 510.101839,61.6762093 C510.101839,61.6074415 512.038344,61.1862403 512.038344,61.1346648 C512.038344,61.083089 513.283242,60.8080188 514.113174,60.9713417 C514.943103,61.1346648 514.113174,61.2979876 514.389816,61.3495633 C514.666461,61.4011391 514.528137,61.8911079 515.081427,61.9770673 C515.634714,62.0630268 516.326321,62.320905 516.326321,62.4154604 C516.326321,62.5100157 515.911355,62.5186119 516.188001,62.6561468 C516.464642,62.793682 517.294574,62.7592983 517.571219,62.8108738 C517.847861,62.8624495 517.294574,63.103136 518.816113,63.103136 C520.337653,63.103136 519.646045,62.8796415 520.061011,62.8452578 C520.475977,62.8108738 520.890943,62.7335104 521.44423,62.5615915 C521.997517,62.3896725 522.412483,62.4326524 522.96577,62.2865213 C523.519056,62.1403902 522.135838,62.1661781 522.827449,62.0458348 C523.519056,61.9254916 523.380736,61.6676132 523.934022,61.5902498 C524.487309,61.5128862 523.795702,61.4785024 524.763954,61.3581592 C525.732207,61.237816 525.455562,61.1948364 526.83878,60.9971295 C528.221999,60.799423 526.83878,60.3610297 527.530388,60.2406865 C528.221999,60.1203432 527.945354,60 527.945354,60 L352,60.0085959 Z" id="path1381"></path>
            </g>
        </g>
    </g>
</svg>