<?xml version="1.0" encoding="UTF-8"?>
<svg width="45px" height="45px" viewBox="0 0 45 45" version="1.1" xmlns="http://www.w3.org/2000/svg" xmlns:xlink="http://www.w3.org/1999/xlink">
    <!-- Generator: Sketch 51.2 (57519) - http://www.bohemiancoding.com/sketch -->
    <title>snowflake_35_</title>
    <desc>Created with Sketch.</desc>
    <defs></defs>
    <g id="Welcome" stroke="none" stroke-width="1" fill="none" fill-rule="evenodd">
        <g id="Desktop" transform="translate(-223.000000, -2584.000000)" fill="#5DB0E3" fill-rule="nonzero">
            <path d="M268,2605.70282 L264.175407,2605.70282 L267.072333,2602.80694 L265.981917,2601.71692 L261.994575,2605.70282 L259.748644,2605.70282 L263.687161,2601.76573 L262.596745,2600.6757 L257.567812,2605.70282 L255.403255,2605.70282 L261.083183,2600.02495 L253.027125,2600.02495 L254.556962,2598.49566 L261.669078,2598.49566 L261.669078,2596.95011 L256.103074,2596.95011 L257.681736,2595.37202 L263.312839,2595.37202 L263.312839,2593.82646 L259.211573,2593.82646 L261.913201,2591.12581 L260.822785,2590.03579 L258.121157,2592.73644 L258.121157,2588.63666 L256.575045,2588.63666 L256.575045,2594.26573 L254.996383,2595.84382 L254.996383,2590.2961 L253.450271,2590.2961 L253.450271,2597.40564 L251.920434,2598.93492 L251.920434,2590.91432 L246.224231,2596.60846 L246.224231,2594.42842 L251.253165,2589.4013 L250.162749,2588.31128 L246.224231,2592.24837 L246.224231,2590.01952 L250.211573,2586.03362 L249.121157,2584.9436 L246.224231,2587.83948 L246.224231,2584 L244.678119,2584 L244.678119,2587.82321 L241.781193,2584.92733 L240.690778,2586.01735 L244.678119,2590.00325 L244.678119,2592.24837 L240.739602,2588.31128 L239.649186,2589.4013 L244.678119,2594.42842 L244.678119,2596.60846 L238.998192,2590.93059 L238.998192,2598.98373 L237.468354,2597.45445 L237.468354,2590.32863 L235.922242,2590.32863 L235.922242,2595.89262 L234.34358,2594.31453 L234.34358,2588.68547 L232.797468,2588.68547 L232.797468,2592.76898 L230.095841,2590.06833 L229.005425,2591.15835 L231.707052,2593.859 L227.605787,2593.859 L227.605787,2595.40456 L233.269439,2595.40456 L234.848101,2596.98265 L229.282098,2596.98265 L229.282098,2598.5282 L236.394213,2598.5282 L237.924051,2600.05748 L229.900542,2600.05748 L235.596745,2605.75163 L233.432188,2605.75163 L228.403255,2600.74078 L227.312839,2601.8308 L231.251356,2605.7679 L229.005425,2605.7679 L225.018083,2601.782 L223.927667,2602.87202 L226.824593,2605.7679 L223,2605.7679 L223,2607.31345 L226.824593,2607.31345 L223.927667,2610.20933 L225.018083,2611.29935 L229.005425,2607.31345 L231.251356,2607.31345 L227.312839,2611.25054 L228.403255,2612.34056 L233.432188,2607.31345 L235.61302,2607.31345 L229.933092,2612.99132 L237.98915,2612.99132 L236.459313,2614.52061 L229.347197,2614.52061 L229.347197,2616.06616 L234.896926,2616.06616 L233.318264,2617.64425 L227.687161,2617.64425 L227.687161,2619.1898 L231.788427,2619.1898 L229.086799,2621.89046 L230.177215,2622.98048 L232.878843,2620.27983 L232.878843,2624.37961 L234.424955,2624.37961 L234.424955,2618.75054 L236.003617,2617.17245 L236.003617,2622.7039 L237.549729,2622.7039 L237.549729,2615.59436 L239.079566,2614.06508 L239.079566,2622.08568 L244.775769,2616.39154 L244.775769,2618.57158 L239.746835,2623.5987 L240.837251,2624.68872 L244.775769,2620.75163 L244.775769,2622.99675 L240.788427,2626.98265 L241.878843,2628.07267 L244.775769,2625.17679 L244.775769,2629 L246.321881,2629 L246.321881,2625.17679 L249.218807,2628.07267 L250.309222,2626.98265 L246.321881,2622.99675 L246.321881,2620.75163 L250.260398,2624.68872 L251.350814,2623.5987 L246.321881,2618.57158 L246.321881,2616.39154 L252.001808,2622.06941 L252.001808,2614.01627 L253.531646,2615.54555 L253.531646,2622.6551 L255.077758,2622.6551 L255.077758,2617.09111 L256.65642,2618.6692 L256.65642,2624.29826 L258.202532,2624.29826 L258.202532,2620.19848 L260.904159,2622.89913 L261.994575,2621.80911 L259.292948,2619.10846 L263.394213,2619.10846 L263.394213,2617.56291 L257.76311,2617.56291 L256.184448,2615.98482 L261.750452,2615.98482 L261.750452,2614.43926 L254.638336,2614.43926 L253.108499,2612.90998 L261.099458,2612.90998 L255.403255,2607.21584 L257.584087,2607.21584 L262.61302,2612.24295 L263.703436,2611.15293 L259.764919,2607.24837 L262.01085,2607.24837 L265.998192,2611.23427 L267.088608,2610.14425 L264.175407,2607.24837 L268,2607.24837 L268,2605.70282 Z M248.027654,2607.88244 L246.93152,2608.97857 L250.465328,2612.51238 L250.465328,2618.41842 L246.309831,2614.26293 L246.309831,2609.2567 L244.75561,2609.2567 L244.75561,2614.26293 L240.583753,2618.43478 L240.583753,2612.56146 L244.117561,2609.02765 L243.021426,2607.93152 L239.487618,2611.46533 L233.581578,2611.46533 L237.737074,2607.30983 L242.743302,2607.30983 L242.743302,2605.75561 L237.737074,2605.75561 L233.565217,2601.58375 L239.438537,2601.58375 L242.972346,2605.11756 L244.06848,2604.02143 L240.534672,2600.48762 L240.534672,2594.58158 L244.690169,2598.73707 L244.690169,2603.7433 L246.24439,2603.7433 L246.24439,2598.73707 L250.416247,2594.56522 L250.416247,2600.43854 L246.882439,2603.97235 L247.978574,2605.06848 L251.512382,2601.53467 L257.418422,2601.53467 L253.262926,2605.69017 L248.256698,2605.69017 L248.256698,2607.24439 L253.262926,2607.24439 L257.434783,2611.41625 L251.561463,2611.41625 L248.027654,2607.88244 Z" id="snowflake_35_" transform="translate(245.500000, 2606.500000) rotate(-19.000000) translate(-245.500000, -2606.500000) "></path>
        </g>
    </g>
</svg>