<?xml version="1.0" encoding="UTF-8"?>
<svg width="111px" height="111px" viewBox="0 0 111 111" version="1.1" xmlns="http://www.w3.org/2000/svg" xmlns:xlink="http://www.w3.org/1999/xlink">
    <!-- Generator: Sketch 51.2 (57519) - http://www.bohemiancoding.com/sketch -->
    <title>snowflake_35_</title>
    <desc>Created with Sketch.</desc>
    <defs>
        <radialGradient cx="50%" cy="50%" fx="50%" fy="50%" r="33.0260266%" id="radialGradient-1">
            <stop stop-color="#0B3674" offset="0%"></stop>
            <stop stop-color="#5DB0E3" offset="100%"></stop>
        </radialGradient>
    </defs>
    <g id="Welcome" stroke="none" stroke-width="1" fill="none" fill-rule="evenodd">
        <g id="Desktop" transform="translate(-120.000000, -153.000000)" fill="url(#radialGradient-1)" fill-rule="nonzero">
            <g id="Group-6" transform="translate(102.000000, 135.000000)">
                <path d="M131,71.4627621 L121.22604,71.4627621 L128.629295,64.0621837 L125.842676,61.2765727 L115.652803,71.4627621 L109.913201,71.4627621 L119.9783,61.4013015 L117.191682,58.6156905 L104.339964,71.4627621 L98.8083183,71.4627621 L113.323689,56.9526392 L92.7359855,56.9526392 L96.6455696,53.0444685 L114.820976,53.0444685 L114.820976,49.0947216 L100.596745,49.0947216 L104.631103,45.0618221 L119.0217,45.0618221 L119.0217,41.1120752 L108.540687,41.1120752 L115.444846,34.2104121 L112.658228,31.4248012 L105.754069,38.3264642 L105.754069,27.8492408 L101.802893,27.8492408 L101.802893,42.2346349 L97.7685353,46.2675343 L97.7685353,32.0900217 L93.8173599,32.0900217 L93.8173599,50.2588576 L89.9077758,54.1670282 L89.9077758,33.6699205 L75.3508137,48.2216197 L75.3508137,42.6503977 L88.2025316,29.8033261 L85.4159132,27.0177151 L75.3508137,37.0791757 L75.3508137,31.3832249 L85.5406872,21.1970354 L82.7540687,18.4114244 L75.3508137,25.8120029 L75.3508137,16 L71.3996383,16 L71.3996383,25.7704266 L63.9963834,18.3698482 L61.2097649,21.1554591 L71.3996383,31.3416486 L71.3996383,37.0791757 L61.3345389,27.0177151 L58.5479204,29.8033261 L71.3996383,42.6503977 L71.3996383,48.2216197 L56.8842676,33.7114967 L56.8842676,54.291757 L52.9746835,50.3835864 L52.9746835,32.1731743 L49.0235081,32.1731743 L49.0235081,46.3922632 L44.9891501,42.3593637 L44.9891501,27.9739696 L41.0379747,27.9739696 L41.0379747,38.4096168 L34.1338156,31.5079537 L31.3471971,34.2935647 L38.2513562,41.1952278 L27.7703436,41.1952278 L27.7703436,45.1449747 L42.244123,45.1449747 L46.278481,49.1778742 L32.0542495,49.1778742 L32.0542495,53.1276211 L50.2296564,53.1276211 L54.1392405,57.0357918 L33.6347197,57.0357918 L48.1916817,71.587491 L42.6600362,71.587491 L29.8083183,58.7819957 L27.0216998,61.5676067 L37.0867993,71.6290672 L31.3471971,71.6290672 L21.1573237,61.4428778 L18.3707052,64.2284888 L25.7739602,71.6290672 L16,71.6290672 L16,75.5788142 L25.7739602,75.5788142 L18.3707052,82.9793926 L21.1573237,85.7650036 L31.3471971,75.5788142 L37.0867993,75.5788142 L27.0216998,85.6402748 L29.8083183,88.4258858 L42.6600362,75.5788142 L48.2332731,75.5788142 L33.7179024,90.0889371 L54.3056058,90.0889371 L50.3960217,93.9971077 L32.2206148,93.9971077 L32.2206148,97.9468547 L46.403255,97.9468547 L42.3688969,101.979754 L27.9783002,101.979754 L27.9783002,105.929501 L38.4593128,105.929501 L31.5551537,112.831164 L34.3417722,115.616775 L41.2459313,108.715112 L41.2459313,119.192336 L45.1971067,119.192336 L45.1971067,104.806941 L49.2314647,100.774042 L49.2314647,114.909978 L53.1826401,114.909978 L53.1826401,96.7411424 L57.0922242,92.8329718 L57.0922242,113.33008 L71.6491863,98.7783803 L71.6491863,104.349602 L58.7974684,117.196674 L61.5840868,119.982285 L71.6491863,109.920824 L71.6491863,115.658351 L61.4593128,125.844541 L64.2459313,128.630152 L71.6491863,121.229573 L71.6491863,131 L75.6003617,131 L75.6003617,121.229573 L83.0036166,128.630152 L85.7902351,125.844541 L75.6003617,115.658351 L75.6003617,109.920824 L85.6654611,119.982285 L88.4520796,117.196674 L75.6003617,104.349602 L75.6003617,98.7783803 L90.1157324,113.288503 L90.1157324,92.708243 L94.0253165,96.6164136 L94.0253165,114.785249 L97.9764919,114.785249 L97.9764919,100.566161 L102.01085,104.59906 L102.01085,118.984454 L105.962025,118.984454 L105.962025,108.507231 L112.866184,115.408894 L115.652803,112.623283 L108.748644,105.72162 L119.229656,105.72162 L119.229656,101.771873 L104.83906,101.771873 L100.804702,97.7389732 L115.028933,97.7389732 L115.028933,93.7892263 L96.8535262,93.7892263 L92.9439421,89.8810557 L113.36528,89.8810557 L98.8083183,75.3293565 L104.381555,75.3293565 L117.233273,88.1764281 L120.019892,85.3908171 L109.954792,75.412509 L115.694394,75.412509 L125.884268,85.5986985 L128.670886,82.8130875 L121.22604,75.412509 L131,75.412509 L131,71.4627621 Z M79.9595613,77.0328992 L77.1583276,79.834133 L86.1891707,88.864976 L86.1891707,103.958191 L75.5695682,93.3385881 L75.5695682,80.5448938 L71.5976696,80.5448938 L71.5976696,93.3385881 L60.9362577,104 L60.9362577,88.9904044 L69.9671008,79.9595613 L67.165867,77.1583276 L58.135024,86.1891707 L43.0418095,86.1891707 L53.6614119,75.5695682 L66.4551062,75.5695682 L66.4551062,71.5976696 L53.6614119,71.5976696 L43,60.9362577 L58.0095956,60.9362577 L67.0404387,69.9671008 L69.8416724,67.165867 L60.8108293,58.135024 L60.8108293,43.0418095 L71.4304318,53.6614119 L71.4304318,66.4551062 L75.4023304,66.4551062 L75.4023304,53.6614119 L86.0637423,43 L86.0637423,58.0095956 L77.0328992,67.0404387 L79.834133,69.8416724 L88.864976,60.8108293 L103.958191,60.8108293 L93.3385881,71.4304318 L80.5448938,71.4304318 L80.5448938,75.4023304 L93.3385881,75.4023304 L104,86.0637423 L88.9904044,86.0637423 L79.9595613,77.0328992 Z" id="snowflake_35_" transform="translate(73.500000, 73.500000) rotate(-19.000000) translate(-73.500000, -73.500000) "></path>
            </g>
        </g>
    </g>
</svg>