<?xml version="1.0" encoding="UTF-8"?>
<svg width="45px" height="45px" viewBox="0 0 45 45" version="1.1" xmlns="http://www.w3.org/2000/svg" xmlns:xlink="http://www.w3.org/1999/xlink">
    <!-- Generator: Sketch 51.2 (57519) - http://www.bohemiancoding.com/sketch -->
    <title>snowflake_36_</title>
    <desc>Created with Sketch.</desc>
    <defs></defs>
    <g id="Welcome" stroke="none" stroke-width="1" fill="none" fill-rule="evenodd">
        <g id="Desktop-Copy" transform="translate(-125.000000, -1259.000000)" fill="#5DB0E3" fill-rule="nonzero">
            <g id="Group-16" transform="translate(106.000000, 555.000000)">
                <g id="Group-14" transform="translate(19.000000, 704.000000)">
                    <path d="M44.9026325,21.8822254 L41.3487198,21.8822254 L43.2960692,19.9313584 L42.4035341,19.037211 L39.5798774,21.8659682 L36.3505229,21.8659682 L40.5048684,17.6878613 L39.6123332,16.7937139 L34.5654526,21.849711 L32.1474937,21.849711 L33.8189686,20.1752168 L33.8351965,20.1752168 L33.8351965,20.1589595 L36.6426253,17.3464595 L36.8049044,17.3464595 L36.8049044,17.1838873 L37.1456906,16.8424855 L36.8049044,16.5010838 L36.8049044,16.078396 L36.3992066,16.078396 L36.2693833,15.9483382 L36.13956,16.078396 L32.1961774,16.078396 L32.1637216,16.0458815 L32.1312658,16.078396 L29.7457627,16.078396 L31.4496935,14.3713873 L38.5899748,14.3713873 L38.5899748,13.1033237 L32.6992427,13.1033237 L34.9711504,10.8273121 L38.9956726,10.8273121 L38.9956726,9.55924855 L36.2531554,9.55924855 L38.7684818,7.03937861 L37.8759466,6.14523121 L35.3606203,8.66510116 L35.3606203,5.91763006 L34.0948431,5.91763006 L34.0948431,9.93316474 L31.8229354,12.2091763 L31.8229354,6.30780347 L30.5571583,6.30780347 L30.5571583,13.4609827 L28.8532276,15.1679913 L28.8532276,12.7944364 L28.8694555,12.7781792 L28.8532276,12.761922 L28.8532276,8.77890173 L28.9668229,8.66510116 L28.8532276,8.55130058 L28.8532276,8.07984104 L28.3826181,8.07984104 L28.0742878,7.77095376 L27.7659574,8.07984104 L27.5874504,8.07984104 L27.5874504,8.25867052 L24.7962495,11.0549133 L24.7637937,11.0549133 L24.7637937,11.0874277 L23.0760909,12.7781792 L23.0760909,10.3558526 L28.1229715,5.29985549 L27.2304364,4.40570809 L23.059863,8.5675578 L23.059863,5.33236994 L25.8835197,2.50361272 L24.9909845,1.60946532 L23.0436351,3.56033237 L23.0436351,0 L21.7778579,0 L21.7778579,3.56033237 L19.8305085,1.60946532 L18.9379733,2.50361272 L21.76163,5.33236994 L21.76163,8.5675578 L17.5910566,4.40570809 L16.6985215,5.29985549 L21.7454021,10.3558526 L21.7454021,12.7781792 L20.0739272,11.103685 L20.0739272,11.0874277 L20.0576992,11.0874277 L17.2502705,8.27492775 L17.2502705,8.11235549 L17.0879913,8.11235549 L16.7472052,7.77095376 L16.406419,8.11235549 L15.9844933,8.11235549 L15.9844933,8.53504335 L15.85467,8.66510116 L15.9844933,8.79515896 L15.9844933,12.7944364 L15.9520375,12.8269509 L15.9844933,12.8594653 L15.9844933,15.2655347 L14.2805626,13.558526 L14.2805626,6.40534682 L13.0147854,6.40534682 L13.0147854,12.3067197 L10.7428777,10.0307081 L10.7428777,6.01517341 L9.47710061,6.01517341 L9.47710061,8.73013006 L7.0266859,6.21026012 L6.13415074,7.10440751 L8.6494771,9.62427746 L5.90695997,9.62427746 L5.90695997,10.892341 L9.91525424,10.892341 L12.1871619,13.1683526 L6.29642986,13.1683526 L6.29642986,14.4364162 L13.4367111,14.4364162 L15.1406419,16.1434249 L12.7713668,16.1434249 L12.7551388,16.1271676 L12.7389109,16.1434249 L8.76307248,16.1434249 L8.6494771,16.0296243 L8.53588172,16.1434249 L8.06527227,16.1434249 L8.06527227,16.6148844 L7.75694194,16.9237717 L8.06527227,17.232659 L8.06527227,17.4114884 L8.2437793,17.4114884 L11.0349802,20.2077312 L11.0349802,20.2402457 L11.067436,20.2402457 L12.7551388,21.9309971 L10.3371799,21.9309971 L5.29029931,16.875 L4.39776415,17.7691474 L8.55210963,21.9472543 L5.32275514,21.9472543 L2.49909845,19.1184971 L1.60656329,20.0126445 L3.55391273,21.9635116 L0,21.9635116 L0,23.2315751 L3.55391273,23.2315751 L1.60656329,25.1824422 L2.49909845,26.0765896 L5.32275514,23.2478324 L8.55210963,23.2478324 L4.43021998,27.3609104 L5.32275514,28.2550578 L10.3696358,23.1990607 L12.7875947,23.1990607 L11.1161197,24.8735549 L11.0998918,24.8735549 L11.0998918,24.8898121 L8.29246304,27.7023121 L8.13018392,27.7023121 L8.13018392,27.8648844 L7.78939776,28.2062861 L8.13018392,28.5476879 L8.13018392,28.9703757 L8.55210963,28.9703757 L8.68193292,29.1004335 L8.81175622,28.9703757 L12.7551388,28.9703757 L12.7875947,29.0028902 L12.8200505,28.9703757 L15.2217815,28.9703757 L13.4853949,30.6773844 L6.3451136,30.6773844 L6.3451136,31.945448 L12.2358457,31.945448 L9.96393797,34.2214595 L5.95564371,34.2214595 L5.95564371,35.4895231 L8.69816084,35.4895231 L6.18283448,38.0093931 L7.07536964,38.9035405 L9.590696,36.3836705 L9.590696,39.1311416 L10.8564731,39.1311416 L10.8564731,35.1156069 L13.1283808,32.8395954 L13.1283808,38.7409682 L14.394158,38.7409682 L14.394158,31.587789 L16.0980887,29.8807803 L16.0980887,32.2543353 L16.0818608,32.2705925 L16.0980887,32.2868497 L16.0980887,36.2698699 L15.9844933,36.3836705 L16.0980887,36.4974711 L16.0980887,36.9689306 L16.5686982,36.9689306 L16.8770285,37.2778179 L17.1853588,36.9689306 L17.3638658,36.9689306 L17.3638658,36.7901012 L20.1550667,33.9938584 L20.1875225,33.9938584 L20.1875225,33.9288295 L21.8752254,32.238078 L21.8752254,34.6604046 L16.8283448,39.7164017 L17.7208799,40.6105491 L21.8914533,36.4324422 L21.8914533,39.6676301 L19.0353408,42.4963873 L19.9278759,43.3905347 L21.8752254,41.4396676 L21.8752254,45 L23.1410025,45 L23.1410025,41.4396676 L25.088352,43.3905347 L25.9808871,42.4963873 L23.1572304,39.6676301 L23.1572304,36.4324422 L27.3278038,40.6105491 L28.220339,39.7164017 L23.1734583,34.6604046 L23.1734583,32.238078 L24.8449333,33.9125723 L24.8449333,33.9288295 L24.8611612,33.9288295 L27.66859,36.7413295 L27.66859,36.9039017 L27.8308691,36.9039017 L28.1716552,37.2453035 L28.5124414,36.9039017 L28.9343671,36.9039017 L28.9343671,36.4812139 L29.0641904,36.3511561 L28.9343671,36.2210983 L28.9343671,32.2705925 L28.9668229,32.238078 L28.9343671,32.2055636 L28.9343671,29.7994942 L30.6382979,31.5065029 L30.6382979,38.6596821 L31.904075,38.6596821 L31.904075,32.7908237 L34.1759827,35.0668353 L34.1759827,39.0823699 L35.4417598,39.0823699 L35.4417598,36.3348988 L37.9570862,38.8547688 L38.8496213,37.9606214 L36.334295,35.4407514 L39.0768121,35.4407514 L39.0768121,34.1726879 L35.0685179,34.1726879 L32.7966102,31.8966763 L38.6873422,31.8966763 L38.6873422,30.6286127 L31.5470609,30.6286127 L29.8431302,28.921604 L32.2124053,28.921604 L32.2286332,28.9378613 L32.2448612,28.921604 L36.2206996,28.921604 L36.334295,29.0354046 L36.4478904,28.921604 L36.9184998,28.921604 L36.9184998,28.4501445 L37.2268301,28.1412572 L36.9184998,27.8323699 L36.9184998,27.6535405 L36.7399928,27.6535405 L33.9487919,24.8572977 L33.9487919,24.8247832 L33.9163361,24.8247832 L32.2286332,23.1340318 L34.6465921,23.1340318 L39.6934728,28.1900289 L40.5860079,27.2958815 L36.4316625,23.1340318 L39.6610169,23.1340318 L42.4846736,25.962789 L43.3772088,25.0686416 L41.4460873,23.1177746 L45,23.1177746 L45,21.8822254 L44.9026325,21.8822254 Z M24.8753623,23.9507246 L23.9985507,24.8275362 L24.8115942,25.6405797 L24.8115942,28 L23.1536232,26.342029 L23.1536232,25.1942029 L21.9101449,25.1942029 L21.9101449,26.342029 L20.2521739,28 L20.2521739,25.6724638 L21.0652174,24.8594203 L20.1884058,23.9826087 L19.3753623,24.7956522 L17.015942,24.7956522 L18.657971,23.1536232 L19.8057971,23.1536232 L19.8057971,21.9101449 L18.657971,21.9101449 L17,20.2521739 L19.3275362,20.2521739 L20.1405797,21.0652174 L21.0173913,20.1884058 L20.2043478,19.3753623 L20.2043478,17.015942 L21.8463768,18.657971 L21.8463768,19.8057971 L23.0898551,19.8057971 L23.0898551,18.657971 L24.7478261,17 L24.7478261,19.3275362 L23.9347826,20.1405797 L24.8115942,21.0173913 L25.6246377,20.2043478 L27.984058,20.2043478 L26.342029,21.8463768 L25.1942029,21.8463768 L25.1942029,23.0898551 L26.342029,23.0898551 L28,24.7478261 L25.6724638,24.7478261 L24.8753623,23.9507246 Z M28,22 L29.7166667,20 L32,20 L30.2833333,22 L28,22 Z M31,19 L32.6581197,17 L35,17 L33.3418803,19 L31,19 Z M29.4163265,19 L27,19 L28.5836735,17 L31,17 L29.4163265,19 Z M26,18 L26,15.5967078 L28,14 L28,16.4032922 L26,18 Z M26,14 L26,11.6581197 L28,10 L28,12.3418803 L26,14 Z M25,15.2738589 L23,17 L23,14.7261411 L25,13 L25,15.2738589 Z M22,17 L20,15.2833333 L20,13 L22,14.7166667 L22,17 Z M19,14 L17,12.3418803 L17,10 L19,11.6581197 L19,14 Z M19,15.5836735 L19,18 L17,16.4163265 L17,14 L19,15.5836735 Z M18,19 L15.5967078,19 L14,17 L16.4032922,17 L18,19 Z M14,19 L11.6581197,19 L10,17 L12.3418803,17 L14,19 Z M15.2738589,20 L17,22 L14.7261411,22 L13,20 L15.2738589,20 Z M17,23 L15.2833333,25 L13,25 L14.7166667,23 L17,23 Z M14,26 L12.3418803,28 L10,28 L11.6581197,26 L14,26 Z M15.5836735,26 L18,26 L16.4163265,28 L14,28 L15.5836735,26 Z M19,27 L19,29.4032922 L17,31 L17,28.5967078 L19,27 Z M19,31 L19,33.3418803 L17,35 L17,32.6581197 L19,31 Z M20,29.7261411 L22,28 L22,30.2738589 L20,32 L20,29.7261411 Z M23,28 L25,29.7095436 L25,32 L23,30.2904564 L23,28 Z M26,31 L28,32.6581197 L28,35 L26,33.3418803 L26,31 Z M26,29.4163265 L26,27 L28,28.5836735 L28,31 L26,29.4163265 Z M27,26 L29.4032922,26 L31,28 L28.5967078,28 L27,26 Z M31,26 L33.3418803,26 L35,28 L32.6581197,28 L31,26 Z M29.7261411,25 L28,23 L30.2738589,23 L32,25 L29.7261411,25 Z" id="snowflake_36_"></path>
                </g>
            </g>
        </g>
    </g>
</svg>