<?xml version="1.0" encoding="UTF-8"?>
<svg width="1408px" height="120px" viewBox="0 0 1408 120" version="1.1" xmlns="http://www.w3.org/2000/svg" xmlns:xlink="http://www.w3.org/1999/xlink">
    <!-- Generator: Sketch 53.2 (72643) - https://sketchapp.com -->
    <title>Group 9</title>
    <desc>Created with Sketch.</desc>
    <defs>
        <linearGradient x1="50%" y1="13.5528135%" x2="50%" y2="100%" id="linearGradient-1">
            <stop stop-color="#1E66AC" offset="0%"></stop>
            <stop stop-color="#0D3674" offset="100%"></stop>
        </linearGradient>
    </defs>
    <g id="Welcome" stroke="none" stroke-width="1" fill="none" fill-rule="evenodd">
        <g id="Desktop">
            <g id="Nav">
                <g id="Group-9">
                    <g id="Group-10">
                        <g id="Icicles_clip_art" transform="translate(213.596221, 23.200000)" fill="#0D3674">
                            <path d="M0,0.0854363908 C0,0.0854363908 0,4.10098027 0.5026859,5.21166053 C1.0053718,6.32234318 2.51342481,8.45826969 3.01611066,9.56895234 C3.51879656,10.679635 2.68098985,12.8155615 4.02148246,14.6951765 C5.36197506,16.5747914 6.36734686,16.9165418 6.19978646,18.7961567 C6.03222137,20.6757717 6.03222137,20.1631485 6.53490727,21.0175196 C7.03759317,21.8718907 7.37271866,25.289375 7.37271866,25.289375 C7.62405927,26.3573395 9.88614347,26.1864643 10.0537039,25.3748114 C10.4045279,23.6754588 9.71857838,22.2136386 10.3888247,21.4447063 C11.059071,20.6757717 11.8968824,20.5903353 12.5671287,19.3087798 C13.237375,18.027222 13.9076213,17.1728509 14.2427515,16.3184822 C14.5778723,15.4641111 14.4103119,14.7806128 15.2481233,14.4388649 C16.08593,14.0971169 15.7508045,12.7301251 15.9183696,12.1320656 C16.08593,11.5340061 16.2534904,10.337887 17.7615481,10.4233234 C19.2696011,10.5087598 20.2749729,13.3281846 20.2749729,15.2077996 C20.2749729,17.0874145 21.4479051,17.5146013 21.6154655,18.4544087 C21.7830306,19.3942162 22.2857165,21.7010179 22.7883977,22.4699502 C23.2910836,23.2388849 24.4640158,23.7515056 24.128895,24.6058767 C23.7937695,25.4602478 23.8775497,27.4680173 24.7991413,27.5961743 C26.3327548,27.8094376 26.9774453,26.9981148 27.815252,26.9981148 C28.6530587,26.9981148 28.8206238,28.6214206 28.8206238,29.1340413 C28.8206238,29.6466644 29.3233097,31.9534661 29.4908701,32.636962 C29.6584305,33.320458 29.6584305,35.7981324 29.993556,38.0194977 C30.1231416,38.8713091 29.8259909,40.8389225 30.3286768,42.120478 C30.8313627,43.4020334 30.6638023,44.4272797 30.9989231,45.196212 C31.3340486,45.9651467 30.8313627,47.930198 32.5069808,47.930198 C34.1825989,47.930198 34.0150385,47.1612657 34.6852848,45.2816484 C35.3555311,43.4020334 34.3501593,42.9748491 35.0204056,42.2059144 C35.6906519,41.4369821 36.8635841,40.3262994 36.5284633,39.3010532 C36.1933378,38.2758093 35.858217,37.0796902 36.5284633,36.5670671 C37.1987096,36.0544464 37.5338351,34.7728886 37.5338351,33.8330811 C37.5338351,32.8932736 36.5284633,32.8078372 37.7013955,31.9534661 C38.8743277,31.0990951 38.2040814,28.1942338 38.8743277,27.16899 C39.544574,26.1437437 40.7175062,25.5456842 40.5499458,23.2388849 C40.3823807,20.9320832 40.2148203,18.7961567 40.8850666,18.027222 C41.5553129,17.2582897 41.3877525,16.0621707 42.7282451,16.3184822 C44.0687424,16.5747914 43.9011773,16.7456666 44.2363028,18.1980972 C44.5714283,19.6505278 44.7389901,22.2990774 44.9065505,22.9825733 C45.0741109,23.6660692 45.4092364,24.3495652 46.0794827,24.9476247 C46.749729,25.5456842 48.0902263,27.6816131 48.0902263,28.365109 C48.0902263,29.0486049 49.2631585,30.6719107 49.0955935,31.1845314 C48.928033,31.6971546 47.7551008,32.8078372 48.5929076,33.6622083 C49.4307189,34.516577 49.2631585,35.2855117 49.4307189,35.9690076 C49.5982794,36.6525059 49.7658398,38.0194977 50.1009653,38.7884324 C50.4360907,39.5573647 52.4468297,40.8389225 52.9495156,39.3010532 C53.4522015,37.7631862 54.2900082,36.5670671 54.4575686,35.2000753 C54.6251337,33.8330811 53.9548874,33.5767695 54.2900082,32.4660893 C54.6251337,31.3554066 55.1278196,30.5864719 54.9602545,29.7321008 C54.7926941,28.8777321 55.29538,26.827242 55.29538,25.5456842 C55.29538,24.2641288 56.1331867,23.2388849 56.4683122,22.6408254 C56.803433,22.0427659 56.803433,21.4447063 57.6412444,20.5903353 C58.4790511,19.7359642 59.1492974,17.0019781 61.3276014,17.8563492 C63.5059054,18.7107203 66.5220161,21.8718907 66.5220161,23.5806329 C66.5220161,25.289375 68.3651946,25.4602478 68.7003201,26.5709305 C69.0354409,27.6816131 69.7056872,31.440843 69.8732523,32.1243389 C70.0408127,32.8078372 71.0461845,41.4369821 71.7164308,42.8894103 C72.3866771,44.3418409 72.7218026,44.6835888 72.889363,46.3068946 C73.0569234,47.930198 72.2191167,48.1010732 72.889363,49.6389402 C73.5596093,51.1768072 74.5649811,53.3127337 74.5649811,54.2525411 C74.5649811,55.192351 75.5703482,54.9360395 75.5703482,55.7049718 C75.5703482,56.4739064 74.397416,57.071966 74.7325415,58.609833 C75.067667,60.1477 75.2352274,64.419553 76.0730341,65.3593629 C76.9108455,66.2991703 75.9054737,68.4350968 76.2405992,69.0331564 C76.57572,69.6312159 75.7379133,70.2292754 76.2405992,71.9380176 C76.7432804,73.6467573 77.5810918,77.3205532 77.9162126,78.9438566 C78.2513381,80.56716 78.5864636,81.6778427 78.4188985,83.0448369 C78.2513381,84.4118287 79.2567099,85.3516362 79.2567099,86.291446 C79.2567099,87.2312535 78.9215844,90.1361123 80.4296421,90.3069875 C81.9376951,90.4778627 82.9430669,90.6487355 83.1106273,88.5128089 C83.2781924,86.3768824 82.9430669,82.4467774 83.2781924,81.2506583 C83.6133132,80.0545393 84.618685,78.0040492 84.4511246,76.7224937 C84.2835595,75.4409359 83.2781924,73.9030689 83.6133132,73.1341366 C83.9484387,72.3652019 84.7862454,70.0584002 84.7862454,69.2040291 C84.7862454,68.3496604 84.618685,66.5554819 84.618685,65.7011108 C84.618685,64.8467397 83.4452789,63.7401741 84.4511246,62.881686 C88.305042,59.5923586 86.0429625,57.3282775 87.2158947,56.3884677 C88.3888269,55.4486602 88.6401675,55.4486602 88.6401675,52.9709857 C88.6401675,50.4933112 89.8130997,49.6389402 89.6455346,48.271946 C89.4779742,46.9049541 88.6401675,45.8797079 89.8130997,44.9399004 C90.9860319,44.0000929 89.6455346,40.582611 90.483346,39.5573647 C91.3211527,38.5321209 90.9860319,37.7631862 91.3211527,36.5670671 C91.6562782,35.3709481 91.3211527,35.6272596 91.8238386,34.6874522 C92.3265245,33.7476447 93.3318963,34.0893926 92.66165,32.4660893 C91.991399,30.8427835 92.9967708,30.6719107 92.8292104,29.7321008 C92.66165,28.7922934 92.8292104,23.4951965 93.1643312,22.4699502 C93.4994567,21.4447063 92.4940849,20.0777121 93.6670171,19.3942162 C94.8399493,18.7107203 95.5101956,18.6252815 96.0128815,21.0175196 C96.5155674,23.4097577 97.1858137,26.0583073 98.0236251,27.16899 C98.8614318,28.2796726 99.8668036,31.2699702 100.53705,32.4660893 C101.207296,33.6622083 102.882914,34.4311406 102.547789,36.3107556 C102.212668,38.1903729 103.3856,38.5321209 103.553161,39.7282399 C103.720721,40.9243589 103.3856,42.7185375 104.893653,42.4622259 C106.401711,42.2059144 106.904397,41.6078548 107.071957,39.4719283 C107.239518,37.3360018 108.244889,36.4816307 108.580015,35.6272596 C108.915136,34.7728886 108.244889,33.6622083 108.580015,31.9534661 C108.915136,30.244724 108.915136,29.1340413 109.417822,28.1942338 C109.920508,27.2544264 111.428565,24.7767519 111.09344,24.1786924 C110.758314,23.5806329 111.428565,20.4194601 111.428565,20.4194601 C111.428565,20.4194601 112.601497,18.7961567 113.439304,20.761208 C114.277111,22.7262618 113.271744,25.8874345 114.10955,26.9126784 C114.947362,27.9379223 115.282483,29.1340413 115.450043,30.4155991 C115.617608,31.6971546 116.287854,33.9185175 117.293226,33.2350216 C118.298593,32.5515257 119.471526,29.9884124 119.471526,28.9631685 C119.471526,27.9379223 119.303965,26.6563668 119.974211,25.631123 C120.644458,24.6058767 119.920205,22.9585648 120.476897,21.4447063 C121.984955,17.3437261 122.487636,18.7107203 126.844244,17.3437261 C131.200848,15.9767319 130.19548,15.293236 133.881838,16.2330434 C137.568195,17.1728509 139.243813,19.9068393 140.081619,20.761208 C140.919431,21.6155791 140.919431,23.7515056 141.757237,24.4350039 C142.595049,25.1184999 142.595049,27.6816131 143.097735,28.706857 C143.600416,29.7321008 142.259923,30.8427835 143.265295,31.6117182 C144.270667,32.3806505 144.940913,33.4913331 143.767981,34.7728886 C142.595049,36.0544464 145.108474,39.5573647 145.77872,40.6680474 C146.448966,41.77873 147.119213,45.196212 147.454338,46.1360194 C147.789464,47.0758269 147.621898,50.1515633 149.800202,49.6389402 C151.978506,49.126317 152.146067,48.0156368 152.146067,46.6486426 C152.146067,45.2816484 151.475821,44.5981524 152.816313,43.1457218 C154.156806,41.6932912 154.659492,38.1903729 154.156806,37.3360018 C153.654125,36.4816307 154.994617,36.5670671 155.162178,35.7981348 C155.329738,35.0292001 155.664863,33.320458 156.50267,32.2952141 C157.340482,31.2699702 155.162178,30.4155991 156.670235,29.8175396 C158.178288,29.2194801 160.021467,26.4854941 159.853906,25.631123 C159.686346,24.7767519 160.524153,23.2388849 160.859278,22.2136386 C161.194399,21.1883948 162.870017,16.5747914 162.870017,15.3786724 C162.870017,14.1825533 164.713196,11.1922557 167.729311,13.755369 C170.745422,16.3184822 169.74005,20.5048989 170.242736,21.0175196 C170.745422,21.5301427 171.080542,25.8019958 171.415668,27.16899 C171.750789,28.5359818 174.431779,30.7573471 173.258846,31.9534661 C172.085914,33.1495852 171.750789,36.1398828 172.923726,36.7379423 C174.096658,37.3360018 171.415668,38.2758093 172.5886,39.3010532 C173.761532,40.3262994 174.096658,42.9748491 174.264218,43.7437814 C174.431779,44.5127161 175.939836,45.2816484 175.604711,46.2214582 C175.26959,47.1612657 174.934465,52.1166146 176.274957,54.0816684 C177.615454,56.0467197 176.610083,57.3282775 176.945203,58.4389578 C177.280329,59.5496404 177.280329,61.6855669 178.620822,62.1981901 C179.961319,62.7108132 182.307183,62.1127537 181.804497,61.2583826 C181.301811,60.4040115 181.301811,59.9768272 182.307183,58.7807081 C183.31255,57.5845891 183.647676,56.9010908 183.647676,55.4486602 C183.647676,53.996232 184.317922,54.0816684 184.317922,53.2272973 C184.317922,52.3729262 182.809865,52.5438014 184.150362,50.9204956 C185.490854,49.2971922 186.161101,47.7593252 186.161101,46.2214582 C186.161101,44.6835888 186.328661,43.4020334 186.663787,42.120478 C186.998912,40.8389225 188.506965,40.9243589 188.339405,38.8738688 C188.171844,36.8233787 186.831347,37.0796902 188.506965,35.9690076 C190.182583,34.8583273 190.350144,35.9690076 189.847458,33.2350216 C189.344777,30.5010355 187.501593,29.902976 189.009651,28.9631685 C190.517709,28.0233611 191.690641,23.5806329 191.355515,22.2990774 C191.02039,21.0175196 190.182583,20.5903353 190.685269,19.6505278 C191.187955,18.7107203 191.523076,17.3437261 191.523076,16.6602302 C191.523076,15.9767319 193.86894,11.7903152 193.86894,11.2776945 C193.86894,10.7650714 195.376998,8.03108535 196.38237,9.65438873 C197.387737,11.2776945 196.38237,12.9009979 196.717491,13.413621 C197.052616,13.9262442 196.885051,18.7961567 197.555302,19.6505278 C198.225548,20.5048989 199.063355,23.0680097 199.063355,24.0078172 C199.063355,24.9476247 198.560669,25.0330635 198.895795,26.4000553 C199.230915,27.7670495 200.236287,27.4253015 200.571413,27.9379223 C200.906533,28.4505454 200.236287,30.8427835 202.079466,30.8427835 C203.922644,30.8427835 203.084837,28.6214206 203.587523,28.2796726 C204.090209,27.9379223 204.592895,27.16899 205.263141,25.4602478 C205.933388,23.7515056 206.436074,24.1786924 207.10632,22.7262618 C207.776566,21.2738312 206.100948,21.5301427 206.93876,20.3340237 C207.776566,19.1379047 207.609006,16.5747914 208.279252,15.8058591 C208.949498,15.0369244 208.111692,14.6951765 209.284624,13.4990574 C210.457556,12.3029384 210.122431,11.875754 211.798049,9.9107003 C213.473667,7.94564895 211.798049,3.58835714 212.635855,2.3922381 C213.473667,1.19611904 213.138541,0 213.138541,0 L0,0.0854363908 Z" id="path1381"></path>
                        </g>
                        <g id="Icicles_clip_art" transform="translate(527.201134, 51.300000) scale(-1, 1) translate(-527.201134, -51.300000) translate(0.701134, 20.800000)" fill="#0D3674">
                            <path d="M0,5.07963823 C0,5.07963823 0,9.09496607 0.5026859,10.2055866 C1.0053718,11.3162095 2.51342481,13.4520211 3.01611066,14.562644 C3.51879656,15.6732669 2.68098985,17.8090785 4.02148246,19.6885923 C5.36197506,21.5681061 6.36734686,21.9098381 6.19978646,23.7893519 C6.03222137,25.6688657 6.03222137,25.1562702 6.53490727,26.0105953 C7.03759317,26.8649204 7.37271866,30.2822209 7.37271866,30.2822209 C7.62405927,31.3501279 9.88614347,31.1792619 10.0537039,30.3676527 C10.4045279,28.6683915 9.71857838,27.20665 10.3888247,26.4377591 C11.059071,25.6688657 11.8968824,25.5834339 12.5671287,24.3019475 C13.237375,23.0204586 13.9076213,22.1661335 14.2427515,21.3118107 C14.5778723,20.4574856 14.4103119,19.7740241 15.2481233,19.4322945 C16.08593,19.0905649 15.7508045,17.7236467 15.9183696,17.1256193 C16.08593,16.527592 16.2534904,15.3315373 17.7615481,15.4169691 C19.2696011,15.5024009 20.2749729,18.321674 20.2749729,20.2011878 C20.2749729,22.0807017 21.4479051,22.5078654 21.6154655,23.4476223 C21.7830306,24.3873792 22.2857165,26.6940568 22.7883977,27.4629478 C23.2910836,28.2318411 24.4640158,28.7444342 24.128895,29.5987594 C23.7937695,30.4530845 23.8775497,32.460746 24.7991413,32.5888961 C26.3327548,32.8021478 26.9774453,31.9908687 27.815252,31.9908687 C28.6530587,31.9908687 28.8206238,33.6140872 28.8206238,34.1266803 C28.8206238,34.6392759 29.3233097,36.9459535 29.4908701,37.6294126 C29.6584305,38.3128717 29.6584305,40.7904129 29.993556,43.0116587 C30.1231416,43.8634243 29.8259909,45.8309318 30.3286768,47.1124183 C30.8313627,48.3939048 30.6638023,49.4190959 30.9989231,50.1879868 C31.3340486,50.9568802 30.8313627,52.9218258 32.5069808,52.9218258 C34.1825989,52.9218258 34.0150385,52.1529348 34.6852848,50.2734186 C35.3555311,48.3939048 34.3501593,47.9667434 35.0204056,47.1978501 C35.6906519,46.4289592 36.8635841,45.3183363 36.5284633,44.2931452 C36.1933378,43.2679565 35.858217,42.0719018 36.5284633,41.5593062 C37.1987096,41.0467131 37.5338351,39.7652242 37.5338351,38.8254673 C37.5338351,37.8857104 36.5284633,37.8002786 37.7013955,36.9459535 C38.8743277,36.0916284 38.2040814,33.1869234 38.8743277,32.1617347 C39.544574,31.1365436 40.7175062,30.5385163 40.5499458,28.2318411 C40.3823807,25.9251635 40.2148203,23.7893519 40.8850666,23.0204586 C41.5553129,22.2515676 41.3877525,21.055513 42.7282451,21.3118107 C44.0687424,21.5681061 43.9011773,21.7389721 44.2363028,23.1913246 C44.5714283,24.643677 44.7389901,27.2920842 44.9065505,27.9755433 C45.0741109,28.6590024 45.4092364,29.3424616 46.0794827,29.9404889 C46.749729,30.5385163 48.0902263,32.6743303 48.0902263,33.3577894 C48.0902263,34.0412485 49.2631585,35.664467 49.0955935,36.1770601 C48.928033,36.6896557 47.7551008,37.8002786 48.5929076,38.6546037 C49.4307189,39.5089264 49.2631585,40.2778198 49.4307189,40.9612789 C49.5982794,41.6447404 49.7658398,43.0116587 50.1009653,43.780552 C50.4360907,44.549443 52.4468297,45.8309318 52.9495156,44.2931452 C53.4522015,42.7553609 54.2900082,41.5593062 54.4575686,40.192388 C54.6251337,38.8254673 53.9548874,38.5691695 54.2900082,37.458549 C54.6251337,36.3479261 55.1278196,35.5790328 54.9602545,34.7247077 C54.7926941,33.870385 55.29538,31.8200051 55.29538,30.5385163 C55.29538,29.2570298 56.1331867,28.2318411 56.4683122,27.6338137 C56.803433,27.0357864 56.803433,26.4377591 57.6412444,25.5834339 C58.4790511,24.7291088 59.1492974,21.9952699 61.3276014,22.849595 C63.5059054,23.7039201 70.854949,23.6184859 70.854949,25.3271362 C70.854949,27.0357864 72.264988,27.5257408 72.6001135,28.6363637 C72.9352343,29.7469866 73.3281363,34.24429 75.9070062,33.9558168 C76.5253151,33.8866525 78.0964427,31.6456534 78.6285657,31.5637074 C80.0601957,31.3432389 80.0601957,29.171598 81.3224083,27.20665 C82.2570066,25.751715 85.112081,24.643677 83.9988647,24.9338614 C85.4870167,24.56954 87.2598982,24.3873792 89.3175091,24.3873792 C92.4039255,24.3873792 90.7804639,23.7893519 93.6670171,24.3873792 C96.5535703,24.9854066 95.5101956,23.6184859 96.0128815,26.0105953 C96.5155674,28.4027047 97.1858137,31.0511118 98.0236251,32.1617347 C98.8614318,33.2723576 99.8668036,36.2624943 100.53705,37.458549 C101.207296,38.6546037 102.882914,39.4234946 102.547789,41.3030085 C102.212668,43.1825247 103.3856,43.5242543 103.553161,44.7203089 C103.720721,45.9163636 103.3856,47.7104457 104.893653,47.4541479 C106.401711,47.1978501 106.904397,46.5998228 107.071957,44.4640112 C107.239518,42.3281996 108.244889,41.4738744 108.580015,40.6195493 C108.915136,39.7652242 108.244889,38.6546037 108.580015,36.9459535 C108.915136,35.2373032 108.915136,34.1266803 109.417822,33.1869234 C109.920508,32.2471665 111.428565,29.7696253 111.09344,29.171598 C110.758314,28.5735707 111.428565,25.412568 111.428565,25.412568 C111.428565,25.412568 112.601497,23.7893519 113.439304,25.7542975 C114.277111,27.7192455 113.271744,30.8802482 114.10955,31.9054369 C114.947362,32.9306257 115.282483,34.1266803 115.450043,35.4081692 C115.617608,36.6896557 116.287854,38.9108991 117.293226,38.22744 C118.298593,37.5439808 119.471526,34.9810055 119.471526,33.9558168 C119.471526,32.9306257 119.303965,31.6491392 119.974211,30.6239505 C120.644458,29.5987594 119.920205,27.9515361 120.476897,26.4377591 C121.984955,22.3369994 122.487636,23.7039201 126.844244,22.3369994 C131.200848,20.9700788 130.19548,20.2866196 133.881838,21.2263765 C137.568195,22.1661335 139.243813,24.8999748 140.081619,25.7542975 C140.919431,26.6086226 140.919431,28.7444342 141.757237,29.4278958 C142.595049,30.1113549 142.595049,32.6743303 143.097735,33.699519 C143.600416,34.7247077 142.259923,35.8353306 143.265295,36.6042239 C144.270667,37.3731148 144.940913,38.4837377 143.767981,39.7652242 C142.595049,41.0467131 145.108474,44.549443 145.77872,45.6600659 C146.448966,46.7706888 147.119213,50.1879868 147.454338,51.1277437 C147.789464,52.0675007 147.621898,55.1430716 149.800202,54.630476 C151.978506,54.1178805 152.146067,53.00726 152.146067,51.6403393 C152.146067,50.2734186 151.475821,49.5899595 152.816313,48.137607 C154.156806,46.6852546 154.659492,43.1825247 154.156806,42.3281996 C153.654125,41.4738744 154.994617,41.5593062 155.162178,40.7904153 C155.329738,40.021522 155.664863,38.3128717 156.50267,37.287683 C157.340482,36.2624943 155.162178,35.4081692 156.670235,34.8101419 C158.178288,34.2121145 160.021467,31.4782756 159.853906,30.6239505 C159.686346,29.7696253 160.524153,28.2318411 160.859278,27.20665 C161.194399,26.1814613 162.870017,21.5681061 162.870017,20.3720514 C162.870017,19.1759967 164.713196,16.18586 167.729311,18.7488354 C170.745422,21.3118107 169.74005,25.4980021 170.242736,26.0105953 C170.745422,26.5231908 172.892712,24.2165133 173.227837,25.5834339 C173.562958,26.9503522 180.495267,20.6283492 182.003324,19.6885923 C183.511382,18.7488354 191.690641,28.5735707 191.355515,27.2920842 C191.02039,26.0105953 190.182583,25.5834339 190.685269,24.643677 C191.187955,23.7039201 191.523076,22.3369994 191.523076,21.6535403 C191.523076,20.9700788 193.86894,16.7838874 193.86894,16.2712942 C193.86894,15.7586987 195.376998,13.0248597 196.38237,14.6480758 C197.387737,16.2712942 196.38237,17.8945103 196.717491,18.4071058 C197.052616,18.9197014 196.885051,23.7893519 197.555302,24.643677 C198.225548,25.4980021 199.063355,28.0609751 199.063355,29.000732 C199.063355,29.9404889 198.560669,30.0259231 198.895795,31.3928414 C199.230915,32.7597621 200.236287,32.4180325 200.571413,32.9306257 C200.906533,33.4432212 200.236287,35.8353306 202.079466,35.8353306 C203.922644,35.8353306 203.084837,33.6140872 203.587523,33.2723576 C204.090209,32.9306257 204.592895,32.1617347 205.263141,30.4530845 C205.933388,28.7444342 206.436074,29.171598 207.10632,27.7192455 C207.776566,26.2668931 206.100948,26.5231908 206.93876,25.3271362 C207.776566,24.1310815 207.609006,21.5681061 208.279252,20.7992152 C208.949498,20.0303219 208.111692,19.6885923 209.284624,18.4925376 C210.457556,17.2964829 210.122431,16.8693215 211.798049,14.9043735 C213.473667,12.9394279 211.798049,8.58237052 212.635855,7.38631584 C213.473667,6.19026112 213.138541,4.99420643 213.138541,4.99420643 L0,5.07963823 Z" id="path1381"></path>
                            <path d="M195.600678,0.0854317943 C195.600678,0.0854317943 195.600678,4.10075964 196.103364,5.21138014 C196.60605,6.32200303 198.114103,8.45781464 198.616789,9.56843753 C199.119475,10.6790604 198.281668,12.814872 199.622161,14.6943859 C200.962653,16.5738997 201.968025,16.9156316 201.800465,18.7951455 C201.6329,20.6746593 201.6329,20.1620637 202.135585,21.0163889 C202.638271,21.870714 202.973397,25.2880145 202.973397,25.2880145 C203.224737,26.3559215 205.486822,26.1850555 205.654382,25.3734463 C206.005206,23.674185 205.319257,22.2124435 205.989503,21.4435526 C206.659749,20.6746593 207.497561,20.5892275 208.167807,19.307741 C208.838053,18.0262521 209.508299,17.171927 209.84343,16.3176043 C210.17855,15.4632792 210.01099,14.7798176 210.848801,14.4380881 C211.686608,14.0963585 211.351483,12.7294402 211.519048,12.1314129 C211.686608,11.5333855 211.854169,10.3373309 213.362226,10.4227626 C214.870279,10.5081944 215.875651,13.3274676 215.875651,15.2069814 C215.875651,17.0864952 217.048583,17.513659 217.216144,18.4534159 C217.383709,19.3931728 217.886395,21.6998504 218.389076,22.4687413 C218.891762,23.2376346 220.064694,23.7502278 219.729573,24.6045529 C219.394448,25.458878 219.478228,27.4665396 220.399819,27.5946896 C221.933433,27.8079414 222.578123,26.9966623 223.41593,26.9966623 C224.253737,26.9966623 224.421302,28.6198807 224.421302,29.1324739 C224.421302,29.6450695 224.923988,31.951747 225.091548,32.6352062 C225.259109,33.3186653 225.259109,35.7962065 225.594234,38.0174523 C225.72382,38.8692178 225.426669,40.8367254 225.929355,42.1182119 C226.432041,43.3996984 226.26448,44.4248895 226.599601,45.1937804 C226.934727,45.9626737 226.432041,47.9276193 228.107659,47.9276193 C229.783277,47.9276193 229.615717,47.1587284 230.285963,45.2792122 C230.956209,43.3996984 229.950837,42.972537 230.621084,42.2036437 C231.29133,41.4347527 232.464262,40.3241299 232.129141,39.2989388 C231.794016,38.27375 231.458895,37.0776954 232.129141,36.5650998 C232.799388,36.0525067 233.134513,34.7710178 233.134513,33.8312609 C233.134513,32.8915039 232.129141,32.8060722 233.302074,31.951747 C234.475006,31.0974219 233.80476,28.192717 234.475006,27.1675283 C235.145252,26.1423372 236.318184,25.5443098 236.150624,23.2376346 C235.983059,20.9309571 235.815498,18.7951455 236.485745,18.0262521 C237.155991,17.2573612 236.988431,16.0613065 238.328923,16.3176043 C239.669421,16.5738997 239.501855,16.7447657 239.836981,18.1971181 C240.172106,19.6494706 240.339668,22.2978777 240.507229,22.9813369 C240.674789,23.664796 241.009915,24.3482552 241.680161,24.9462825 C242.350407,25.5443098 243.690905,27.6801238 243.690905,28.363583 C243.690905,29.0470421 244.863837,30.6702606 244.696272,31.1828537 C244.528711,31.6954493 243.355779,32.8060722 244.193586,33.6603973 C245.031397,34.51472 244.863837,35.2836133 245.031397,35.9670725 C245.198958,36.650534 245.366518,38.0174523 245.701643,38.7863456 C246.036769,39.5552365 248.047508,40.8367254 248.550194,39.2989388 C249.05288,37.7611545 249.890686,36.5650998 250.058247,35.1981815 C250.225812,33.8312609 249.555566,33.5749631 249.890686,32.4643426 C250.225812,31.3537197 250.728498,30.5848264 250.560933,29.7305012 C250.393372,28.8761785 250.896058,26.8257987 250.896058,25.5443098 C250.896058,24.2628234 251.733865,23.2376346 252.06899,22.6396073 C252.404111,22.04158 252.404111,21.4435526 253.241923,20.5892275 C254.079729,19.7349024 254.749976,17.0010634 256.92828,17.8553886 C259.106584,18.7097137 266.455627,18.6242795 266.455627,20.3329297 C266.455627,22.04158 267.865666,22.5315344 268.200792,23.6421573 C268.535912,24.7527802 268.928814,29.2500836 271.507684,28.9616103 C272.125993,28.8924461 273.697121,26.6514469 274.229244,26.5695009 C275.660874,26.3490324 275.660874,24.1773916 276.923086,22.2124435 C277.857685,20.7575086 280.712759,19.6494706 279.599543,19.939655 C281.087695,19.5753335 282.860576,19.3931728 284.918187,19.3931728 C288.004604,19.3931728 286.381142,18.7951455 289.267695,19.3931728 C292.154249,19.9912002 291.110874,18.6242795 291.61356,21.0163889 C292.116246,23.4084982 292.786492,26.0569054 293.624303,27.1675283 C294.46211,28.2781512 295.467482,31.2682879 296.137728,32.4643426 C296.807974,33.6603973 298.483593,34.4292882 298.148467,36.308802 C297.813346,38.1883183 298.986278,38.5300478 299.153839,39.7261025 C299.321399,40.9221572 298.986278,42.7162392 300.494331,42.4599415 C302.002389,42.2036437 302.505075,41.6056163 302.672635,39.4698047 C302.840196,37.3339931 303.845568,36.479668 304.180693,35.6253429 C304.515814,34.7710178 303.845568,33.6603973 304.180693,31.951747 C304.515814,30.2430968 304.515814,29.1324739 305.0185,28.192717 C305.521186,27.2529601 307.029243,24.7754189 306.694118,24.1773916 C306.358992,23.5793642 307.029243,20.4183615 307.029243,20.4183615 C307.029243,20.4183615 308.202176,18.7951455 309.039982,20.7600911 C309.877789,22.7250391 308.872422,25.8860418 309.710229,26.9112305 C310.54804,27.9364192 310.883161,29.1324739 311.050721,30.4139628 C311.218286,31.6954493 311.888533,33.9166927 312.893904,33.2332335 C313.899272,32.5497744 315.072204,29.986799 315.072204,28.9616103 C315.072204,27.9364192 314.904643,26.6549327 315.57489,25.629744 C316.245136,24.6045529 315.520883,22.9573297 316.077576,21.4435526 C317.585633,17.342793 318.088314,18.7097137 322.444922,17.342793 C326.801526,15.9758723 325.796159,15.2924132 329.482516,16.2321701 C333.168873,17.171927 334.844491,19.9057684 335.682297,20.7600911 C336.520109,21.6144162 336.520109,23.7502278 337.357916,24.4336893 C338.195727,25.1171485 338.195727,27.6801238 338.698413,28.7053125 C339.201094,29.7305012 337.860601,30.8411241 338.865973,31.6100175 C339.871345,32.3789084 340.541591,33.4895313 339.368659,34.7710178 C338.195727,36.0525067 340.709152,39.5552365 341.379398,40.6658594 C342.049644,41.7764823 342.719891,45.1937804 343.055016,46.1335373 C343.390142,47.0732942 343.222577,50.1488651 345.400881,49.6362696 C347.579185,49.123674 347.746745,48.0130535 347.746745,46.6461329 C347.746745,45.2792122 347.076499,44.5957531 348.416991,43.1434006 C349.757484,41.6910481 350.26017,38.1883183 349.757484,37.3339931 C349.254803,36.479668 350.595295,36.5650998 350.762856,35.7962089 C350.930416,35.0273156 351.265542,33.3186653 352.103348,32.2934766 C352.94116,31.2682879 350.762856,30.4139628 352.270913,29.8159354 C353.778966,29.2179081 355.622145,26.4840691 355.454585,25.629744 C355.287024,24.7754189 356.124831,23.2376346 356.459956,22.2124435 C356.795077,21.1872548 358.470695,16.5738997 358.470695,15.377845 C358.470695,14.1817903 360.313874,11.1916536 363.329989,13.7546289 C366.3461,16.3176043 365.340728,20.5037957 365.843414,21.0163889 C366.3461,21.5289844 368.49339,19.2223068 368.828515,20.5892275 C369.163636,21.9561458 376.095945,15.6341428 377.604002,14.6943859 C379.11206,13.7546289 387.291319,23.5793642 386.956194,22.2978777 C386.621068,21.0163889 385.783261,20.5892275 386.285947,19.6494706 C386.788633,18.7097137 387.123754,17.342793 387.123754,16.6593339 C387.123754,15.9758723 389.469618,11.7896809 389.469618,11.2770878 C389.469618,10.7644922 390.977676,8.03065327 391.983048,9.65386932 C392.988415,11.2770878 391.983048,12.9003038 392.318169,13.4128994 C392.653294,13.9254949 392.485729,18.7951455 393.15598,19.6494706 C393.826226,20.5037957 394.664033,23.0667687 394.664033,24.0065256 C394.664033,24.9462825 394.161347,25.0317167 394.496473,26.398635 C394.831593,27.7655556 395.836965,27.4238261 396.172091,27.9364192 C396.507212,28.4490148 395.836965,30.8411241 397.680144,30.8411241 C399.523322,30.8411241 398.685516,28.6198807 399.188201,28.2781512 C399.690887,27.9364192 400.193573,27.1675283 400.86382,25.458878 C401.534066,23.7502278 402.036752,24.1773916 402.706998,22.7250391 C403.377244,21.2726866 401.701626,21.5289844 402.539438,20.3329297 C403.377244,19.136875 403.209684,16.5738997 403.87993,15.8050087 C404.550177,15.0361154 403.71237,14.6943859 404.885302,13.4983312 C406.058234,12.3022765 405.723109,11.8751151 407.398727,9.9101671 C409.074345,7.94522148 407.398727,3.58816409 408.236534,2.3921094 C409.074345,1.19605469 408.73922,0 408.73922,0 L195.600678,0.0854317943 Z" id="path1381"></path>
                            <path d="M348.169207,0.0854317943 C348.169207,0.0854317943 348.169207,4.10075964 348.671893,5.21138014 C349.174579,6.32200303 350.682632,8.45781464 351.185318,9.56843753 C351.688004,10.6790604 350.850197,12.814872 352.19069,14.6943859 C353.531182,16.5738997 354.536554,16.9156316 354.368994,18.7951455 C354.201428,20.6746593 354.201428,20.1620637 354.704114,21.0163889 C355.2068,21.870714 355.541926,25.2880145 355.541926,25.2880145 C355.793266,26.3559215 358.055351,26.1850555 358.222911,25.3734463 C358.573735,23.674185 357.887786,22.2124435 358.558032,21.4435526 C359.228278,20.6746593 360.06609,20.5892275 360.736336,19.307741 C361.406582,18.0262521 362.076828,17.171927 362.411959,16.3176043 C362.747079,15.4632792 362.579519,14.7798176 363.41733,14.4380881 C364.255137,14.0963585 363.920012,12.7294402 364.087577,12.1314129 C364.255137,11.5333855 364.422698,10.3373309 365.930755,10.4227626 C367.438808,10.5081944 368.44418,13.3274676 368.44418,15.2069814 C368.44418,17.0864952 369.617112,17.513659 369.784673,18.4534159 C369.952238,19.3931728 370.454924,21.6998504 370.957605,22.4687413 C371.460291,23.2376346 372.633223,23.7502278 372.298102,24.6045529 C371.962977,25.458878 372.046757,27.4665396 372.968348,27.5946896 C374.501962,27.8079414 375.146652,26.9966623 375.984459,26.9966623 C376.822266,26.9966623 376.989831,28.6198807 376.989831,29.1324739 C376.989831,29.6450695 377.492517,31.951747 377.660077,32.6352062 C377.827638,33.3186653 377.827638,35.7962065 378.162763,38.0174523 C378.292349,38.8692178 377.995198,40.8367254 378.497884,42.1182119 C379.00057,43.3996984 378.833009,44.4248895 379.16813,45.1937804 C379.503256,45.9626737 379.00057,47.9276193 380.676188,47.9276193 C382.351806,47.9276193 382.184246,47.1587284 382.854492,45.2792122 C383.524738,43.3996984 382.519366,42.972537 383.189613,42.2036437 C383.859859,41.4347527 385.032791,40.3241299 384.69767,39.2989388 C384.362545,38.27375 384.027424,37.0776954 384.69767,36.5650998 C385.367917,36.0525067 385.703042,34.7710178 385.703042,33.8312609 C385.703042,32.8915039 384.69767,32.8060722 385.870603,31.951747 C387.043535,31.0974219 386.373289,28.192717 387.043535,27.1675283 C387.713781,26.1423372 388.886713,25.5443098 388.719153,23.2376346 C388.551588,20.9309571 388.384027,18.7951455 389.054274,18.0262521 C389.72452,17.2573612 389.55696,16.0613065 390.897452,16.3176043 C392.23795,16.5738997 392.070384,16.7447657 392.40551,18.1971181 C392.740635,19.6494706 392.908197,22.2978777 393.075758,22.9813369 C393.243318,23.664796 393.578444,24.3482552 394.24869,24.9462825 C394.918936,25.5443098 396.259433,27.6801238 396.259433,28.363583 C396.259433,29.0470421 397.432366,30.6702606 397.264801,31.1828537 C397.09724,31.6954493 395.924308,32.8060722 396.762115,33.6603973 C397.599926,34.51472 397.432366,35.2836133 397.599926,35.9670725 C397.767486,36.650534 397.935047,38.0174523 398.270172,38.7863456 C398.605298,39.5552365 400.616037,40.8367254 401.118723,39.2989388 C401.621409,37.7611545 402.459215,36.5650998 402.626776,35.1981815 C402.794341,33.8312609 402.124094,33.5749631 402.459215,32.4643426 C402.794341,31.3537197 403.297027,30.5848264 403.129462,29.7305012 C402.961901,28.8761785 403.464587,26.8257987 403.464587,25.5443098 C403.464587,24.2628234 404.302394,23.2376346 404.637519,22.6396073 C404.97264,22.04158 404.97264,21.4435526 405.810451,20.5892275 C406.648258,19.7349024 407.318504,17.0010634 409.496808,17.8553886 C411.675113,18.7097137 419.024156,18.6242795 419.024156,20.3329297 C419.024156,22.04158 420.434195,22.5315344 420.769321,23.6421573 C421.104441,24.7527802 421.497343,29.2500836 424.076213,28.9616103 C424.694522,28.8924461 426.26565,26.6514469 426.797773,26.5695009 C428.229403,26.3490324 428.229403,24.1773916 429.491615,22.2124435 C430.426214,20.7575086 433.281288,19.6494706 432.168072,19.939655 C433.656224,19.5753335 435.429105,19.3931728 437.486716,19.3931728 C440.573133,19.3931728 438.949671,18.7951455 441.836224,19.3931728 C444.722777,19.9912002 443.679403,18.6242795 444.182089,21.0163889 C444.684775,23.4084982 445.355021,26.0569054 446.192832,27.1675283 C447.030639,28.2781512 448.036011,31.2682879 448.706257,32.4643426 C449.376503,33.6603973 451.052121,34.4292882 450.716996,36.308802 C450.381875,38.1883183 451.554807,38.5300478 451.722368,39.7261025 C451.889928,40.9221572 451.554807,42.7162392 453.06286,42.4599415 C454.570918,42.2036437 455.073604,41.6056163 455.241164,39.4698047 C455.408725,37.3339931 456.414097,36.479668 456.749222,35.6253429 C457.084343,34.7710178 456.414097,33.6603973 456.749222,31.951747 C457.084343,30.2430968 457.084343,29.1324739 457.587029,28.192717 C458.089715,27.2529601 459.597772,24.7754189 459.262647,24.1773916 C458.927521,23.5793642 459.597772,20.4183615 459.597772,20.4183615 C459.597772,20.4183615 460.770705,18.7951455 461.608511,20.7600911 C462.446318,22.7250391 461.440951,25.8860418 462.278758,26.9112305 C463.116569,27.9364192 463.45169,29.1324739 463.61925,30.4139628 C463.786815,31.6954493 464.457062,33.9166927 465.462433,33.2332335 C466.467801,32.5497744 467.640733,29.986799 467.640733,28.9616103 C467.640733,27.9364192 467.473172,26.6549327 468.143419,25.629744 C468.813665,24.6045529 468.089412,22.9573297 468.646105,21.4435526 C470.154162,17.342793 470.656843,18.7097137 475.013451,17.342793 C479.370055,15.9758723 478.364688,15.2924132 482.051045,16.2321701 C485.737402,17.171927 487.41302,19.9057684 488.250826,20.7600911 C489.088638,21.6144162 489.088638,23.7502278 489.926445,24.4336893 C490.764256,25.1171485 490.764256,27.6801238 491.266942,28.7053125 C491.769623,29.7305012 490.42913,30.8411241 491.434502,31.6100175 C492.439874,32.3789084 493.11012,33.4895313 491.937188,34.7710178 C490.764256,36.0525067 493.277681,39.5552365 493.947927,40.6658594 C494.618173,41.7764823 495.28842,45.1937804 495.623545,46.1335373 C495.958671,47.0732942 495.791106,50.1488651 497.96941,49.6362696 C500.147714,49.123674 500.315274,48.0130535 500.315274,46.6461329 C500.315274,45.2792122 499.645028,44.5957531 500.98552,43.1434006 C502.326013,41.6910481 502.828699,38.1883183 502.326013,37.3339931 C501.823332,36.479668 503.163824,36.5650998 503.331385,35.7962089 C503.498945,35.0273156 503.834071,33.3186653 504.671877,32.2934766 C505.509689,31.2682879 503.331385,30.4139628 504.839442,29.8159354 C506.347495,29.2179081 508.190674,26.4840691 508.023113,25.629744 C507.855553,24.7754189 508.69336,23.2376346 509.028485,22.2124435 C509.363606,21.1872548 511.039224,16.5738997 511.039224,15.377845 C511.039224,14.1817903 512.882403,11.1916536 515.898518,13.7546289 C518.914629,16.3176043 517.909257,20.5037957 518.411943,21.0163889 C518.914629,21.5289844 521.061919,19.2223068 521.397044,20.5892275 C521.732165,21.9561458 528.664474,15.6341428 530.172531,14.6943859 C531.680589,13.7546289 539.859848,23.5793642 539.524723,22.2978777 C539.189597,21.0163889 538.35179,20.5892275 538.854476,19.6494706 C539.357162,18.7097137 539.692283,17.342793 539.692283,16.6593339 C539.692283,15.9758723 542.038147,11.7896809 542.038147,11.2770878 C542.038147,10.7644922 543.546205,8.03065327 544.551577,9.65386932 C545.556944,11.2770878 544.551577,12.9003038 544.886698,13.4128994 C545.221823,13.9254949 545.054258,18.7951455 545.724509,19.6494706 C546.394755,20.5037957 547.232562,23.0667687 547.232562,24.0065256 C547.232562,24.9462825 546.729876,25.0317167 547.065002,26.398635 C547.400122,27.7655556 548.405494,27.4238261 548.74062,27.9364192 C549.075741,28.4490148 548.405494,30.8411241 550.248673,30.8411241 C552.091851,30.8411241 551.254045,28.6198807 551.75673,28.2781512 C552.259416,27.9364192 552.762102,27.1675283 553.432349,25.458878 C554.102595,23.7502278 554.605281,24.1773916 555.275527,22.7250391 C555.945773,21.2726866 554.270155,21.5289844 555.107967,20.3329297 C555.945773,19.136875 555.778213,16.5738997 556.448459,15.8050087 C557.118706,15.0361154 556.280899,14.6943859 557.453831,13.4983312 C558.626763,12.3022765 558.291638,11.8751151 559.967256,9.9101671 C561.642874,7.94522148 559.967256,3.58816409 560.805063,2.3921094 C561.642874,1.19605469 561.307748,0 561.307748,0 L348.169207,0.0854317943 Z" id="path1381"></path>
                            <path d="M456.727584,2.58253501 L669.866125,2.49710322 C669.866125,2.49710322 670.20125,3.69315791 669.363439,4.88921262 C668.525632,6.08526731 670.20125,10.4423247 668.525632,12.4072703 C666.850014,14.3722183 667.18514,14.7993797 666.012207,15.9954344 C664.839275,17.1914891 665.677082,17.5332186 665.006836,18.302112 C664.336589,19.0710029 664.50415,21.6339783 663.666343,22.8300329 C662.828532,24.0260876 664.50415,23.7697899 663.833903,25.2221423 C663.163657,26.6744948 662.660971,26.247331 661.990725,27.9559813 C661.320479,29.6646315 660.817793,30.4335224 660.315107,30.7752544 C659.812421,31.116984 660.650228,33.3382274 658.807049,33.3382274 C656.963871,33.3382274 657.634117,30.946118 657.298996,30.4335224 C656.963871,29.9209293 655.958499,30.2626588 655.623378,28.8957382 C655.288253,27.5288199 655.790938,27.4433857 655.790938,26.5036288 C655.790938,25.5638719 654.953132,23.0008989 654.282885,22.1465738 C653.612634,21.2922487 653.7802,16.4225981 653.445074,15.9100026 C653.109953,15.397407 654.11532,13.774191 653.109953,12.1509725 C652.104581,10.5277565 650.596524,13.2615954 650.596524,13.774191 C650.596524,14.2867841 648.250659,18.4729756 648.250659,19.1564371 C648.250659,19.8398962 647.915539,21.2068169 647.412853,22.1465738 C646.910167,23.0863307 647.747973,23.5134921 648.083099,24.794981 C648.418224,26.0764674 640.238966,16.2517322 638.730908,17.1914891 C637.22285,18.131246 630.290542,24.453249 629.955421,23.0863307 C629.620295,21.71941 627.473005,24.0260876 626.970319,23.5134921 C626.467633,23.0008989 627.473005,18.8147075 624.456894,16.2517322 C621.440779,13.6887568 619.597601,16.6788935 619.597601,17.8749482 C619.597601,19.0710029 617.921982,23.6843581 617.586862,24.7095468 C617.251736,25.7347379 616.413929,27.2725221 616.58149,28.1268472 C616.74905,28.9811724 614.905872,31.7150113 613.397819,32.3130387 C611.889761,32.911066 614.068065,33.7653911 613.230254,34.7905798 C612.392447,35.8157685 612.057321,37.5244188 611.889761,38.2933121 C611.722201,39.062203 610.381708,38.9767712 610.884389,39.8310964 C611.387075,40.6854215 610.884389,44.1881513 609.543897,45.6405038 C608.203404,47.0928563 608.87365,47.7763154 608.87365,49.1432361 C608.87365,50.5101568 608.70609,51.6207773 606.527786,52.1333728 C604.349482,52.6459684 604.517047,49.5703974 604.181922,48.6306405 C603.846796,47.6908836 603.17655,44.2735855 602.506303,43.1629626 C601.836057,42.0523397 599.322632,38.5496099 600.495565,37.268121 C601.668497,35.9866345 600.99825,34.8760116 599.992879,34.1071207 C598.987507,33.3382274 600.327999,32.2276045 599.825318,31.2024158 C599.322632,30.1772271 599.322632,27.6142517 598.484821,26.9307926 C597.647014,26.247331 597.647014,24.1115194 596.809203,23.2571943 C595.971396,22.4028716 594.295778,19.6690302 590.609421,18.7292733 C586.923064,17.7895164 587.928431,18.4729756 583.571828,19.8398962 C579.21522,21.2068169 578.712539,19.8398962 577.204481,23.9406558 C576.647788,25.4544329 577.372041,27.1016561 576.701795,28.1268472 C576.031549,29.152036 576.199109,30.4335224 576.199109,31.4587135 C576.199109,32.4839022 575.026177,35.0468776 574.02081,35.7303367 C573.015438,36.4137959 572.345192,34.1925525 572.177627,32.911066 C572.010066,31.6295771 571.674945,30.4335224 570.837134,29.4083337 C569.999327,28.383145 571.004694,25.2221423 570.166888,23.2571943 C569.329081,21.2922487 568.156149,22.9154647 568.156149,22.9154647 C568.156149,22.9154647 567.485898,26.0764674 567.821023,26.6744948 C568.156149,27.2725221 566.648091,29.7500633 566.145405,30.6898202 C565.642719,31.6295771 565.642719,32.7402 565.307598,34.4488503 C564.972473,36.1575005 565.642719,37.268121 565.307598,38.1224461 C564.972473,38.9767712 563.967101,39.8310964 563.799541,41.966908 C563.63198,44.1027196 563.129294,44.7007469 561.621237,44.9570447 C560.113184,45.2133424 560.448305,43.4192604 560.280744,42.2232057 C560.113184,41.027151 558.940252,40.6854215 559.275372,38.8059053 C559.610498,36.9263914 557.93488,36.1575005 557.264633,34.9614458 C556.594387,33.7653911 555.589015,30.7752544 554.751209,29.6646315 C553.913397,28.5540086 553.243151,25.9056015 552.740465,23.5134921 C552.237779,21.1213827 553.281154,22.4883034 550.394601,21.890276 C547.508047,21.2922487 549.131509,21.890276 546.045093,21.890276 C543.987482,21.890276 542.2146,22.0724368 540.726448,22.4367582 C541.839665,22.1465738 538.98459,23.2546118 538.049992,24.7095468 C536.787779,26.6744948 536.787779,28.8461357 535.356149,29.0666042 C534.824026,29.1485502 533.252899,31.3895493 532.63459,31.4587135 C530.05572,31.7471868 529.662818,27.2498834 529.327697,26.1392605 C528.992572,25.0286376 527.582533,24.5386832 527.582533,22.8300329 C527.582533,21.1213827 520.233489,21.2068169 518.055185,20.3524918 C515.876881,19.4981667 515.206635,22.2320056 514.368828,23.0863307 C513.531016,23.9406558 513.531016,24.5386832 513.195896,25.1367105 C512.86077,25.7347379 512.022963,26.7599266 512.022963,28.0414131 C512.022963,29.3229019 511.520278,31.3732817 511.687838,32.2276045 C511.855403,33.0819296 511.352717,33.8508229 511.017592,34.9614458 C510.682471,36.0720663 511.352717,36.3283641 511.185152,37.6952847 C511.017592,39.062203 510.179785,40.2582577 509.677099,41.796042 C509.174413,43.3338286 507.163674,42.0523397 506.828549,41.2834488 C506.493423,40.5145555 506.325863,39.1476372 506.158302,38.4641757 C505.990742,37.7807165 506.158302,37.0118232 505.320491,36.1575005 C504.482684,35.3031754 505.655617,34.1925525 505.823177,33.6799569 C505.990742,33.1673638 504.81781,31.5441453 504.81781,30.8606862 C504.81781,30.1772271 503.477313,28.0414131 502.807066,27.4433857 C502.13682,26.8453584 501.801694,26.1618992 501.634134,25.4784401 C501.466574,24.794981 501.299012,22.1465738 500.963886,20.6942213 C500.628761,19.2418689 500.796326,19.0710029 499.455829,18.8147075 C498.115336,18.5584097 498.282896,19.7544644 497.61265,20.5233554 C496.942404,21.2922487 497.109964,23.4280603 497.277529,25.7347379 C497.44509,28.0414131 496.272158,28.6394404 495.601911,29.6646315 C494.931665,30.6898202 495.601911,33.5945251 494.428979,34.4488503 C493.256047,35.3031754 494.261419,35.3886072 494.261419,36.3283641 C494.261419,37.268121 493.926293,38.5496099 493.256047,39.062203 C492.585801,39.5747986 492.920921,40.7708533 493.256047,41.796042 C493.591168,42.8212331 492.418235,43.931856 491.747989,44.7007469 C491.077743,45.4696402 492.083115,45.8968016 491.412868,47.7763154 C490.742622,49.6558316 490.910182,50.4247226 489.234564,50.4247226 C487.558946,50.4247226 488.061632,48.4597769 487.726507,47.6908836 C487.391386,46.9219927 487.558946,45.8968016 487.05626,44.6153151 C486.553574,43.3338286 486.850725,41.3663211 486.72114,40.5145555 C486.386014,38.2933097 486.386014,35.8157685 486.218454,35.1323094 C486.050893,34.4488503 485.548207,32.1421727 485.548207,31.6295771 C485.548207,31.116984 485.380642,29.4937655 484.542836,29.4937655 C483.705029,29.4937655 483.060338,30.3050446 481.526725,30.0917929 C480.605133,29.9636428 480.521353,27.9559813 480.856478,27.1016561 C481.191599,26.247331 480.018667,25.7347379 479.515981,24.9658445 C479.0133,24.1969536 478.510614,21.890276 478.343049,20.9505191 C478.175489,20.0107622 477.002556,19.5835984 477.002556,17.7040846 C477.002556,15.8245708 475.997185,13.0052977 474.489132,12.9198659 C472.981074,12.8344341 472.813513,14.0304888 472.645953,14.6285161 C472.478388,15.2265434 472.813513,16.5934617 471.975707,16.9351913 C471.137895,17.2769209 471.305456,17.9603824 470.970335,18.8147075 C470.635205,19.6690302 469.964958,20.5233554 469.294712,21.8048442 C468.624466,23.0863307 467.786654,23.1717625 467.116408,23.9406558 C466.446162,24.7095468 467.132111,26.1712883 466.781287,27.8705495 C466.613727,28.6821587 464.351643,28.8530247 464.100302,27.7851177 C464.100302,27.7851177 463.765177,24.3678172 463.262491,23.5134921 C462.759805,22.659167 462.759805,23.1717625 462.92737,21.2922487 C463.09493,19.4127349 462.089559,19.0710029 460.749066,17.1914891 C459.408573,15.3119752 460.24638,13.1761636 459.743694,12.0655407 C459.241008,10.9549179 457.732955,8.81910625 457.230269,7.70848336 C456.727584,6.59786286 456.727584,2.58253501 456.727584,2.58253501 Z" id="path1381"></path>
                            <path d="M840,10.4854318 C840,10.4854318 840,14.5007596 840.502686,15.6113801 C841.005372,16.722003 842.513425,18.8578146 843.016111,19.9684375 C843.518797,21.0790604 842.68099,23.214872 844.021482,25.0943859 C845.361975,26.9738997 846.367347,27.3156316 846.199786,29.1951455 C846.032221,31.0746593 846.032221,30.5620637 846.534907,31.4163889 C847.037593,32.270714 847.372719,35.6880145 847.372719,35.6880145 C847.624059,36.7559215 849.886143,36.5850555 850.053704,35.7734463 C850.404528,34.074185 849.718578,32.6124435 850.388825,31.8435526 C851.059071,31.0746593 851.896882,30.9892275 852.567129,29.707741 C853.237375,28.4262521 853.907621,27.571927 854.242751,26.7176043 C854.577872,25.8632792 854.410312,25.1798176 855.248123,24.8380881 C856.08593,24.4963585 855.750804,23.1294402 855.91837,22.5314129 C856.08593,21.9333855 856.25349,20.7373309 857.761548,20.8227626 C859.269601,20.9081944 860.274973,23.7274676 860.274973,25.6069814 C860.274973,27.4864952 861.447905,27.913659 861.615465,28.8534159 C861.783031,29.7931728 862.285716,32.0998504 862.788398,32.8687413 C863.291084,33.6376346 864.464016,34.1502278 864.128895,35.0045529 C863.793769,35.858878 863.87755,37.8665396 864.799141,37.9946896 C866.332755,38.2079414 866.977445,37.3966623 867.815252,37.3966623 C868.653059,37.3966623 868.820624,39.0198807 868.820624,39.5324739 C868.820624,40.0450695 869.32331,42.351747 869.49087,43.0352062 C869.658431,43.7186653 869.658431,46.1962065 869.993556,48.4174523 C870.123142,49.2692178 869.825991,51.2367254 870.328677,52.5182119 C870.831363,53.7996984 870.663802,54.8248895 870.998923,55.5937804 C871.334049,56.3626737 870.831363,58.3276193 872.506981,58.3276193 C874.182599,58.3276193 874.015039,57.5587284 874.685285,55.6792122 C875.355531,53.7996984 874.350159,53.372537 875.020406,52.6036437 C875.690652,51.8347527 876.863584,50.7241299 876.528463,49.6989388 C876.193338,48.67375 875.858217,47.4776954 876.528463,46.9650998 C877.19871,46.4525067 877.533835,45.1710178 877.533835,44.2312609 C877.533835,43.2915039 876.528463,43.2060722 877.701396,42.351747 C878.874328,41.4974219 878.204081,38.592717 878.874328,37.5675283 C879.544574,36.5423372 880.717506,35.9443098 880.549946,33.6376346 C880.382381,31.3309571 880.21482,29.1951455 880.885067,28.4262521 C881.555313,27.6573612 881.387753,26.4613065 882.728245,26.7176043 C884.068742,26.9738997 883.901177,27.1447657 884.236303,28.5971181 C884.571428,30.0494706 884.73899,32.6978777 884.906551,33.3813369 C885.074111,34.064796 885.409236,34.7482552 886.079483,35.3462825 C886.749729,35.9443098 888.090226,38.0801238 888.090226,38.763583 C888.090226,39.4470421 889.263159,41.0702606 889.095593,41.5828537 C888.928033,42.0954493 887.755101,43.2060722 888.592908,44.0603973 C889.430719,44.91472 889.263159,45.6836133 889.430719,46.3670725 C889.598279,47.050534 889.76584,48.4174523 890.100965,49.1863456 C890.436091,49.9552365 892.44683,51.2367254 892.949516,49.6989388 C893.452201,48.1611545 894.290008,46.9650998 894.457569,45.5981815 C894.625134,44.2312609 893.954887,43.9749631 894.290008,42.8643426 C894.625134,41.7537197 895.12782,40.9848264 894.960254,40.1305012 C894.792694,39.2761785 895.29538,37.2257987 895.29538,35.9443098 C895.29538,34.6628234 896.133187,33.6376346 896.468312,33.0396073 C896.803433,32.44158 896.803433,31.8435526 897.641244,30.9892275 C898.479051,30.1349024 899.149297,27.4010634 901.327601,28.2553886 C903.505905,29.1097137 910.854949,29.0242795 910.854949,30.7329297 C910.854949,32.44158 912.264988,32.9315344 912.600114,34.0421573 C912.935234,35.1527802 913.328136,39.6500836 915.907006,39.3616103 C916.525315,39.2924461 918.096443,37.0514469 918.628566,36.9695009 C920.060196,36.7490324 920.060196,34.5773916 921.322408,32.6124435 C922.257007,31.1575086 925.112081,30.0494706 923.998865,30.339655 C925.487017,29.9753335 927.259898,29.7931728 929.317509,29.7931728 C932.403925,29.7931728 930.780464,29.1951455 933.667017,29.7931728 C936.55357,30.3912002 935.510196,29.0242795 936.012882,31.4163889 C936.515567,33.8084982 937.185814,36.4569054 938.023625,37.5675283 C938.861432,38.6781512 939.866804,41.6682879 940.53705,42.8643426 C941.207296,44.0603973 942.882914,44.8292882 942.547789,46.708802 C942.212668,48.5883183 943.3856,48.9300478 943.553161,50.1261025 C943.720721,51.3221572 943.3856,53.1162392 944.893653,52.8599415 C946.401711,52.6036437 946.904397,52.0056163 947.071957,49.8698047 C947.239518,47.7339931 948.244889,46.879668 948.580015,46.0253429 C948.915136,45.1710178 948.244889,44.0603973 948.580015,42.351747 C948.915136,40.6430968 948.915136,39.5324739 949.417822,38.592717 C949.920508,37.6529601 951.428565,35.1754189 951.09344,34.5773916 C950.758314,33.9793642 951.428565,30.8183615 951.428565,30.8183615 C951.428565,30.8183615 952.601497,29.1951455 953.439304,31.1600911 C954.277111,33.1250391 953.271744,36.2860418 954.10955,37.3112305 C954.947362,38.3364192 955.282483,39.5324739 955.450043,40.8139628 C955.617608,42.0954493 956.287854,44.3166927 957.293226,43.6332335 C958.298593,42.9497744 959.471526,40.386799 959.471526,39.3616103 C959.471526,38.3364192 959.303965,37.0549327 959.974211,36.029744 C960.644458,35.0045529 959.920205,33.3573297 960.476897,31.8435526 C961.984955,27.742793 962.487636,29.1097137 966.844244,27.742793 C971.200848,26.3758723 970.19548,25.6924132 973.881838,26.6321701 C977.568195,27.571927 979.243813,30.3057684 980.081619,31.1600911 C980.919431,32.0144162 980.919431,34.1502278 981.757237,34.8336893 C982.595049,35.5171485 982.595049,38.0801238 983.097735,39.1053125 C983.600416,40.1305012 982.259923,41.2411241 983.265295,42.0100175 C984.270667,42.7789084 984.940913,43.8895313 983.767981,45.1710178 C982.595049,46.4525067 985.108474,49.9552365 985.77872,51.0658594 C986.448966,52.1764823 987.119213,55.5937804 987.454338,56.5335373 C987.789464,57.4732942 987.621898,60.5488651 989.800202,60.0362696 C991.978506,59.523674 992.146067,58.4130535 992.146067,57.0461329 C992.146067,55.6792122 991.475821,54.9957531 992.816313,53.5434006 C994.156806,52.0910481 994.659492,48.5883183 994.156806,47.7339931 C993.654125,46.879668 994.994617,46.9650998 995.162178,46.1962089 C995.329738,45.4273156 995.664863,43.7186653 996.50267,42.6934766 C997.340482,41.6682879 995.162178,40.8139628 996.670235,40.2159354 C998.178288,39.6179081 1000.02147,36.8840691 999.853906,36.029744 C999.686346,35.1754189 1000.52415,33.6376346 1000.85928,32.6124435 C1001.1944,31.5872548 1002.87002,26.9738997 1002.87002,25.777845 C1002.87002,24.5817903 1004.7132,21.5916536 1007.72931,24.1546289 C1010.74542,26.7176043 1009.74005,30.9037957 1010.24274,31.4163889 C1010.74542,31.9289844 1012.89271,29.6223068 1013.22784,30.9892275 C1013.56296,32.3561458 1020.49527,26.0341428 1022.00332,25.0943859 C1023.51138,24.1546289 1031.69064,33.9793642 1031.35552,32.6978777 C1031.02039,31.4163889 1030.18258,30.9892275 1030.68527,30.0494706 C1031.18796,29.1097137 1031.52308,27.742793 1031.52308,27.0593339 C1031.52308,26.3758723 1033.86894,22.1896809 1033.86894,21.6770878 C1033.86894,21.1644922 1035.377,18.4306533 1036.38237,20.0538693 C1037.38774,21.6770878 1036.38237,23.3003038 1036.71749,23.8128994 C1037.05262,24.3254949 1036.88505,29.1951455 1037.5553,30.0494706 C1038.22555,30.9037957 1039.06335,33.4667687 1039.06335,34.4065256 C1039.06335,35.3462825 1038.56067,35.4317167 1038.89579,36.798635 C1039.23092,38.1655556 1040.23629,37.8238261 1040.57141,38.3364192 C1040.90653,38.8490148 1040.23629,41.2411241 1042.07947,41.2411241 C1043.92264,41.2411241 1043.08484,39.0198807 1043.58752,38.6781512 C1044.09021,38.3364192 1044.5929,37.5675283 1045.26314,35.858878 C1045.93339,34.1502278 1046.43607,34.5773916 1047.10632,33.1250391 C1047.77657,31.6726866 1046.10095,31.9289844 1046.93876,30.7329297 C1047.77657,29.536875 1047.60901,26.9738997 1048.27925,26.2050087 C1048.9495,25.4361154 1048.11169,25.0943859 1049.28462,23.8983312 C1050.45756,22.7022765 1050.12243,22.2751151 1051.79805,20.3101671 C1053.47367,18.3452215 1052.63586,14.3779871 1052.63586,12.7921094 C1052.63586,11.2062317 1052.63586,10.4854318 1052.63586,10.4854318 L840,10.4854318 Z" id="path1381"></path>
                            <path d="M686.244429,0.0854317943 C686.244429,0.0854317943 686.244429,4.10075964 686.747115,5.21138014 C687.249801,6.32200303 688.757854,8.45781464 689.26054,9.56843753 C689.763225,10.6790604 688.925419,12.814872 690.265911,14.6943859 C691.606404,16.5738997 692.611776,16.9156316 692.444215,18.7951455 C692.27665,20.6746593 692.27665,20.1620637 692.779336,21.0163889 C693.282022,21.870714 693.617148,25.2880145 693.617148,25.2880145 C693.868488,26.3559215 696.130572,26.1850555 696.298133,25.3734463 C696.648957,23.674185 695.963007,22.2124435 696.633254,21.4435526 C697.3035,20.6746593 698.141311,20.5892275 698.811558,19.307741 C699.481804,18.0262521 700.15205,17.171927 700.48718,16.3176043 C700.822301,15.4632792 700.654741,14.7798176 701.492552,14.4380881 C702.330359,14.0963585 701.995233,12.7294402 702.162799,12.1314129 C702.330359,11.5333855 702.497919,10.3373309 704.005977,10.4227626 C705.51403,10.5081944 706.519402,13.3274676 706.519402,15.2069814 C706.519402,17.0864952 707.692334,17.513659 707.859894,18.4534159 C708.02746,19.3931728 708.530145,21.6998504 709.032827,22.4687413 C709.535513,23.2376346 710.708445,23.7502278 710.373324,24.6045529 C710.038198,25.458878 710.121979,27.4665396 711.04357,27.5946896 C712.577184,27.8079414 713.221874,26.9966623 714.059681,26.9966623 C714.897488,26.9966623 715.065053,28.6198807 715.065053,29.1324739 C715.065053,29.6450695 715.567739,31.951747 715.735299,32.6352062 C715.902859,33.3186653 715.902859,35.7962065 716.237985,38.0174523 C716.36757,38.8692178 716.07042,40.8367254 716.573106,42.1182119 C717.075792,43.3996984 716.908231,44.4248895 717.243352,45.1937804 C717.578478,45.9626737 717.075792,47.9276193 718.75141,47.9276193 C720.427028,47.9276193 720.259467,47.1587284 720.929714,45.2792122 C721.59996,43.3996984 720.594588,42.972537 721.264835,42.2036437 C721.935081,41.4347527 723.108013,40.3241299 722.772892,39.2989388 C722.437767,38.27375 722.102646,37.0776954 722.772892,36.5650998 C723.443139,36.0525067 723.778264,34.7710178 723.778264,33.8312609 C723.778264,32.8915039 722.772892,32.8060722 723.945824,31.951747 C725.118757,31.0974219 724.44851,28.192717 725.118757,27.1675283 C725.789003,26.1423372 726.961935,25.5443098 726.794375,23.2376346 C726.62681,20.9309571 726.459249,18.7951455 727.129496,18.0262521 C727.799742,17.2573612 727.632181,16.0613065 728.972674,16.3176043 C730.313171,16.5738997 730.145606,16.7447657 730.480732,18.1971181 C730.815857,19.6494706 730.983419,22.2978777 731.150979,22.9813369 C731.31854,23.664796 731.653665,24.3482552 732.323912,24.9462825 C732.994158,25.5443098 734.334655,27.6801238 734.334655,28.363583 C734.334655,29.0470421 735.507587,30.6702606 735.340022,31.1828537 C735.172462,31.6954493 733.99953,32.8060722 734.837336,33.6603973 C735.675148,34.51472 735.507587,35.2836133 735.675148,35.9670725 C735.842708,36.650534 736.010269,38.0174523 736.345394,38.7863456 C736.68052,39.5552365 738.691259,40.8367254 739.193944,39.2989388 C739.69663,37.7611545 740.534437,36.5650998 740.701997,35.1981815 C740.869563,33.8312609 740.199316,33.5749631 740.534437,32.4643426 C740.869563,31.3537197 741.372248,30.5848264 741.204683,29.7305012 C741.037123,28.8761785 741.539809,26.8257987 741.539809,25.5443098 C741.539809,24.2628234 742.377616,23.2376346 742.712741,22.6396073 C743.047862,22.04158 743.047862,21.4435526 743.885673,20.5892275 C744.72348,19.7349024 745.393726,17.0010634 747.57203,17.8553886 C749.750334,18.7097137 757.099378,18.6242795 757.099378,20.3329297 C757.099378,22.04158 758.509417,22.5315344 758.844542,23.6421573 C759.179663,24.7527802 759.572565,29.2500836 762.151435,28.9616103 C762.769744,28.8924461 764.340872,26.6514469 764.872995,26.5695009 C766.304625,26.3490324 766.304625,24.1773916 767.566837,22.2124435 C768.501436,20.7575086 771.35651,19.6494706 770.243294,19.939655 C771.731446,19.5753335 773.504327,19.3931728 775.561938,19.3931728 C778.648354,19.3931728 777.024893,18.7951455 779.911446,19.3931728 C782.797999,19.9912002 781.754625,18.6242795 782.25731,21.0163889 C782.759996,23.4084982 783.430243,26.0569054 784.268054,27.1675283 C785.105861,28.2781512 786.111233,31.2682879 786.781479,32.4643426 C787.451725,33.6603973 789.127343,34.4292882 788.792218,36.308802 C788.457097,38.1883183 789.630029,38.5300478 789.79759,39.7261025 C789.96515,40.9221572 789.630029,42.7162392 791.138082,42.4599415 C792.64614,42.2036437 793.148826,41.6056163 793.316386,39.4698047 C793.483947,37.3339931 794.489318,36.479668 794.824444,35.6253429 C795.159565,34.7710178 794.489318,33.6603973 794.824444,31.951747 C795.159565,30.2430968 795.159565,29.1324739 795.662251,28.192717 C796.164936,27.2529601 797.672994,24.7754189 797.337869,24.1773916 C797.002743,23.5793642 797.672994,20.4183615 797.672994,20.4183615 C797.672994,20.4183615 798.845926,18.7951455 799.683733,20.7600911 C800.52154,22.7250391 799.516173,25.8860418 800.353979,26.9112305 C801.191791,27.9364192 801.526912,29.1324739 801.694472,30.4139628 C801.862037,31.6954493 802.532283,33.9166927 803.537655,33.2332335 C804.543022,32.5497744 805.715955,29.986799 805.715955,28.9616103 C805.715955,27.9364192 805.548394,26.6549327 806.21864,25.629744 C806.888887,24.6045529 806.164634,22.9573297 806.721326,21.4435526 C808.229384,17.342793 808.732065,18.7097137 813.088673,17.342793 C817.445277,15.9758723 816.439909,15.2924132 820.126266,16.2321701 C823.812623,17.171927 825.488242,19.9057684 826.326048,20.7600911 C827.16386,21.6144162 827.16386,23.7502278 828.001666,24.4336893 C828.839478,25.1171485 828.839478,27.6801238 829.342164,28.7053125 C829.844845,29.7305012 828.504352,30.8411241 829.509724,31.6100175 C830.515096,32.3789084 831.185342,33.4895313 830.01241,34.7710178 C828.839478,36.0525067 831.352903,39.5552365 832.023149,40.6658594 C832.693395,41.7764823 833.363641,45.1937804 833.698767,46.1335373 C834.033892,47.0732942 833.866327,50.1488651 836.044631,49.6362696 C838.222935,49.123674 838.390496,48.0130535 838.390496,46.6461329 C838.390496,45.2792122 837.720249,44.5957531 839.060742,43.1434006 C840.401235,41.6910481 840.903921,38.1883183 840.401235,37.3339931 C839.898553,36.479668 841.239046,36.5650998 841.406606,35.7962089 C841.574167,35.0273156 841.909292,33.3186653 842.747099,32.2934766 C843.58491,31.2682879 841.406606,30.4139628 842.914664,29.8159354 C844.422717,29.2179081 846.265896,26.4840691 846.098335,25.629744 C845.930775,24.7754189 846.768582,23.2376346 847.103707,22.2124435 C847.438828,21.1872548 849.114446,16.5738997 849.114446,15.377845 C849.114446,14.1817903 850.957624,11.1916536 853.97374,13.7546289 C856.989851,16.3176043 855.984479,20.5037957 856.487165,21.0163889 C856.989851,21.5289844 859.137141,19.2223068 859.472266,20.5892275 C859.807387,21.9561458 866.739696,15.6341428 868.247753,14.6943859 C869.755811,13.7546289 877.93507,23.5793642 877.599944,22.2978777 C877.264819,21.0163889 876.427012,20.5892275 876.929698,19.6494706 C877.432384,18.7097137 877.767505,17.342793 877.767505,16.6593339 C877.767505,15.9758723 880.113369,11.7896809 880.113369,11.2770878 C880.113369,10.7644922 881.621427,8.03065327 882.626799,9.65386932 C883.632166,11.2770878 882.626799,12.9003038 882.961919,13.4128994 C883.297045,13.9254949 883.12948,18.7951455 883.799731,19.6494706 C884.469977,20.5037957 885.307784,23.0667687 885.307784,24.0065256 C885.307784,24.9462825 884.805098,25.0317167 885.140223,26.398635 C885.475344,27.7655556 886.480716,27.4238261 886.815842,27.9364192 C887.150962,28.4490148 886.480716,30.8411241 888.323895,30.8411241 C890.167073,30.8411241 889.329266,28.6198807 889.831952,28.2781512 C890.334638,27.9364192 890.837324,27.1675283 891.50757,25.458878 C892.177817,23.7502278 892.680503,24.1773916 893.350749,22.7250391 C894.020995,21.2726866 892.345377,21.5289844 893.183188,20.3329297 C894.020995,19.136875 893.853435,16.5738997 894.523681,15.8050087 C895.193927,15.0361154 894.356121,14.6943859 895.529053,13.4983312 C896.701985,12.3022765 896.36686,11.8751151 898.042478,9.9101671 C899.718096,7.94522148 898.042478,3.58816409 898.880284,2.3921094 C899.718096,1.19605469 899.38297,0 899.38297,0 L686.244429,0.0854317943 Z" id="path1381"></path>
                            <path d="M577.686053,2.58253501 L790.824594,2.49710322 C790.824594,2.49710322 791.159719,3.69315791 790.321908,4.88921262 C789.484101,6.08526731 791.159719,10.4423247 789.484101,12.4072703 C787.808483,14.3722183 788.143609,14.7993797 786.970676,15.9954344 C785.797744,17.1914891 786.635551,17.5332186 785.965305,18.302112 C785.295058,19.0710029 785.462619,21.6339783 784.624812,22.8300329 C783.787001,24.0260876 785.462619,23.7697899 784.792372,25.2221423 C784.122126,26.6744948 783.61944,26.247331 782.949194,27.9559813 C782.278948,29.6646315 781.776262,30.4335224 781.273576,30.7752544 C780.77089,31.116984 781.608697,33.3382274 779.765518,33.3382274 C777.92234,33.3382274 778.592586,30.946118 778.257465,30.4335224 C777.92234,29.9209293 776.916968,30.2626588 776.581847,28.8957382 C776.246722,27.5288199 776.749407,27.4433857 776.749407,26.5036288 C776.749407,25.5638719 775.911601,23.0008989 775.241354,22.1465738 C774.571103,21.2922487 774.738669,16.4225981 774.403543,15.9100026 C774.068422,15.397407 775.073789,13.774191 774.068422,12.1509725 C773.06305,10.5277565 771.554993,13.2615954 771.554993,13.774191 C771.554993,14.2867841 769.209128,18.4729756 769.209128,19.1564371 C769.209128,19.8398962 768.874008,21.2068169 768.371322,22.1465738 C767.868636,23.0863307 768.706442,23.5134921 769.041568,24.794981 C769.376693,26.0764674 761.197435,16.2517322 759.689377,17.1914891 C758.181319,18.131246 751.249011,24.453249 750.91389,23.0863307 C750.578764,21.71941 748.431474,24.0260876 747.928788,23.5134921 C747.426102,23.0008989 748.431474,18.8147075 745.415364,16.2517322 C742.399248,13.6887568 740.55607,16.6788935 740.55607,17.8749482 C740.55607,19.0710029 738.880452,23.6843581 738.545331,24.7095468 C738.210205,25.7347379 737.372399,27.2725221 737.539959,28.1268472 C737.707519,28.9811724 735.864341,31.7150113 734.356288,32.3130387 C732.84823,32.911066 735.026534,33.7653911 734.188723,34.7905798 C733.350916,35.8157685 733.015791,37.5244188 732.84823,38.2933121 C732.68067,39.062203 731.340177,38.9767712 731.842858,39.8310964 C732.345544,40.6854215 731.842858,44.1881513 730.502366,45.6405038 C729.161873,47.0928563 729.832119,47.7763154 729.832119,49.1432361 C729.832119,50.5101568 729.664559,51.6207773 727.486255,52.1333728 C725.307951,52.6459684 725.475516,49.5703974 725.140391,48.6306405 C724.805265,47.6908836 724.135019,44.2735855 723.464772,43.1629626 C722.794526,42.0523397 720.281101,38.5496099 721.454034,37.268121 C722.626966,35.9866345 721.956719,34.8760116 720.951348,34.1071207 C719.945976,33.3382274 721.286468,32.2276045 720.783787,31.2024158 C720.281101,30.1772271 720.281101,27.6142517 719.44329,26.9307926 C718.605483,26.247331 718.605483,24.1115194 717.767672,23.2571943 C716.929865,22.4028716 715.254247,19.6690302 711.56789,18.7292733 C707.881533,17.7895164 708.8869,18.4729756 704.530297,19.8398962 C700.173689,21.2068169 699.671008,19.8398962 698.16295,23.9406558 C697.606258,25.4544329 698.33051,27.1016561 697.660264,28.1268472 C696.990018,29.152036 697.157578,30.4335224 697.157578,31.4587135 C697.157578,32.4839022 695.984646,35.0468776 694.979279,35.7303367 C693.973907,36.4137959 693.303661,34.1925525 693.136096,32.911066 C692.968535,31.6295771 692.633414,30.4335224 691.795603,29.4083337 C690.957796,28.383145 691.963163,25.2221423 691.125357,23.2571943 C690.28755,21.2922487 689.114618,22.9154647 689.114618,22.9154647 C689.114618,22.9154647 688.444367,26.0764674 688.779492,26.6744948 C689.114618,27.2725221 687.60656,29.7500633 687.103874,30.6898202 C686.601188,31.6295771 686.601188,32.7402 686.266068,34.4488503 C685.930942,36.1575005 686.601188,37.268121 686.266068,38.1224461 C685.930942,38.9767712 684.92557,39.8310964 684.75801,41.966908 C684.590449,44.1027196 684.087764,44.7007469 682.579706,44.9570447 C681.071653,45.2133424 681.406774,43.4192604 681.239213,42.2232057 C681.071653,41.027151 679.898721,40.6854215 680.233841,38.8059053 C680.568967,36.9263914 678.893349,36.1575005 678.223102,34.9614458 C677.552856,33.7653911 676.547484,30.7752544 675.709678,29.6646315 C674.871866,28.5540086 674.20162,25.9056015 673.698934,23.5134921 C673.196248,21.1213827 674.239623,22.4883034 671.35307,21.890276 C668.466516,21.2922487 670.089978,21.890276 667.003562,21.890276 C664.945951,21.890276 663.173069,22.0724368 661.684917,22.4367582 C662.798134,22.1465738 659.943059,23.2546118 659.008461,24.7095468 C657.746248,26.6744948 657.746248,28.8461357 656.314618,29.0666042 C655.782495,29.1485502 654.211368,31.3895493 653.593059,31.4587135 C651.014189,31.7471868 650.621287,27.2498834 650.286166,26.1392605 C649.951041,25.0286376 648.541002,24.5386832 648.541002,22.8300329 C648.541002,21.1213827 641.191958,21.2068169 639.013654,20.3524918 C636.83535,19.4981667 636.165104,22.2320056 635.327297,23.0863307 C634.489486,23.9406558 634.489486,24.5386832 634.154365,25.1367105 C633.819239,25.7347379 632.981433,26.7599266 632.981433,28.0414131 C632.981433,29.3229019 632.478747,31.3732817 632.646307,32.2276045 C632.813872,33.0819296 632.311186,33.8508229 631.976061,34.9614458 C631.64094,36.0720663 632.311186,36.3283641 632.143621,37.6952847 C631.976061,39.062203 631.138254,40.2582577 630.635568,41.796042 C630.132882,43.3338286 628.122143,42.0523397 627.787018,41.2834488 C627.451892,40.5145555 627.284332,39.1476372 627.116771,38.4641757 C626.949211,37.7807165 627.116771,37.0118232 626.27896,36.1575005 C625.441153,35.3031754 626.614086,34.1925525 626.781646,33.6799569 C626.949211,33.1673638 625.776279,31.5441453 625.776279,30.8606862 C625.776279,30.1772271 624.435782,28.0414131 623.765535,27.4433857 C623.095289,26.8453584 622.760163,26.1618992 622.592603,25.4784401 C622.425043,24.794981 622.257481,22.1465738 621.922355,20.6942213 C621.58723,19.2418689 621.754795,19.0710029 620.414298,18.8147075 C619.073805,18.5584097 619.241365,19.7544644 618.571119,20.5233554 C617.900873,21.2922487 618.068433,23.4280603 618.235998,25.7347379 C618.403559,28.0414131 617.230627,28.6394404 616.56038,29.6646315 C615.890134,30.6898202 616.56038,33.5945251 615.387448,34.4488503 C614.214516,35.3031754 615.219888,35.3886072 615.219888,36.3283641 C615.219888,37.268121 614.884762,38.5496099 614.214516,39.062203 C613.54427,39.5747986 613.87939,40.7708533 614.214516,41.796042 C614.549637,42.8212331 613.376704,43.931856 612.706458,44.7007469 C612.036212,45.4696402 613.041584,45.8968016 612.371337,47.7763154 C611.701091,49.6558316 611.868651,50.4247226 610.193033,50.4247226 C608.517415,50.4247226 609.020101,48.4597769 608.684976,47.6908836 C608.349855,46.9219927 608.517415,45.8968016 608.014729,44.6153151 C607.512043,43.3338286 607.809194,41.3663211 607.679609,40.5145555 C607.344483,38.2933097 607.344483,35.8157685 607.176923,35.1323094 C607.009362,34.4488503 606.506676,32.1421727 606.506676,31.6295771 C606.506676,31.116984 606.339111,29.4937655 605.501305,29.4937655 C604.663498,29.4937655 604.018807,30.3050446 602.485194,30.0917929 C601.563602,29.9636428 601.479822,27.9559813 601.814948,27.1016561 C602.150068,26.247331 600.977136,25.7347379 600.47445,24.9658445 C599.971769,24.1969536 599.469083,21.890276 599.301518,20.9505191 C599.133958,20.0107622 597.961025,19.5835984 597.961025,17.7040846 C597.961025,15.8245708 596.955654,13.0052977 595.447601,12.9198659 C593.939543,12.8344341 593.771983,14.0304888 593.604422,14.6285161 C593.436857,15.2265434 593.771983,16.5934617 592.934176,16.9351913 C592.096364,17.2769209 592.263925,17.9603824 591.928804,18.8147075 C591.593674,19.6690302 590.923428,20.5233554 590.253181,21.8048442 C589.582935,23.0863307 588.745124,23.1717625 588.074877,23.9406558 C587.404631,24.7095468 588.09058,26.1712883 587.739756,27.8705495 C587.572196,28.6821587 585.310112,28.8530247 585.058771,27.7851177 C585.058771,27.7851177 584.723646,24.3678172 584.22096,23.5134921 C583.718274,22.659167 583.718274,23.1717625 583.885839,21.2922487 C584.053399,19.4127349 583.048028,19.0710029 581.707535,17.1914891 C580.367042,15.3119752 581.204849,13.1761636 580.702163,12.0655407 C580.199477,10.9549179 578.691424,8.81910625 578.188738,7.70848336 C577.686053,6.59786286 577.686053,2.58253501 577.686053,2.58253501 Z" id="path1381"></path>
                        </g>
                        <g id="Icicles_clip_art" transform="translate(1115.835549, 74.800000) scale(-1, 1) translate(-1115.835549, -74.800000) translate(1015.835549, 29.600000)" fill="#0D3674">
                            <path d="M1.34192843,0 C4.86677675,1.56819002e-16 1.75802223,0.651643724 1.34192843,1.00233943 C-0.0419558084,2.1687165 1.7962172,9.8252639 3.3042749,9.9107003 C4.8123279,9.99613669 6.36877805,13.3281846 6.36877805,15.2077996 C6.36877805,17.0874145 7.54171025,17.5146013 7.70927065,18.4544087 C7.87683575,19.3942162 8.37952165,21.7010179 8.88220285,22.4699502 C9.38488875,23.2388849 10.557821,23.7515056 10.2227002,24.6058767 C9.88757465,25.4602478 9.97135485,27.4680173 10.8929465,27.5961743 C12.42656,27.8094376 13.0712505,26.9981148 13.9090572,26.9981148 C14.7468639,26.9981148 14.914429,28.6214206 14.914429,29.1340413 C14.914429,29.6466644 15.4171149,31.9534661 15.5846753,32.636962 C15.7522357,33.320458 15.7522357,35.7981324 16.0873612,38.0194977 C16.2169467,38.8713091 15.9197961,40.8389225 16.422482,42.120478 C16.9251679,43.4020334 16.7576075,44.4272797 17.0927283,45.196212 C17.4278538,45.9651467 16.9251679,47.930198 18.600786,47.930198 C20.2764041,47.930198 20.1088437,47.1612657 20.77909,45.2816484 C21.4493363,43.4020334 20.4439645,42.9748491 21.1142108,42.2059144 C21.7844571,41.4369821 22.9573893,40.3262994 22.6222685,39.3010532 C22.287143,38.2758093 21.9520222,37.0796902 22.6222685,36.5670671 C23.2925148,36.0544464 23.6276403,34.7728886 23.6276403,33.8330811 C23.6276403,32.8932736 22.6222685,32.8078372 23.7952007,31.9534661 C24.9681329,31.0990951 24.2978866,28.1942338 24.9681329,27.16899 C25.6383792,26.1437437 26.8113114,25.5456842 26.643751,23.2388849 C26.4761859,20.9320832 26.3086255,18.7961567 26.9788718,18.027222 C27.6491181,17.2582897 27.4815577,16.0621707 28.8220503,16.3184822 C30.1625476,16.5747914 29.9949825,16.7456666 30.330108,18.1980972 C30.6652335,19.6505278 30.8327953,22.2990774 31.0003557,22.9825733 C31.1679161,23.6660692 31.5030416,24.3495652 32.1732879,24.9476247 C32.8435342,25.5456842 34.1840315,27.6816131 34.1840315,28.365109 C34.1840315,29.0486049 35.3569637,30.6719107 35.1893986,31.1845314 C35.0218382,31.6971546 33.848906,32.8078372 34.6867127,33.6622083 C35.5245241,34.516577 35.3569637,35.2855117 35.5245241,35.9690076 C35.6920845,36.6525059 35.8596449,38.0194977 36.1947704,38.7884324 C36.5298959,39.5573647 38.5406348,40.8389225 39.0433207,39.3010532 C39.5460066,37.7631862 40.3838133,36.5670671 40.5513737,35.2000753 C40.7189388,33.8330811 40.0486925,33.5767695 40.3838133,32.4660893 C40.7189388,31.3554066 41.2216247,30.5864719 41.0540596,29.7321008 C40.8864992,28.8777321 41.3891851,26.827242 41.3891851,25.5456842 C41.3891851,24.2641288 42.2269918,23.2388849 42.5621173,22.6408254 C42.8972381,22.0427659 42.8972381,21.4447063 43.7350495,20.5903353 C44.5728562,19.7359642 45.2431025,17.0019781 47.4214065,17.8563492 C49.5997105,18.7107203 52.6158212,21.8718907 52.6158212,23.5806329 C52.6158212,25.289375 54.4589997,25.4602478 54.7941252,26.5709305 C55.129246,27.6816131 55.7994924,31.440843 55.9670574,32.1243389 C56.1346178,32.8078372 57.1399896,41.4369821 57.8102359,42.8894103 C58.4804823,44.3418409 58.8156077,44.6835888 58.9831682,46.3068946 C59.1507286,47.930198 58.3129218,48.1010732 58.9831682,49.6389402 C59.6534145,51.1768072 60.6587863,53.3127337 60.6587863,54.2525411 C60.6587863,55.192351 61.6641534,54.9360395 61.6641534,55.7049718 C61.6641534,56.4739064 60.4912212,57.071966 60.8263467,58.609833 C61.1614722,60.1477 61.3290326,64.419553 62.1668393,65.3593629 C63.0046507,66.2991703 61.9992789,68.4350968 62.3344044,69.0331564 C62.6695252,69.6312159 61.8317185,70.2292754 62.3344044,71.9380176 C62.8370856,73.6467573 63.674897,77.3205532 64.0100178,78.9438566 C64.3451433,80.56716 64.6802688,81.6778427 64.5127037,83.0448369 C64.3451433,84.4118287 65.3505151,85.3516362 65.3505151,86.291446 C65.3505151,87.2312535 65.0153896,90.1361123 66.5234473,90.3069875 C68.0315003,90.4778627 69.0368721,90.6487355 69.2044325,88.5128089 C69.3719976,86.3768824 69.0368721,82.4467774 69.3719976,81.2506583 C69.7071184,80.0545393 70.7124902,78.0040492 70.5449298,76.7224937 C70.3773647,75.4409359 69.3719976,73.9030689 69.7071184,73.1341366 C70.0422439,72.3652019 70.8800506,70.0584002 70.8800506,69.2040291 C70.8800506,68.3496604 70.7124902,66.5554819 70.7124902,65.7011108 C70.7124902,64.8467397 69.5390841,63.7401741 70.5449298,62.881686 C74.3988472,59.5923586 72.1367677,57.3282775 73.3096999,56.3884677 C74.4826321,55.4486602 74.7339727,55.4486602 74.7339727,52.9709857 C74.7339727,50.4933112 75.9069049,49.6389402 75.7393398,48.271946 C75.5717794,46.9049541 74.7339727,45.8797079 75.9069049,44.9399004 C77.0798371,44.0000929 75.7393398,40.582611 76.5771512,39.5573647 C77.4149579,38.5321209 77.0798371,37.7631862 77.4149579,36.5670671 C77.7500834,35.3709481 77.4149579,35.6272596 77.9176438,34.6874522 C78.4203297,33.7476447 79.4257015,34.0893926 78.7554552,32.4660893 C78.0852042,30.8427835 79.090576,30.6719107 78.9230156,29.7321008 C78.7554552,28.7922934 78.9230156,23.4951965 79.2581364,22.4699502 C79.5932619,21.4447063 78.5878901,20.0777121 79.7608223,19.3942162 C80.9337545,18.7107203 81.6040008,18.6252815 82.1066867,21.0175196 C82.6093726,23.4097577 83.2796189,26.0583073 84.1174303,27.16899 C84.955237,28.2796726 85.9606088,31.2699702 86.6308551,32.4660893 C87.3011014,33.6622083 88.9767195,34.4311406 88.641594,36.3107556 C88.3064732,38.1903729 89.4794054,38.5321209 89.6469658,39.7282399 C89.8145262,40.9243589 89.4794054,42.7185375 90.9874584,42.4622259 C92.4955161,42.2059144 92.998202,41.6078548 93.1657624,39.4719283 C93.3333228,37.3360018 94.3386946,36.4816307 94.6738201,35.6272596 C95.0089409,34.7728886 94.3386946,33.6622083 94.6738201,31.9534661 C95.0089409,30.244724 95.0089409,29.1340413 95.5116268,28.1942338 C96.0143127,27.2544264 97.5223704,24.7767519 97.1872449,24.1786924 C96.8521194,23.5806329 97.5223704,20.4194601 97.5223704,20.4194601 C97.5223704,20.4194601 98.6953026,18.7961567 99.5331093,20.761208 C100.370916,22.7262618 99.3655489,25.8874345 100.203356,26.9126784 C101.041167,27.9379223 101.376288,29.1340413 101.543848,30.4155991 C101.711413,31.6971546 102.38166,33.9185175 103.387031,33.2350216 C104.392399,32.5515257 105.565331,29.9884124 105.565331,28.9631685 C105.565331,27.9379223 105.39777,26.6563668 106.068017,25.631123 C106.738263,24.6058767 106.01401,22.9585648 106.570703,21.4447063 C108.07876,17.3437261 108.581441,18.7107203 112.938049,17.3437261 C117.294653,15.9767319 116.289286,15.293236 119.975643,16.2330434 C123.662,17.1728509 125.337618,19.9068393 126.175424,20.761208 C127.013236,21.6155791 127.013236,23.7515056 127.851043,24.4350039 C128.688854,25.1184999 128.688854,27.6816131 129.19154,28.706857 C129.694221,29.7321008 128.353728,30.8427835 129.3591,31.6117182 C130.364472,32.3806505 131.034718,33.4913331 129.861786,34.7728886 C128.688854,36.0544464 131.202279,39.5573647 131.872525,40.6680474 C132.542771,41.77873 133.213018,45.196212 133.548143,46.1360194 C133.883269,47.0758269 133.715704,50.1515633 135.894008,49.6389402 C138.072312,49.126317 138.239872,48.0156368 138.239872,46.6486426 C138.239872,45.2816484 137.569626,44.5981524 138.910118,43.1457218 C140.250611,41.6932912 140.753297,38.1903729 140.250611,37.3360018 C139.74793,36.4816307 141.088422,36.5670671 141.255983,35.7981348 C141.423543,35.0292001 141.758669,33.320458 142.596475,32.2952141 C143.434287,31.2699702 141.255983,30.4155991 142.76404,29.8175396 C144.272093,29.2194801 146.115272,26.4854941 145.947712,25.631123 C145.780151,24.7767519 146.617958,23.2388849 146.953083,22.2136386 C147.288204,21.1883948 148.963822,16.5747914 148.963822,15.3786724 C148.963822,14.1825533 150.807001,11.1922557 153.823116,13.755369 C156.839227,16.3184822 155.833855,20.5048989 156.336541,21.0175196 C156.839227,21.5301427 157.174348,25.8019958 157.509473,27.16899 C157.844594,28.5359818 160.525584,30.7573471 159.352652,31.9534661 C158.179719,33.1495852 157.844594,36.1398828 159.017531,36.7379423 C160.190463,37.3360018 157.509473,38.2758093 158.682405,39.3010532 C159.855338,40.3262994 160.190463,42.9748491 160.358023,43.7437814 C160.525584,44.5127161 162.033642,45.2816484 161.698516,46.2214582 C161.363395,47.1612657 161.02827,52.1166146 162.368762,54.0816684 C163.70926,56.0467197 162.703888,57.3282775 163.039009,58.4389578 C163.374134,59.5496404 163.374134,61.6855669 164.714627,62.1981901 C166.055124,62.7108132 168.400988,62.1127537 167.898303,61.2583826 C167.395617,60.4040115 167.395617,59.9768272 168.400988,58.7807081 C169.406356,57.5845891 169.741481,56.9010908 169.741481,55.4486602 C169.741481,53.996232 170.411727,54.0816684 170.411727,53.2272973 C170.411727,52.3729262 168.90367,52.5438014 170.244167,50.9204956 C171.58466,49.2971922 172.254906,47.7593252 172.254906,46.2214582 C172.254906,44.6835888 172.422466,43.4020334 172.757592,42.120478 C173.092717,40.8389225 174.60077,40.9243589 174.43321,38.8738688 C174.265649,36.8233787 172.925152,37.0796902 174.60077,35.9690076 C176.276388,34.8583273 176.443949,35.9690076 175.941263,33.2350216 C175.438582,30.5010355 173.595398,29.902976 175.103456,28.9631685 C176.445375,28.126897 177.521941,24.5170045 177.506739,22.8288228 C177.504857,22.6198148 177.48624,22.4402628 177.449321,22.2990774 C177.114195,21.0175196 176.276388,20.5903353 176.779074,19.6505278 C177.28176,18.7107203 177.616881,17.3437261 177.616881,16.6602302 C177.616881,15.9767319 179.962745,11.7903152 179.962745,11.2776945 C179.962745,10.7650714 181.470803,8.03108535 182.476175,9.65438873 C183.481542,11.2776945 182.476175,12.9009979 182.811296,13.413621 C183.146421,13.9262442 186.379269,23.3243213 187.04952,24.1786924 C187.719766,25.0330635 195.764464,29.3529746 194.056947,26.5709305 C192.34943,23.7888863 192.529879,24.1786924 193.200125,22.7262618 C193.870371,21.2738312 192.194753,21.5301427 193.032565,20.3340237 C193.870371,19.1379047 193.702811,16.5747914 194.373057,15.8058591 C195.043304,15.0369244 194.205497,14.6951765 195.378429,13.4990574 C196.551361,12.3029384 196.216236,11.875754 197.891854,9.9107003 C199.567472,7.94564895 197.891854,3.58835714 198.729661,2.3922381 C199.567472,1.19611904 199.232347,0 199.232347,0 L1.34192843,0 Z" id="path1381"></path>
                        </g>
                        <path d="M1183.50468,36.0854318 C1183.50468,36.0854318 1183.50468,40.1007596 1184.01778,41.2113801 C1184.53088,42.322003 1186.07017,44.4578146 1186.58327,45.5684375 C1187.09637,46.6790604 1186.2412,48.814872 1187.60946,50.6943859 C1188.97772,52.5738997 1190.00392,52.9156316 1189.83289,54.7951455 C1189.66185,56.6746593 1189.66185,56.1620637 1190.17495,57.0163889 C1190.68805,57.870714 1191.03012,61.2880145 1191.03012,61.2880145 C1191.28667,62.3559215 1193.59561,62.1850555 1193.76664,61.3734463 C1194.12473,59.674185 1193.42457,58.2124435 1194.1087,57.4435526 C1194.79283,56.6746593 1195.648,56.5892275 1196.33213,55.307741 C1197.01626,54.0262521 1197.70039,53.171927 1198.04246,52.3176043 C1198.38452,51.4632792 1198.21349,50.7798176 1199.06866,50.4380881 C1199.92382,50.0963585 1199.58175,48.7294402 1199.75279,48.1314129 C1199.92382,47.5333855 1200.09485,46.3373309 1201.63415,46.4227626 C1203.17344,46.5081944 1204.19963,49.3274676 1204.19963,51.2069814 C1204.19963,53.0864952 1205.39686,53.513659 1205.56789,54.4534159 C1205.73893,55.3931728 1206.25203,57.6998504 1206.76512,58.4687413 C1207.27822,59.2376346 1208.47545,59.7502278 1208.13339,60.6045529 C1207.79132,61.458878 1207.87684,63.4665396 1208.81752,63.5946896 C1210.3829,63.8079414 1211.04094,62.9966623 1211.8961,62.9966623 C1212.75127,62.9966623 1212.9223,64.6198807 1212.9223,65.1324739 C1212.9223,65.6450695 1213.4354,67.951747 1213.60643,68.6352062 C1213.77746,69.3186653 1213.77746,71.7962065 1214.11953,74.0174523 C1214.2518,74.8692178 1213.94849,76.8367254 1214.46159,78.1182119 C1214.97469,79.3996984 1214.80366,80.4248895 1215.14572,81.1937804 C1215.48779,81.9626737 1214.97469,83.9276193 1216.68502,83.9276193 C1218.39535,83.9276193 1218.22431,83.1587284 1218.90844,81.2792122 C1219.59257,79.3996984 1218.56638,78.972537 1219.25051,78.2036437 C1219.93464,77.4347527 1221.13187,76.3241299 1220.7898,75.2989388 C1220.44774,74.27375 1220.10567,73.0776954 1220.7898,72.5650998 C1221.47393,72.0525067 1221.816,70.7710178 1221.816,69.8312609 C1221.816,68.8915039 1220.7898,68.8060722 1221.98703,67.951747 C1223.18426,67.0974219 1222.50013,64.192717 1223.18426,63.1675283 C1223.86839,62.1423372 1225.06562,61.5443098 1224.89459,59.2376346 C1224.72355,56.9309571 1224.55252,54.7951455 1225.23665,54.0262521 C1225.92078,53.2573612 1225.74975,52.0613065 1227.11801,52.3176043 C1228.48627,52.5738997 1228.31524,52.7447657 1228.65731,54.1971181 C1228.99937,55.6494706 1229.17041,58.2978777 1229.34144,58.9813369 C1229.51247,59.664796 1229.85454,60.3482552 1230.53867,60.9462825 C1231.2228,61.5443098 1232.59106,63.6801238 1232.59106,64.363583 C1232.59106,65.0470421 1233.78829,66.6702606 1233.61725,67.1828537 C1233.44622,67.6954493 1232.24899,68.8060722 1233.10415,69.6603973 C1233.95932,70.51472 1233.78829,71.2836133 1233.95932,71.9670725 C1234.13035,72.650534 1234.30138,74.0174523 1234.64345,74.7863456 C1234.98552,75.5552365 1237.03791,76.8367254 1237.55101,75.2989388 C1238.0641,73.7611545 1238.91927,72.5650998 1239.0903,71.1981815 C1239.26133,69.8312609 1238.5772,69.5749631 1238.91927,68.4643426 C1239.26133,67.3537197 1239.77443,66.5848264 1239.6034,65.7305012 C1239.43236,64.8761785 1239.94546,62.8257987 1239.94546,61.5443098 C1239.94546,60.2628234 1240.80062,59.2376346 1241.14269,58.6396073 C1241.48475,58.04158 1241.48475,57.4435526 1242.33992,56.5892275 C1243.19508,55.7349024 1243.87921,53.0010634 1246.10264,53.8553886 C1248.32606,54.7097137 1255.82734,54.6242795 1255.82734,56.3329297 C1255.82734,58.04158 1257.26658,58.5315344 1257.60865,59.6421573 C1257.95071,60.7527802 1258.35176,65.2500836 1260.98404,64.9616103 C1261.61516,64.8924461 1263.21883,62.6514469 1263.76198,62.5695009 C1265.22326,62.3490324 1265.22326,60.1773916 1266.51162,58.2124435 C1267.46558,56.7575086 1270.3798,55.6494706 1269.24352,55.939655 C1270.7625,55.5753335 1272.5721,55.3931728 1274.67234,55.3931728 C1277.82269,55.3931728 1276.1656,54.7951455 1279.11194,55.3931728 C1282.05829,55.9912002 1280.9933,54.6242795 1281.5064,57.0163889 C1282.0195,59.4084982 1282.70363,62.0569054 1283.55879,63.1675283 C1284.41396,64.2781512 1285.44015,67.2682879 1286.12428,68.4643426 C1286.80841,69.6603973 1288.51874,70.4292882 1288.17667,72.308802 C1287.83461,74.1883183 1289.03184,74.5300478 1289.20287,75.7261025 C1289.3739,76.9221572 1289.03184,78.7162392 1290.57113,78.4599415 C1292.11043,78.2036437 1292.62352,77.6056163 1292.79456,75.4698047 C1292.96559,73.3339931 1293.99178,72.479668 1294.33385,71.6253429 C1294.67591,70.7710178 1293.99178,69.6603973 1294.33385,67.951747 C1294.67591,66.2430968 1294.67591,65.1324739 1295.18901,64.192717 C1295.70211,63.2529601 1297.24141,60.7754189 1296.89934,60.1773916 C1296.55727,59.5793642 1297.24141,56.4183615 1297.24141,56.4183615 C1297.24141,56.4183615 1298.43864,54.7951455 1299.2938,56.7600911 C1300.14896,58.7250391 1299.12277,61.8860418 1299.97793,62.9112305 C1300.83309,63.9364192 1301.17516,65.1324739 1301.34619,66.4139628 C1301.51722,67.6954493 1302.20135,69.9166927 1303.22755,69.2332335 C1304.25374,68.5497744 1305.45097,65.986799 1305.45097,64.9616103 C1305.45097,63.9364192 1305.27994,62.6549327 1305.96407,61.629744 C1306.6482,60.6045529 1305.90895,58.9573297 1306.47717,57.4435526 C1308.01647,53.342793 1308.52956,54.7097137 1312.97641,53.342793 C1317.42326,51.9758723 1316.39707,51.2924132 1320.15978,52.2321701 C1323.9225,53.171927 1325.63283,55.9057684 1326.48799,56.7600911 C1327.34316,57.6144162 1327.34316,59.7502278 1328.19832,60.4336893 C1329.05348,61.1171485 1329.05348,63.6801238 1329.56658,64.7053125 C1330.07968,65.7305012 1328.71142,66.8411241 1329.73761,67.6100175 C1330.76381,68.3789084 1331.44794,69.4895313 1330.25071,70.7710178 C1329.05348,72.0525067 1331.61897,75.5552365 1332.3031,76.6658594 C1332.98723,77.7764823 1333.67136,81.1937804 1334.01343,82.1335373 C1334.3555,83.0732942 1334.18446,86.1488651 1336.40789,85.6362696 C1338.63131,85.123674 1338.80234,84.0130535 1338.80234,82.6461329 C1338.80234,81.2792122 1338.11821,80.5957531 1339.48647,79.1434006 C1340.85473,77.6910481 1341.36783,74.1883183 1340.85473,73.3339931 C1340.34164,72.479668 1341.7099,72.5650998 1341.88093,71.7962089 C1342.05196,71.0273156 1342.39403,69.3186653 1343.24919,68.2934766 C1344.10436,67.2682879 1341.88093,66.4139628 1343.42023,65.8159354 C1344.95952,65.2179081 1346.84088,62.4840691 1346.66985,61.629744 C1346.49881,60.7754189 1347.35398,59.2376346 1347.69604,58.2124435 C1348.03811,57.1872548 1349.74843,52.5738997 1349.74843,51.377845 C1349.74843,50.1817903 1351.62979,47.1916536 1354.70838,49.7546289 C1357.78697,52.3176043 1356.76077,56.5037957 1357.27387,57.0163889 C1357.78697,57.5289844 1359.97874,55.2223068 1360.32081,56.5892275 C1360.66287,57.9561458 1367.73878,51.6341428 1369.27807,50.6943859 C1370.81737,49.7546289 1379.16605,59.5793642 1378.82399,58.2978777 C1378.48192,57.0163889 1377.62676,56.5892275 1378.13986,55.6494706 C1378.65296,54.7097137 1378.99502,53.342793 1378.99502,52.6593339 C1378.99502,51.9758723 1381.38948,47.7896809 1381.38948,47.2770878 C1381.38948,46.7644922 1382.92877,44.0306533 1383.95497,45.6538693 C1384.98116,47.2770878 1383.95497,48.9003038 1384.29703,49.4128994 C1384.6391,49.9254949 1384.46806,54.7951455 1385.1522,55.6494706 C1385.83633,56.5037957 1386.69149,59.0667687 1386.69149,60.0065256 C1386.69149,60.9462825 1386.17839,61.0317167 1386.52046,62.398635 C1386.86252,63.7655556 1387.88872,63.4238261 1388.23079,63.9364192 C1388.57285,64.4490148 1387.88872,66.8411241 1389.77008,66.8411241 C1391.65144,66.8411241 1390.79627,64.6198807 1391.30937,64.2781512 C1391.82247,63.9364192 1392.33557,63.1675283 1393.0197,61.458878 C1393.70383,59.7502278 1394.21693,60.1773916 1394.90106,58.7250391 C1395.58519,57.2726866 1393.87486,57.5289844 1394.73003,56.3329297 C1395.58519,55.136875 1395.41416,52.5738997 1396.09829,51.8050087 C1396.78242,51.0361154 1395.92726,50.6943859 1397.12448,49.4983312 C1398.32171,48.3022765 1397.97965,47.8751151 1399.68997,45.9101671 C1401.4003,43.9452215 1399.68997,39.5881641 1400.54513,38.3921094 C1401.4003,37.1960547 1401.05823,36 1401.05823,36 L1183.50468,36.0854318 Z" id="path1381" fill="#0D3674"></path>
                        <path d="M1072.69759,36.182535 L1290.25115,36.0971032 C1290.25115,36.0971032 1290.59322,37.2931579 1289.73805,38.4892126 C1288.88289,39.6852673 1290.59322,44.0423247 1288.88289,46.0072703 C1287.17256,47.9722183 1287.51463,48.3993797 1286.3174,49.5954344 C1285.12017,50.7914891 1285.97533,51.1332186 1285.2912,51.902112 C1284.60707,52.6710029 1284.7781,55.2339783 1283.92294,56.4300329 C1283.06778,57.6260876 1284.7781,57.3697899 1284.09397,58.8221423 C1283.40984,60.2744948 1282.89674,59.847331 1282.21261,61.5559813 C1281.52848,63.2646315 1281.01539,64.0335224 1280.50229,64.3752544 C1279.98919,64.716984 1280.84435,66.9382274 1278.96299,66.9382274 C1277.08163,66.9382274 1277.76576,64.546118 1277.4237,64.0335224 C1277.08163,63.5209293 1276.05544,63.8626588 1275.71337,62.4957382 C1275.37131,61.1288199 1275.8844,61.0433857 1275.8844,60.1036288 C1275.8844,59.1638719 1275.02924,56.6008989 1274.34511,55.7465738 C1273.66098,54.8922487 1273.83201,50.0225981 1273.48995,49.5100026 C1273.14788,48.997407 1274.17408,47.374191 1273.14788,45.7509725 C1272.12169,44.1277565 1270.58239,46.8615954 1270.58239,47.374191 C1270.58239,47.8867841 1268.18793,52.0729756 1268.18793,52.7564371 C1268.18793,53.4398962 1267.84587,54.8068169 1267.33277,55.7465738 C1266.81967,56.6863307 1267.67483,57.1134921 1268.0169,58.394981 C1268.35897,59.6764674 1260.01028,49.8517322 1258.47099,50.7914891 C1256.93169,51.731246 1249.85578,58.053249 1249.51372,56.6863307 C1249.17165,55.31941 1246.97988,57.6260876 1246.46679,57.1134921 C1245.95369,56.6008989 1246.97988,52.4147075 1243.9013,49.8517322 C1240.82271,47.2887568 1238.94135,50.2788935 1238.94135,51.4749482 C1238.94135,52.6710029 1237.23102,57.2843581 1236.88896,58.3095468 C1236.54689,59.3347379 1235.69173,60.8725221 1235.86276,61.7268472 C1236.03379,62.5811724 1234.15243,65.3150113 1232.61314,65.9130387 C1231.07384,66.511066 1233.29727,67.3653911 1232.4421,68.3905798 C1231.58694,69.4157685 1231.24488,71.1244188 1231.07384,71.8933121 C1230.90281,72.662203 1229.53455,72.5767712 1230.04765,73.4310964 C1230.56075,74.2854215 1230.04765,77.7881513 1228.67939,79.2405038 C1227.31113,80.6928563 1227.99526,81.3763154 1227.99526,82.7432361 C1227.99526,84.1101568 1227.82423,85.2207773 1225.6008,85.7333728 C1223.37737,86.2459684 1223.54841,83.1703974 1223.20634,82.2306405 C1222.86428,81.2908836 1222.18015,77.8735855 1221.49602,76.7629626 C1220.81189,75.6523397 1218.2464,72.1496099 1219.44363,70.868121 C1220.64085,69.5866345 1219.95672,68.4760116 1218.93053,67.7071207 C1217.90433,66.9382274 1219.27259,65.8276045 1218.7595,64.8024158 C1218.2464,63.7772271 1218.2464,61.2142517 1217.39123,60.5307926 C1216.53607,59.847331 1216.53607,57.7115194 1215.6809,56.8571943 C1214.82574,56.0028716 1213.11542,53.2690302 1209.3527,52.3292733 C1205.58998,51.3895164 1206.61617,52.0729756 1202.16933,53.4398962 C1197.72247,54.8068169 1197.20938,53.4398962 1195.67008,57.5406558 C1195.10186,59.0544329 1195.84112,60.7016561 1195.15699,61.7268472 C1194.47286,62.752036 1194.64389,64.0335224 1194.64389,65.0587135 C1194.64389,66.0839022 1193.44666,68.6468776 1192.42047,69.3303367 C1191.39427,70.0137959 1190.71014,67.7925525 1190.5391,66.511066 C1190.36807,65.2295771 1190.02601,64.0335224 1189.17084,63.0083337 C1188.31568,61.983145 1189.34187,58.8221423 1188.48671,56.8571943 C1187.63155,54.8922487 1186.43432,56.5154647 1186.43432,56.5154647 C1186.43432,56.5154647 1185.75019,59.6764674 1186.09225,60.2744948 C1186.43432,60.8725221 1184.89503,63.3500633 1184.38193,64.2898202 C1183.86883,65.2295771 1183.86883,66.3402 1183.52677,68.0488503 C1183.1847,69.7575005 1183.86883,70.868121 1183.52677,71.7224461 C1183.1847,72.5767712 1182.1585,73.4310964 1181.98747,75.566908 C1181.81644,77.7027196 1181.30334,78.3007469 1179.76404,78.5570447 C1178.22475,78.8133424 1178.56682,77.0192604 1178.39578,75.8232057 C1178.22475,74.627151 1177.02752,74.2854215 1177.36959,72.4059053 C1177.71165,70.5263914 1176.00133,69.7575005 1175.3172,68.5614458 C1174.63307,67.3653911 1173.60687,64.3752544 1172.75171,63.2646315 C1171.89654,62.1540086 1171.21241,59.5056015 1170.69931,57.1134921 C1170.18621,54.7213827 1171.2512,56.0883034 1168.30486,55.490276 C1165.35851,54.8922487 1167.0156,55.490276 1163.86525,55.490276 C1161.76502,55.490276 1159.95541,55.6724368 1158.43643,56.0367582 C1159.57271,55.7465738 1156.6585,56.8546118 1155.70454,58.3095468 C1154.41618,60.2744948 1154.41618,62.4461357 1152.95489,62.6666042 C1152.41175,62.7485502 1150.80808,64.9895493 1150.17696,65.0587135 C1147.54467,65.3471868 1147.14363,60.8498834 1146.80157,59.7392605 C1146.4595,58.6286376 1145.02025,58.1386832 1145.02025,56.4300329 C1145.02025,54.7213827 1137.51898,54.8068169 1135.29555,53.9524918 C1133.07213,53.0981667 1132.388,55.8320056 1131.53284,56.6863307 C1130.67767,57.5406558 1130.67767,58.1386832 1130.33561,58.7367105 C1129.99354,59.3347379 1129.13838,60.3599266 1129.13838,61.6414131 C1129.13838,62.9229019 1128.62528,64.9732817 1128.79631,65.8276045 C1128.96735,66.6819296 1128.45425,67.4508229 1128.11218,68.5614458 C1127.77012,69.6720663 1128.45425,69.9283641 1128.28321,71.2952847 C1128.11218,72.662203 1127.25702,73.8582577 1126.74392,75.396042 C1126.23082,76.9338286 1124.17843,75.6523397 1123.83636,74.8834488 C1123.4943,74.1145555 1123.32327,72.7476372 1123.15223,72.0641757 C1122.9812,71.3807165 1123.15223,70.6118232 1122.29707,69.7575005 C1121.44191,68.9031754 1122.63914,67.7925525 1122.81017,67.2799569 C1122.9812,66.7673638 1121.78397,65.1441453 1121.78397,64.4606862 C1121.78397,63.7772271 1120.41571,61.6414131 1119.73158,61.0433857 C1119.04745,60.4453584 1118.70538,59.7618992 1118.53435,59.0784401 C1118.36332,58.394981 1118.19229,55.7465738 1117.85022,54.2942213 C1117.50815,52.8418689 1117.67919,52.6710029 1116.31092,52.4147075 C1114.94266,52.1584097 1115.1137,53.3544644 1114.42957,54.1233554 C1113.74544,54.8922487 1113.91647,57.0280603 1114.0875,59.3347379 C1114.25853,61.6414131 1113.06131,62.2394404 1112.37718,63.2646315 C1111.69305,64.2898202 1112.37718,67.1945251 1111.17995,68.0488503 C1109.98272,68.9031754 1111.00892,68.9886072 1111.00892,69.9283641 C1111.00892,70.868121 1110.66685,72.1496099 1109.98272,72.662203 C1109.29859,73.1747986 1109.64065,74.3708533 1109.98272,75.396042 C1110.32478,76.4212331 1109.12755,77.531856 1108.44342,78.3007469 C1107.75929,79.0696402 1108.78549,79.4968016 1108.10136,81.3763154 C1107.41723,83.2558316 1107.58826,84.0247226 1105.87793,84.0247226 C1104.16761,84.0247226 1104.6807,82.0597769 1104.33864,81.2908836 C1103.99657,80.5219927 1104.16761,79.4968016 1103.65451,78.2153151 C1103.14141,76.9338286 1103.44471,74.9663211 1103.31244,74.1145555 C1102.97038,71.8933097 1102.97038,69.4157685 1102.79935,68.7323094 C1102.62831,68.0488503 1102.11522,65.7421727 1102.11522,65.2295771 C1102.11522,64.716984 1101.94418,63.0937655 1101.08902,63.0937655 C1100.23386,63.0937655 1099.57581,63.9050446 1098.01043,63.6917929 C1097.06975,63.5636428 1096.98423,61.5559813 1097.3263,60.7016561 C1097.66836,59.847331 1096.47114,59.3347379 1095.95804,58.5658445 C1095.44494,57.7969536 1094.93184,55.490276 1094.76081,54.5505191 C1094.58978,53.6107622 1093.39255,53.1835984 1093.39255,51.3040846 C1093.39255,49.4245708 1092.36635,46.6052977 1090.82706,46.5198659 C1089.28776,46.4344341 1089.11673,47.6304888 1088.9457,48.2285161 C1088.77466,48.8265434 1089.11673,50.1934617 1088.26157,50.5351913 C1087.4064,50.8769209 1087.57744,51.5603824 1087.23537,52.4147075 C1086.8933,53.2690302 1086.20917,54.1233554 1085.52504,55.4048442 C1084.84091,56.6863307 1083.98575,56.7717625 1083.30162,57.5406558 C1082.61749,58.3095468 1083.31764,59.7712883 1082.95955,61.4705495 C1082.78852,62.2821587 1080.47958,62.4530247 1080.22303,61.3851177 C1080.22303,61.3851177 1079.88097,57.9678172 1079.36787,57.1134921 C1078.85477,56.259167 1078.85477,56.7717625 1079.0258,54.8922487 C1079.19684,53.0127349 1078.17064,52.6710029 1076.80238,50.7914891 C1075.43412,48.9119752 1076.28928,46.7761636 1075.77618,45.6655407 C1075.26308,44.5549179 1073.72379,42.4191063 1073.21069,41.3084834 C1072.69759,40.1978629 1072.69759,36.182535 1072.69759,36.182535 Z" id="path1381" fill="#0D3674"></path>
                        <polygon id="Rectangle" fill="url(#linearGradient-1)" points="0 1.0658141e-14 1402 1.0658141e-14 1402 38.4 0 38.4"></polygon>
                    </g>
                </g>
            </g>
        </g>
    </g>
</svg>